<svg xmlns="http://www.w3.org/2000/svg" viewBox="30.52 57.67 1480.17 857.51" preserveAspectRatio="xMidYMax meet" class="pointer-events-none text-slate-900" style="width: 92%; height: 92%;"><g><g transform="translate(0.000000,1024.000000) scale(0.100000,-0.100000)" fill="currentColor" stroke="none"><path d="M7630 9640 c0 -5 7 -10 15 -10 8 0 15 5 15 10 0 6 -7 10 -15 10 -8 0 -15 -4 -15 -10z"></path><path d="M7375 9470 c-3 -5 1 -10 10 -10 9 0 13 5 10 10 -3 6 -8 10 -10 10 -2 0 -7 -4 -10 -10z"></path><path d="M7245 9459 c-10 -15 3 -25 16 -12 7 7 7 13 1 17 -6 3 -14 1 -17 -5z"></path><path d="M7090 9344 c-73 -37 -100 -65 -100 -100 0 -13 -4 -32 -9 -42 -33 -68 -47 -90 -69 -114 -14 -15 -23 -31 -19 -34 12 -12 36 6 62 46 14 22 32 40 39 40 8 0 21 6 28 14 8 7 29 21 47 31 51 26 81 63 81 100 0 17 7 40 15 51 18 24 19 44 3 43 -7 -1 -42 -16 -78 -35z"></path><path d="M7888 9302 c-20 -9 -48 -31 -62 -49 l-27 -32 38 6 c49 8 90 28 103 52 23 44 8 51 -52 23z"></path><path d="M7370 9295 c0 -8 5 -15 10 -15 6 0 10 7 10 15 0 8 -4 15 -10 15 -5 0 -10 -7 -10 -15z"></path><path d="M8283 9240 c-41 -24 -42 -40 -5 -40 29 0 78 40 65 53 -11 11 -26 8 -60 -13z"></path><path d="M6250 9234 c0 -9 5 -14 12 -12 18 6 21 28 4 28 -9 0 -16 -7 -16 -16z"></path><path d="M7718 9169 c-10 -5 -18 -16 -18 -23 0 -7 -19 -19 -42 -25 -53 -15 -160 -30 -170 -24 -9 5 -66 -23 -90 -45 -10 -8 -18 -24 -18 -36 0 -11 -12 -32 -26 -47 -15 -15 -32 -38 -38 -51 -6 -13 -35 -36 -63 -53 -29 -16 -52 -36 -53 -42 0 -18 5 -17 69 15 68 35 121 53 181 63 100 16 160 55 160 103 0 14 17 36 45 59 25 21 45 44 45 50 0 7 14 21 30 30 31 19 40 37 18 37 -7 0 -21 -5 -30 -11z"></path><path d="M8855 9129 c-4 -6 -5 -13 -2 -16 7 -7 27 6 27 18 0 12 -17 12 -25 -2z"></path><path d="M5999 9081 c-55 -49 -56 -50 -57 -108 0 -32 -8 -78 -16 -102 -9 -24 -16 -53 -16 -65 0 -13 -27 -47 -68 -88 -68 -67 -147 -107 -212 -108 -59 -1 -166 -60 -198 -109 -9 -13 -19 -45 -22 -70 -5 -42 -9 -49 -54 -78 -27 -18 -70 -52 -95 -76 -25 -25 -52 -42 -59 -40 -7 3 -23 -4 -36 -16 -18 -17 -133 -71 -151 -71 -3 0 8 19 25 43 107 148 130 181 130 188 0 14 -16 10 -31 -7 -22 -26 -229 -145 -241 -138 -7 4 -8 3 -4 -4 3 -6 -3 -16 -15 -22 -19 -11 -19 -9 5 26 41 61 32 68 -31 28 -93 -60 -124 -77 -129 -72 -2 3 2 23 10 45 8 23 22 81 30 130 9 48 19 101 22 117 5 24 3 28 -11 23 -13 -6 -15 -3 -10 16 4 12 14 45 22 72 8 28 28 86 43 130 45 124 74 275 53 275 -5 0 -27 -26 -50 -58 -60 -85 -127 -161 -168 -190 -19 -14 -35 -33 -35 -42 0 -33 -108 -116 -163 -125 -12 -2 -44 -28 -72 -58 -27 -30 -75 -67 -105 -83 -30 -16 -72 -46 -93 -67 l-38 -38 6 78 c6 71 13 91 74 213 38 75 72 150 76 168 3 17 11 34 16 37 11 8 12 25 1 25 -5 0 -29 -18 -53 -41 -70 -66 -140 -123 -188 -153 -68 -44 -140 -115 -179 -176 -47 -75 -78 -106 -128 -130 -66 -32 -120 -103 -183 -241 -28 -60 -36 -68 -78 -87 -92 -39 -154 -55 -165 -44 -8 8 -8 15 2 27 7 8 10 18 7 21 -10 10 -60 -28 -127 -95 -36 -36 -86 -81 -112 -99 l-48 -33 10 27 c6 15 8 30 4 33 -5 6 -16 -6 -70 -74 -22 -29 -23 -29 -17 -5 12 45 -25 3 -63 -71 -29 -59 -33 -74 -27 -114 5 -38 3 -48 -13 -60 -10 -8 -26 -15 -35 -15 -9 0 -65 -22 -125 -50 -60 -27 -117 -50 -127 -50 -10 0 -34 -8 -55 -19 -20 -10 -61 -24 -90 -30 -75 -16 -111 -37 -127 -75 -16 -39 -8 -81 27 -136 27 -43 48 -98 48 -128 0 -41 81 -172 106 -172 8 0 23 -20 34 -45 32 -74 167 -204 184 -177 3 5 -8 28 -25 53 -46 70 -63 162 -24 129 17 -14 36 -5 29 14 -4 10 2 12 22 8 24 -4 26 -2 21 17 -10 41 20 21 56 -37 40 -65 131 -156 150 -149 14 5 15 3 -18 90 -29 78 -31 115 -10 143 15 19 16 18 39 -8 32 -36 46 -35 46 1 0 47 18 46 62 -3 23 -25 48 -46 55 -46 16 0 17 24 2 52 -13 24 -4 68 15 68 7 0 21 -10 29 -22 16 -23 16 -23 16 -2 1 11 4 24 8 28 4 4 53 -42 109 -101 56 -59 105 -104 110 -100 4 4 0 36 -9 71 -20 75 -22 127 -6 143 13 13 41 -15 53 -54 4 -11 14 -24 23 -27 16 -7 16 -9 -4 81 -11 49 49 37 68 -14 5 -13 13 -23 18 -23 11 0 24 48 16 61 -4 5 0 12 8 15 24 9 75 -24 104 -67 24 -36 25 -42 12 -66 -8 -14 -29 -40 -46 -57 -21 -19 -33 -40 -33 -57 0 -37 -20 -92 -38 -107 -15 -11 -15 -15 1 -41 31 -53 0 -42 -56 19 -31 33 -58 60 -60 60 -5 0 -18 -84 -19 -118 0 -12 12 -34 26 -49 30 -30 33 -54 8 -76 -22 -20 -40 -10 -50 28 -5 16 -13 30 -20 33 -12 4 -14 -10 -16 -98 -1 -29 -5 -36 -24 -38 -16 -2 -27 -14 -34 -33 -11 -32 -18 -35 -36 -17 -8 8 -15 8 -28 -3 -19 -16 -24 -11 -84 94 -19 33 -41 62 -48 65 -20 6 -15 -100 8 -169 12 -34 18 -64 15 -68 -4 -3 -18 7 -31 22 -13 16 -29 25 -34 22 -14 -8 -13 -38 2 -53 7 -7 8 -12 2 -12 -6 0 -19 9 -29 20 -11 12 -26 18 -35 15 -21 -7 -69 45 -102 108 l-22 42 -6 -30 c-8 -39 5 -109 30 -160 11 -23 20 -55 20 -73 0 -17 11 -52 25 -78 14 -26 25 -58 25 -70 0 -24 25 -34 32 -13 2 6 17 -15 33 -47 29 -57 30 -63 30 -200 0 -106 3 -145 14 -158 13 -15 15 -15 32 0 17 15 18 28 13 128 -3 61 -1 124 3 140 l9 29 30 -31 c17 -17 36 -50 42 -74 19 -70 37 -337 39 -573 1 -121 5 -251 9 -288 4 -42 2 -102 -6 -156 -14 -101 -8 -156 20 -171 26 -14 46 -4 61 32 10 24 10 48 1 117 -9 59 -11 200 -7 451 5 393 16 565 38 619 l14 33 5 -76 c3 -42 8 -79 11 -82 18 -18 27 16 27 96 0 49 4 91 10 95 35 21 61 -237 39 -383 -10 -66 -9 -82 4 -114 21 -50 51 -51 74 -3 14 30 15 44 4 117 -10 64 -11 126 -3 268 11 195 23 251 70 323 34 51 50 48 54 -10 2 -25 8 -48 14 -50 16 -5 26 128 11 146 -9 10 -6 18 12 32 32 26 41 24 41 -11 0 -16 5 -30 10 -30 6 0 10 18 10 39 0 48 11 57 35 31 25 -28 42 -239 26 -321 -12 -61 -3 -105 24 -115 37 -15 59 40 43 109 -11 46 7 339 23 393 15 48 40 65 108 71 47 4 61 3 64 -8 16 -58 29 -108 34 -131 3 -16 9 -28 13 -28 10 0 34 134 28 164 l-5 25 29 -17 c39 -22 48 -42 67 -137 12 -60 16 -144 16 -337 0 -266 3 -284 41 -276 38 7 49 49 37 135 -18 124 -1 429 28 518 20 59 24 66 30 45 4 -14 8 -65 8 -115 1 -96 9 -122 35 -112 13 5 16 26 16 124 l1 118 30 -35 c16 -19 36 -57 44 -85 36 -125 63 -909 41 -1160 -8 -88 -8 -92 16 -119 21 -25 27 -27 46 -17 43 23 50 101 23 251 -7 36 -10 83 -6 105 4 22 8 128 10 235 9 429 33 659 69 647 6 -2 24 -24 39 -49 37 -60 48 -149 22 -178 -15 -17 -16 -23 -6 -33 11 -9 14 -9 18 1 3 7 12 19 20 28 9 9 18 38 21 65 l4 49 19 -24 c42 -53 72 -298 54 -446 -6 -57 -5 -68 13 -90 l20 -25 22 20 c20 18 22 25 14 80 -10 79 -7 202 7 298 l12 77 24 -32 c40 -53 57 -90 62 -137 7 -52 31 -69 31 -22 0 37 13 46 32 23 37 -42 42 -66 43 -217 2 -144 15 -235 35 -235 6 0 10 15 10 33 0 19 5 60 12 93 l12 59 14 -50 c8 -28 18 -102 23 -165 4 -63 14 -130 22 -148 10 -25 12 -47 5 -90 -9 -53 -6 -123 8 -228 5 -37 2 -46 -28 -80 -19 -22 -37 -46 -41 -56 -3 -9 -42 -44 -86 -77 -44 -34 -93 -78 -108 -99 -15 -20 -58 -70 -95 -111 -38 -40 -68 -77 -68 -82 0 -12 17 -11 42 2 24 13 22 9 -79 -110 -49 -58 -63 -81 -46 -81 3 0 15 8 26 18 14 12 10 0 -12 -38 -18 -30 -46 -83 -61 -116 -19 -41 -45 -75 -77 -102 -26 -22 -56 -57 -66 -79 -11 -21 -26 -54 -35 -73 -21 -42 -132 -153 -232 -232 -81 -64 -136 -121 -176 -181 -13 -21 -40 -45 -58 -53 -18 -9 -41 -30 -51 -46 -29 -50 -74 -95 -121 -123 -24 -14 -42 -30 -40 -34 6 -8 -54 -38 -144 -71 -40 -14 -80 -20 -145 -20 -82 0 -95 -3 -142 -30 -29 -17 -53 -34 -53 -39 0 -4 -16 -29 -35 -54 -29 -38 -46 -50 -90 -62 -38 -11 -62 -26 -77 -46 -13 -17 -42 -52 -64 -77 -48 -55 -86 -125 -109 -205 l-17 -58 -46 7 c-26 4 -68 17 -94 30 -26 13 -55 24 -64 24 -30 0 -123 33 -118 42 3 4 -7 8 -21 8 -14 0 -24 4 -21 9 3 4 17 6 31 3 28 -5 32 7 14 41 -17 33 -61 77 -76 77 -8 0 -21 16 -29 35 -10 24 -21 35 -35 35 -28 0 -87 42 -81 58 10 31 -20 70 -71 92 -63 27 -56 21 -66 58 -10 34 0 37 39 9 13 -9 30 -17 37 -17 7 0 13 -4 13 -9 0 -5 19 -29 43 -53 24 -24 53 -60 66 -81 22 -36 41 -48 41 -26 0 5 10 3 22 -5 12 -9 37 -16 54 -16 27 0 31 -3 27 -20 -7 -26 23 -60 52 -60 11 0 36 -16 55 -35 37 -38 50 -43 50 -20 0 8 -4 15 -10 15 -5 0 -14 10 -21 22 -10 19 -9 20 7 14 11 -4 32 -10 47 -13 27 -5 28 -4 21 23 -23 103 -50 171 -76 196 -15 14 -28 33 -28 41 0 8 -7 20 -16 28 -22 18 -47 69 -34 69 15 0 114 -157 130 -205 32 -99 71 -148 109 -138 21 5 23 10 18 51 -3 32 -2 41 5 29 9 -18 63 -24 72 -9 6 10 -30 112 -44 126 -5 5 -5 16 0 26 6 11 1 39 -16 85 -14 37 -23 72 -21 78 4 12 72 -79 81 -109 3 -11 20 -36 36 -54 24 -27 31 -30 36 -17 3 10 4 23 1 31 -3 8 -1 17 6 19 9 3 9 8 0 18 -7 7 -13 23 -13 35 0 17 4 21 20 17 11 -3 23 -10 27 -16 3 -6 1 -7 -5 -3 -7 4 -12 3 -12 -3 0 -14 22 -26 41 -23 9 2 19 -4 22 -13 10 -24 25 -17 29 13 2 15 9 27 18 28 35 2 40 5 40 18 0 8 -7 16 -15 19 -12 5 -12 10 0 34 25 48 17 103 -15 103 -22 0 -44 -51 -35 -81 l7 -22 -29 21 c-16 12 -36 28 -43 37 -15 18 -41 20 -58 3 -8 -8 -20 -4 -48 17 -49 38 -135 155 -130 178 3 12 -3 21 -18 27 -12 4 -39 37 -60 71 -47 78 -72 106 -109 126 -35 18 -54 12 -59 -19 -3 -19 -15 -6 -67 71 -66 97 -100 165 -146 288 -37 101 -98 150 -130 106 -11 -15 -15 -12 -35 28 -13 24 -36 63 -52 86 -15 23 -54 94 -84 158 -82 167 -122 191 -188 110 -31 -37 -43 -45 -70 -45 -45 0 -66 -26 -66 -81 0 -24 -7 -93 -15 -154 -8 -60 -15 -159 -15 -218 0 -73 -5 -119 -15 -144 -10 -24 -15 -70 -15 -142 0 -58 -4 -112 -9 -119 -6 -10 -17 -3 -44 27 -19 21 -40 49 -47 60 -11 21 -45 28 -65 13 -15 -10 -80 -102 -97 -137 -9 -16 -18 -46 -22 -66 -4 -23 -17 -43 -36 -58 -29 -21 -30 -24 -30 -102 0 -72 -3 -84 -25 -111 -21 -25 -25 -40 -25 -98 0 -96 -9 -130 -37 -143 -16 -7 -28 -26 -37 -58 -20 -67 -32 -86 -95 -157 -31 -35 -65 -76 -77 -92 l-20 -29 -36 33 c-20 18 -48 52 -62 75 -33 51 -54 53 -124 6 -67 -45 -239 -218 -290 -291 -38 -56 -349 -223 -414 -224 -10 0 -18 -5 -18 -11 0 -6 8 -8 18 -5 9 3 71 10 137 16 66 5 150 13 187 16 48 5 72 3 83 -6 20 -17 140 -26 149 -11 5 7 -7 11 -36 12 -24 0 -52 4 -63 9 -19 8 -18 9 5 11 14 2 63 4 110 6 47 1 94 3 105 4 11 1 32 -1 47 -6 19 -5 28 -3 28 4 0 6 -7 11 -15 11 -22 0 -18 18 6 25 12 4 18 13 15 20 -3 8 1 18 8 25 18 14 30 -12 13 -29 -8 -8 -8 -11 0 -11 7 0 15 5 18 10 3 6 18 10 33 9 26 -1 25 -2 -10 -18 -21 -10 -40 -20 -42 -22 -7 -7 169 -4 180 4 25 15 122 35 147 30 15 -3 33 0 41 6 9 8 35 10 80 5 57 -6 66 -5 66 10 0 9 7 16 16 16 11 0 14 -5 10 -16 -4 -10 -1 -14 6 -11 7 2 12 11 12 20 -1 12 3 14 15 8 19 -9 63 0 68 15 2 5 -7 11 -19 11 -32 2 -158 20 -187 27 -38 9 -39 19 -1 12 119 -23 217 -25 204 -4 -3 5 -14 6 -25 3 -10 -4 -26 -2 -34 3 -14 7 -11 13 19 36 36 27 41 25 37 -16 -3 -24 11 -23 32 2 20 23 15 37 -17 51 -20 8 -20 9 4 6 15 -1 29 -11 35 -24 10 -23 35 -32 35 -13 0 19 21 10 29 -13 19 -49 91 -72 91 -30 1 17 1 17 14 0 12 -16 18 -16 62 -5 59 15 79 36 58 59 -8 9 -11 19 -7 23 4 4 1 11 -6 16 -10 6 0 10 32 15 49 8 54 14 37 46 -14 24 2 25 24 0 12 -13 14 -20 5 -23 -25 -8 83 -88 111 -82 71 16 71 16 16 -35 -61 -56 -115 -91 -144 -91 -12 0 -46 -9 -77 -21 -39 -15 -67 -19 -94 -14 -25 4 -51 1 -80 -11 -42 -17 -84 -16 -162 4 -26 7 -47 5 -70 -3 -300 -114 -360 -130 -560 -146 -68 -5 -176 -14 -239 -19 -63 -5 -201 -9 -306 -9 -105 -1 -205 -4 -223 -7 -57 -12 -21 -24 72 -24 102 0 316 -20 507 -47 l125 -18 -75 -6 c-41 -4 -141 -10 -222 -14 -82 -5 -148 -11 -148 -16 0 -4 37 -10 83 -13 45 -3 181 -13 302 -21 121 -9 347 -19 502 -22 155 -3 280 -10 277 -15 -12 -19 701 0 771 21 l30 9 -35 3 c-37 2 -24 5 120 23 l55 7 -40 -16 c-53 -20 -200 -59 -316 -85 -116 -25 -321 -40 -541 -40 -146 0 -198 -7 -171 -23 5 -3 123 -10 263 -16 140 -6 280 -16 310 -21 30 -5 147 -12 260 -15 264 -7 357 -14 339 -26 -18 -11 -22 -11 116 -18 l120 -6 -160 -13 c-88 -8 -173 -14 -188 -14 -16 0 -26 -5 -24 -12 5 -16 56 -20 82 -6 16 9 67 9 205 1 101 -6 285 -11 410 -11 240 0 689 25 703 39 5 5 -40 12 -100 15 -59 4 -117 8 -128 10 -11 2 167 4 395 5 407 2 473 5 636 32 55 8 94 10 125 3 39 -8 34 -9 -47 -9 -85 0 -95 -2 -166 -38 -63 -32 -95 -41 -209 -58 -74 -10 -206 -23 -294 -29 -88 -5 -190 -12 -227 -14 -36 -3 -80 -12 -97 -20 -17 -9 -55 -16 -86 -16 -30 0 -55 -4 -55 -10 0 -12 99 -13 243 -3 104 6 131 22 45 25 -49 1 -50 2 -13 6 22 2 99 -1 170 -8 262 -25 269 -27 85 -27 -157 0 -185 -2 -270 -25 -52 -14 -113 -29 -135 -32 -70 -11 -456 -36 -557 -36 -54 0 -98 -4 -98 -9 0 -10 62 -15 370 -31 113 -6 223 -13 245 -16 77 -10 863 -28 1160 -27 165 0 350 6 410 12 61 6 180 13 265 16 222 8 470 27 470 37 0 4 -19 9 -42 9 -277 9 -242 15 132 22 287 6 413 6 433 -2 36 -14 211 -15 202 -1 -4 7 84 9 257 8 194 -1 241 -3 178 -9 -47 -4 -122 -7 -167 -8 -48 -1 -83 -5 -83 -11 0 -6 -33 -10 -80 -10 -47 0 -80 -4 -80 -10 0 -12 -16 -10 135 -20 72 -5 195 -14 275 -20 155 -13 638 -8 825 9 55 5 161 11 235 12 74 1 139 4 144 7 19 10 -23 22 -79 22 -52 0 -386 26 -630 50 l-80 7 115 2 c117 2 184 11 203 30 7 7 -9 8 -49 5 -39 -4 -54 -2 -44 4 8 5 101 12 205 16 205 7 265 14 265 27 0 5 -24 9 -52 9 -92 0 -449 30 -548 46 -52 8 -136 25 -185 37 l-90 22 212 -1 c163 0 216 -4 228 -14 14 -12 36 -12 133 -1 158 17 300 13 287 -9 -2 -4 9 -7 25 -6 17 1 28 6 27 11 -4 13 -138 31 -290 40 -205 12 -120 16 144 7 246 -8 365 -4 479 18 30 6 96 12 145 15 l90 4 -78 -9 c-74 -7 -96 -14 -86 -25 3 -2 59 -9 125 -16 128 -12 465 -3 429 12 -11 4 -33 8 -50 9 -16 1 -25 4 -19 6 5 2 86 -5 180 -16 93 -12 274 -25 403 -31 129 -5 237 -11 239 -14 3 -3 -25 -5 -61 -5 -68 0 -90 -14 -39 -24 156 -30 949 -32 1092 -2 l65 14 -60 3 c-59 2 -58 2 25 10 47 4 166 7 265 8 161 1 582 20 803 37 102 7 99 23 -6 23 -166 -1 -591 36 -674 59 -15 4 180 7 435 8 254 0 426 -2 382 -5 -44 -4 -73 -9 -65 -13 8 -3 110 -11 226 -18 342 -19 1709 9 1709 35 0 6 -29 11 -65 12 -140 5 -307 27 -446 59 -34 7 -112 17 -175 21 l-114 8 125 5 c73 3 125 9 125 15 0 6 -57 15 -130 21 -112 10 -255 38 -244 49 8 7 270 -20 263 -28 -4 -4 23 -7 59 -7 37 0 67 3 67 8 0 4 102 3 227 -1 300 -10 582 -5 608 11 17 11 11 12 -45 11 -36 -1 -112 0 -170 1 -92 2 -99 4 -55 10 28 5 95 9 150 9 175 2 615 40 615 52 0 5 -21 9 -47 9 -56 1 -163 15 -248 34 l-60 13 122 8 c68 4 121 11 118 15 -2 4 -37 10 -77 14 -75 7 -258 42 -266 51 -10 9 18 55 32 55 8 0 22 10 30 22 19 27 21 68 4 68 -23 -1 -98 -39 -98 -50 0 -5 -8 -10 -19 -10 -10 0 -29 -8 -42 -19 -13 -10 -41 -24 -61 -30 -31 -10 -42 -10 -65 3 -62 34 -62 34 -44 106 10 43 25 74 44 92 21 21 27 37 27 68 0 50 12 75 56 116 27 25 34 40 34 70 1 68 48 148 89 149 9 0 24 18 35 40 10 22 25 53 32 68 8 16 14 36 14 45 0 9 12 40 25 67 25 49 33 95 17 95 -4 0 -24 -17 -44 -38 -20 -20 -57 -58 -82 -84 -32 -33 -46 -56 -46 -75 0 -15 -7 -37 -16 -48 -9 -12 -12 -30 -9 -46 4 -17 -3 -43 -20 -76 -14 -28 -25 -56 -25 -63 0 -6 -22 -35 -49 -63 -47 -51 -63 -74 -97 -147 -22 -48 -38 -56 -44 -22 l-6 27 -27 -40 c-15 -22 -40 -59 -55 -82 -30 -47 -31 -48 -55 -31 -16 12 -16 19 -3 82 16 74 54 177 69 188 6 3 17 4 25 0 8 -3 21 3 28 13 18 25 18 65 0 65 -12 0 -12 8 -1 56 13 57 27 79 48 79 6 0 14 15 18 34 4 18 17 47 30 64 14 19 24 50 27 81 2 28 9 56 14 62 16 21 46 144 36 150 -5 3 -10 4 -12 3 -1 -2 -30 -40 -63 -85 -33 -44 -68 -94 -76 -111 -9 -17 -23 -33 -31 -36 -17 -7 -76 -129 -96 -197 -7 -25 -19 -64 -26 -88 -8 -23 -14 -53 -15 -65 -1 -16 -4 -12 -11 13 -7 24 -6 46 1 71 14 46 14 49 -2 49 -22 0 -57 -84 -58 -138 -1 -36 -8 -50 -85 -165 -31 -46 -31 -46 -50 -26 -33 36 -188 142 -223 151 -19 6 -65 8 -101 6 -55 -3 -73 -9 -111 -36 -48 -35 -123 -62 -171 -62 -16 0 -43 -7 -60 -16 -17 -9 -44 -14 -62 -11 -17 2 -51 -2 -76 -9 -25 -8 -46 -14 -48 -14 -1 0 2 9 8 19 14 28 13 98 -4 129 -17 34 -46 125 -42 130 2 2 16 -23 32 -55 32 -68 32 -68 40 -61 3 3 -2 32 -11 64 -15 50 -28 69 -87 128 -38 37 -76 79 -85 93 -17 25 -16 25 5 19 12 -4 22 -5 22 -2 0 3 -26 33 -57 67 -64 67 -85 97 -107 151 -15 35 -15 36 4 31 11 -3 20 -2 20 1 0 15 -100 153 -135 186 -40 39 -124 193 -100 184 8 -4 15 -3 15 1 0 9 -36 61 -76 109 -23 27 -38 59 -49 109 -28 124 -54 168 -111 192 -20 8 -34 22 -38 40 -4 15 -5 29 -3 31 2 2 32 -26 67 -63 35 -38 89 -94 119 -127 65 -68 171 -152 171 -135 0 6 -9 27 -21 45 -11 19 -19 38 -17 43 2 4 51 -33 111 -85 59 -51 140 -113 180 -138 83 -52 234 -119 241 -107 3 4 -23 28 -57 53 -67 50 -104 86 -132 131 -16 25 -9 22 60 -24 122 -80 331 -183 420 -206 154 -41 258 -39 148 2 -66 24 -124 58 -178 105 -45 39 -50 55 -10 26 36 -24 208 -84 294 -101 100 -21 263 -16 355 9 93 26 206 76 206 92 0 12 -5 12 -32 -2 -69 -36 -255 -28 -364 14 l-42 17 126 1 c155 0 255 24 387 92 113 58 245 184 288 275 35 72 26 90 -17 35 -68 -90 -173 -146 -302 -162 l-49 -7 38 15 c142 53 300 194 367 325 42 84 77 261 51 261 -5 0 -11 -8 -13 -17 -2 -9 -3 37 -3 103 0 112 -18 220 -34 209 -4 -2 -13 12 -20 31 -15 41 -35 47 -24 7 5 -16 8 -66 7 -113 0 -75 -4 -95 -32 -154 -35 -75 -51 -85 -27 -16 20 56 19 204 -1 284 -35 139 -119 263 -256 377 -56 47 -77 45 -30 -4 72 -75 119 -187 136 -322 4 -35 3 -37 -6 -15 -57 132 -72 156 -139 222 -56 54 -94 80 -182 123 -69 34 -140 61 -185 70 -83 17 -272 20 -272 5 0 -5 8 -10 18 -10 47 0 229 -110 217 -131 -4 -5 6 -21 20 -36 45 -49 79 -131 83 -203 l4 -65 -36 70 c-19 39 -44 81 -56 95 l-21 25 6 -35 c20 -116 18 -147 -15 -257 -18 -59 -43 -129 -56 -154 -58 -115 -226 -188 -434 -188 l-75 0 38 13 c53 19 107 57 166 116 44 44 67 80 44 68 -102 -52 -244 -82 -338 -72 -75 8 -185 35 -185 45 0 5 7 9 15 9 35 0 11 20 -42 36 -32 10 -65 23 -73 30 -8 7 -17 12 -20 11 -14 -3 -365 114 -445 150 l-40 17 90 7 c144 12 276 69 158 69 -97 0 -284 69 -381 141 -29 21 -40 34 -31 39 8 6 6 14 -10 31 -12 13 -19 29 -17 36 3 7 -3 17 -12 22 -10 5 -40 28 -68 51 -27 22 -89 61 -139 87 -93 48 -172 96 -215 133 l-25 21 39 -16 c42 -16 70 -20 47 -6 -8 6 6 11 44 16 112 14 207 55 127 55 -96 0 -311 87 -414 168 -34 27 -91 65 -126 84 l-63 35 73 5 c71 5 188 35 188 48 0 4 -37 10 -82 13 -115 9 -232 49 -267 91 -8 9 -19 16 -27 16 -7 0 -74 28 -149 62 l-137 61 74 22 c86 25 135 47 128 58 -3 4 -39 9 -80 11 -41 1 -97 8 -125 14 -27 7 -79 19 -115 27 -83 20 -277 110 -254 119 8 3 25 6 37 6 20 1 119 47 107 50 -3 1 -45 3 -95 4 -111 3 -300 45 -249 56 66 14 73 36 12 38 -24 0 -63 8 -88 17 -25 9 -86 20 -136 25 -93 9 -125 19 -266 83 l-78 34 83 7 c45 4 92 9 105 13 39 9 24 23 -26 23 -62 0 -150 23 -232 61 -36 16 -102 36 -147 43 -72 11 -92 20 -163 67 l-81 54 26 22 c14 13 50 30 79 38 29 9 62 25 72 36 17 19 26 20 99 14 72 -6 83 -4 107 14 38 31 126 29 197 -4 46 -22 59 -24 85 -15 22 7 45 7 83 -1 48 -11 55 -10 107 15 51 25 57 31 62 66 4 22 17 49 30 61 13 12 24 27 24 33 0 6 -5 5 -12 -2 -18 -18 -56 -15 -92 7 -17 11 -61 31 -98 44 -36 14 -79 33 -94 43 -64 42 -183 13 -170 -42 7 -25 -9 -34 -60 -34 -26 0 -34 -4 -34 -18 0 -24 -67 -47 -110 -39 -19 4 -45 1 -68 -9 -51 -21 -111 -19 -159 6 -37 19 -46 20 -104 9 -35 -6 -100 -13 -144 -16 l-80 -4 40 36 c22 20 56 44 76 55 19 10 41 26 48 34 8 9 19 16 25 16 20 0 63 51 96 115 27 51 39 63 81 82 49 22 64 42 32 44 -10 1 -52 2 -93 3 -41 2 -97 6 -125 10 -48 7 -53 6 -120 -38 -75 -50 -89 -53 -150 -32 -51 18 -84 12 -170 -34 -38 -21 -86 -41 -107 -44 -43 -8 -108 5 -143 28 -22 15 -24 19 -13 39 6 12 12 33 13 46 1 37 94 101 147 101 56 0 148 79 148 129 0 65 89 121 192 121 78 0 147 30 212 92 57 55 58 77 6 143 -43 55 -48 80 -24 127 9 17 14 42 11 56 -7 37 46 102 84 102 15 0 41 11 57 25 21 18 42 25 71 25 51 0 146 51 155 82 7 30 -20 58 -56 58 -16 0 -28 5 -28 13 0 7 -8 23 -17 37 -35 50 -23 100 25 100 30 0 112 50 112 69 0 9 -6 11 -17 5 -10 -4 -65 -12 -122 -19 -93 -10 -106 -14 -127 -38 -31 -36 -23 -90 20 -135 30 -33 31 -34 11 -48 -61 -47 -105 -63 -204 -77 -129 -19 -154 -35 -161 -100 -3 -33 -13 -55 -32 -74 -15 -16 -43 -45 -63 -65 -53 -55 -134 -73 -240 -53 -55 10 -114 -8 -171 -51 -49 -38 -57 -39 -146 -18 -24 5 -35 -1 -83 -49 -68 -68 -93 -75 -173 -48 -34 12 -76 21 -94 21 -44 -1 -107 -30 -156 -74 -91 -83 -258 -112 -331 -57 -21 16 -22 20 -10 39 10 16 11 24 2 33 -9 9 -7 21 7 49 14 28 33 44 77 65 63 29 105 71 125 123 9 23 31 44 74 72 70 44 99 90 92 149 -3 20 1 50 9 68 25 61 18 92 -32 136 -62 56 -61 99 1 138 19 11 34 27 34 35 0 26 39 54 73 54 26 0 42 9 70 39 20 22 53 45 74 51 41 14 54 21 101 62 33 28 36 66 3 53 -9 -4 -45 -11 -80 -16 -35 -5 -84 -18 -109 -29 -24 -11 -51 -20 -58 -20 -8 0 -32 -12 -55 -27 -46 -30 -114 -45 -214 -47 -56 -1 -80 -7 -120 -29 -64 -35 -78 -58 -76 -123 1 -47 -2 -55 -32 -80 -44 -37 -88 -54 -140 -54 -103 0 -186 -46 -244 -137 -23 -36 -46 -60 -69 -69 -56 -24 -129 -37 -159 -30 -25 6 -26 8 -11 25 19 21 21 41 3 41 -7 0 -54 -20 -104 -44 -70 -34 -100 -55 -133 -95 -45 -53 -120 -97 -175 -103 -27 -3 -30 0 -26 22 1 14 9 37 17 52 8 15 14 37 14 50 0 35 23 61 85 99 60 36 71 57 61 112 -5 29 0 38 44 87 65 71 70 92 37 152 -15 27 -27 57 -27 67 0 26 65 102 106 124 18 9 41 31 49 47 8 16 27 37 40 46 26 17 31 39 16 63 -7 11 -14 10 -38 -7 -16 -11 -42 -24 -59 -27 -47 -11 -87 -27 -124 -52 -26 -18 -49 -23 -95 -23 -68 0 -144 -35 -178 -82 -18 -24 -19 -33 -10 -63 10 -31 8 -39 -18 -74 -31 -44 -74 -71 -112 -71 -14 0 -54 -9 -89 -20 -82 -25 -144 -76 -159 -132 -15 -58 -57 -94 -116 -102 -62 -8 -82 -22 -127 -90 -44 -67 -100 -112 -153 -124 l-40 -9 13 44 c7 24 20 53 29 65 8 13 15 34 15 48 0 16 14 38 40 63 33 31 40 44 40 76 0 23 -6 44 -16 52 -20 16 -11 85 17 140 32 64 59 143 59 175 0 17 7 37 16 45 10 8 14 22 10 40 -5 29 9 47 83 108 33 27 34 30 29 99 -1 9 2 32 6 50 4 17 4 32 -1 32 -5 0 -34 -22 -64 -49z m-223 -1080 c-1 -47 -12 -45 -18 4 -3 22 0 35 8 35 7 0 11 -15 10 -39z m851 -39 c-19 -20 -22 -43 -8 -57 4 -6 13 -25 19 -44 10 -28 9 -37 -8 -58 -27 -35 -25 -56 8 -75 15 -9 40 -29 55 -43 15 -15 34 -24 42 -21 8 3 36 -5 62 -17 45 -20 47 -23 32 -38 -16 -16 -18 -15 -38 11 -18 25 -25 28 -57 23 -20 -3 -47 -16 -61 -29 -20 -18 -23 -28 -18 -56 6 -30 2 -37 -30 -67 -30 -26 -36 -39 -34 -65 2 -21 -5 -43 -19 -63 -27 -38 -28 -82 -3 -114 10 -13 21 -37 25 -54 4 -16 10 -40 13 -53 3 -13 -1 -40 -9 -60 -36 -89 -37 -98 -14 -135 56 -91 77 -117 99 -118 18 -1 19 -2 3 -6 -13 -4 -39 15 -87 63 -84 83 -100 81 -111 -12 -8 -75 -30 -150 -57 -194 -11 -19 -21 -30 -21 -25 0 6 9 24 20 40 11 17 20 42 20 56 0 15 7 43 15 62 8 20 15 54 15 76 0 38 5 54 53 159 17 37 18 49 8 88 -13 49 -47 104 -66 104 -7 0 -17 11 -23 24 -10 22 -14 23 -63 15 -29 -5 -61 -17 -74 -29 -23 -21 -51 -25 -74 -11 -19 12 -5 31 23 31 16 0 36 15 59 44 30 36 44 45 82 50 58 9 98 48 85 82 -8 19 -4 27 21 48 17 15 34 26 39 26 22 0 39 32 33 61 -4 21 0 35 12 49 29 32 1 93 -60 128 -19 10 -19 12 13 44 17 19 32 39 32 45 0 6 7 16 15 23 14 12 13 15 -5 35 -11 12 -17 24 -13 28 3 4 -2 16 -12 27 -18 20 -18 20 30 20 46 0 47 -1 32 -18z m-857 -25 c0 -2 -9 -12 -20 -22 -24 -21 -27 -14 -4 9 15 15 24 20 24 13z m1413 -97 c-3 -11 -7 -20 -9 -20 -2 0 -4 9 -4 20 0 11 4 20 9 20 5 0 7 -9 4 -20z m-1443 -18 c0 -9 -20 -30 -45 -47 -48 -33 -50 -36 -34 -68 9 -20 8 -19 -11 3 l-22 24 29 24 c69 57 75 63 69 78 -3 8 -2 12 4 9 6 -3 10 -14 10 -23z m1450 -62 c0 -5 -2 -10 -4 -10 -3 0 -8 5 -11 10 -3 6 -1 10 4 10 6 0 11 -4 11 -10z m10 -67 c-1 -32 -4 -43 -9 -33 -8 14 -4 80 5 80 2 0 4 -21 4 -47z m-1497 -49 c-1 -10 -7 -39 -12 -64 l-8 -45 -2 41 c0 22 4 45 11 52 8 8 8 15 -3 28 -12 15 -12 17 1 12 8 -3 14 -14 13 -24z m2827 13 c0 -2 -10 -12 -22 -23 l-23 -19 19 23 c18 21 26 27 26 19z m-4999 -29 l58 -12 -46 -40 c-72 -65 -99 -76 -173 -74 -36 0 -75 -2 -87 -6 -35 -11 -29 15 10 41 17 12 41 36 52 52 34 52 79 61 186 39z m4354 -66 c-2 -3 5 -16 15 -30 36 -45 16 -33 -55 34 l-70 65 57 -32 c32 -18 55 -35 53 -37z m-944 37 c47 -22 29 -20 -36 5 -22 8 -33 15 -24 16 9 0 36 -9 60 -21z m1519 -39 c-19 -16 -39 -30 -44 -30 -5 0 8 14 29 30 49 39 61 39 15 0z m-491 -126 c45 -9 69 -22 68 -36 -3 -76 0 -81 97 -161 25 -21 44 -43 40 -48 -3 -5 -2 -8 3 -7 20 5 63 -19 118 -68 33 -30 69 -54 80 -55 16 -1 15 -2 -5 -8 -18 -6 -31 -3 -47 12 -12 11 -29 17 -37 14 -8 -3 -20 1 -26 9 -7 8 -19 14 -27 14 -12 0 -14 -12 -9 -62 6 -64 7 -95 4 -158 -1 -32 -2 -33 -12 -11 -7 16 -6 32 2 54 10 27 8 39 -23 107 -23 51 -34 91 -33 116 2 50 -17 81 -65 105 -40 21 -72 64 -83 111 -4 20 -17 34 -43 47 -45 24 -65 46 -55 62 5 9 10 6 17 -9 6 -12 22 -25 36 -28z m370 0 c-26 -32 -61 -41 -99 -28 l-35 13 45 0 c50 1 89 22 91 49 1 15 2 15 6 -1 3 -10 -1 -25 -8 -33z m-2674 -64 c22 -24 45 -81 52 -126 4 -26 -1 -37 -31 -66 -29 -28 -36 -42 -36 -74 0 -29 -7 -46 -31 -70 l-32 -33 19 -98 c16 -82 23 -100 42 -108 16 -7 22 -18 22 -42 0 -48 19 -83 39 -73 9 4 29 14 45 21 16 8 37 26 45 41 11 19 22 26 34 22 9 -3 17 -1 17 4 0 5 16 20 35 33 34 23 65 86 65 131 0 32 28 76 60 95 24 14 35 32 49 78 17 54 21 60 47 63 55 5 74 12 98 39 32 35 41 26 16 -15 -17 -27 -26 -32 -58 -32 -42 0 -82 -23 -82 -47 0 -25 -37 -78 -66 -93 -14 -8 -32 -26 -39 -41 -15 -28 -20 -98 -9 -142 9 -37 -11 -80 -47 -101 -52 -31 -63 -58 -60 -154 6 -197 3 -299 -7 -337 -11 -40 -11 -39 -6 15 3 30 8 72 11 93 3 22 0 43 -7 52 -7 8 -18 47 -26 86 -15 79 -38 124 -57 112 -7 -4 -16 -8 -22 -8 -40 -3 -85 -51 -85 -89 0 -8 -7 -19 -15 -26 -9 -8 -16 -32 -17 -64 l-2 -51 -3 49 c-3 27 1 61 7 76 9 21 8 35 -3 61 -8 19 -17 50 -21 71 -13 73 -93 63 -143 -18 -11 -18 -12 -18 -12 4 -1 13 21 52 49 88 28 36 50 73 50 82 0 10 7 28 16 41 14 19 15 29 5 61 -6 21 -18 43 -26 50 -8 7 -15 21 -15 32 0 10 -7 21 -16 25 -11 4 4 17 50 46 65 39 66 40 66 82 0 32 7 51 30 80 17 21 30 45 30 54 -2 45 -20 105 -39 125 -14 14 -21 34 -20 57 l1 34 8 -37 c4 -21 15 -47 25 -58z m2775 -341 c17 -13 18 -17 5 -10 -33 17 -51 31 -40 31 6 0 21 -10 35 -21z m-2980 -58 c-19 -10 -46 -22 -60 -26 -40 -12 -11 12 35 29 55 20 67 19 25 -3z m3079 -21 c24 0 41 -18 78 -81 24 -40 24 -42 5 -25 -12 11 -22 25 -22 31 0 7 -10 25 -21 40 -16 19 -28 26 -45 22 -15 -3 -30 3 -41 16 -18 19 -17 20 4 8 12 -6 31 -11 42 -11z m-318 -166 c-12 -21 -21 -35 -21 -30 0 15 35 84 38 76 2 -5 -6 -25 -17 -46z m-1480 16 c31 -17 50 -66 48 -124 -2 -48 2 -59 41 -115 47 -68 92 -101 136 -101 16 0 38 -7 48 -15 11 -8 33 -15 50 -15 24 0 42 -12 83 -56 29 -31 53 -61 53 -67 0 -7 -13 4 -28 23 -67 86 -76 90 -194 107 -36 5 -38 3 -38 -21 0 -14 -4 -26 -9 -26 -15 0 -31 -59 -32 -114 -1 -87 -15 -91 -17 -5 -2 77 -5 85 -39 133 -20 28 -37 51 -37 52 -1 1 -13 4 -29 8 -24 6 -30 2 -48 -28 -11 -19 -28 -38 -37 -40 -9 -3 -30 -31 -47 -63 -16 -31 -34 -57 -40 -58 -5 -1 -7 0 -2 3 4 2 18 27 32 55 13 29 46 76 74 106 58 62 77 117 57 165 -8 22 -9 41 -3 63 12 41 4 74 -29 112 -27 33 -25 38 7 21z m2007 -50 c21 -5 46 -17 57 -25 18 -14 17 -14 -15 -1 -19 8 -49 20 -67 26 -17 6 -42 23 -55 38 l-23 26 33 -27 c18 -14 50 -31 70 -37z m-2761 -142 c7 -16 11 -28 9 -28 -8 0 -36 58 -35 72 0 9 2 8 6 -2 3 -8 12 -27 20 -42z m420 -10 c-3 -8 -6 -5 -6 6 -1 11 2 17 5 13 3 -3 4 -12 1 -19z m2504 -40 c0 -10 2 -10 6 0 2 6 10 12 17 12 19 0 86 -60 86 -77 0 -13 -3 -13 -15 -3 -22 18 -48 4 -42 -23 3 -12 8 -40 12 -62 l6 -40 -17 45 c-9 24 -26 58 -39 75 -12 16 -20 36 -18 43 3 7 -5 28 -16 48 -12 19 -21 38 -21 41 0 12 40 -46 41 -59z m-2890 -5 c13 -16 12 -17 -3 -4 -10 7 -18 15 -18 17 0 8 8 3 21 -13z m-627 -12 c-21 -21 -29 -19 -21 4 4 8 14 15 23 15 16 0 16 -2 -2 -19z m664 -56 c-2 -12 -7 -7 -15 16 -12 30 -11 32 3 17 9 -8 14 -23 12 -33z m-691 3 c-3 -8 -6 -5 -6 6 -1 11 2 17 5 13 3 -3 4 -12 1 -19z m3748 -18 c16 0 41 -16 71 -45 25 -25 50 -45 55 -45 6 0 8 -9 4 -19 -3 -11 1 -36 9 -56 9 -19 11 -33 6 -30 -5 3 -15 24 -22 46 -13 45 -81 111 -108 107 -9 -2 -33 10 -53 25 -41 31 -51 59 -12 33 13 -9 36 -16 50 -16z m-3796 -80 c-41 -38 -42 -41 -36 -87 l7 -48 -19 40 -18 40 26 35 c13 19 36 48 50 63 21 23 27 25 29 12 2 -9 -14 -33 -39 -55z m318 -67 c-3 -10 -5 -4 -5 12 0 17 2 24 5 18 2 -7 2 -21 0 -30z m3363 -7 c0 -26 -6 -18 -14 19 -5 22 -4 26 4 15 5 -8 10 -24 10 -34z m-3373 -53 c-3 -10 -5 -4 -5 12 0 17 2 24 5 18 2 -7 2 -21 0 -30z m-348 -154 c-21 -42 -22 -82 -4 -134 6 -16 5 -17 -4 -5 -6 8 -16 38 -22 66 -11 48 -10 53 15 90 17 26 27 54 28 84 l2 45 3 -52 c3 -39 -1 -63 -18 -94z m4018 69 c-2 -13 -4 -5 -4 17 -1 22 1 32 4 23 2 -10 2 -28 0 -40z m-2790 -30 c-3 -8 -6 -5 -6 6 -1 11 2 17 5 13 3 -3 4 -12 1 -19z m384 -34 c-7 -31 -9 -34 -10 -12 -1 27 9 62 15 55 3 -2 0 -22 -5 -43z m-841 -14 c6 -11 8 -20 6 -20 -3 0 -10 9 -16 20 -6 11 -8 20 -6 20 3 0 10 -9 16 -20z m470 -12 c0 -7 -14 -37 -30 -67 -35 -63 -37 -93 -11 -143 11 -19 29 -72 40 -117 10 -44 34 -105 51 -133 l32 -53 -33 32 c-19 17 -46 35 -61 38 -26 7 -28 5 -30 -26 0 -19 0 -42 1 -53 1 -16 -1 -17 -15 -5 -14 11 -19 10 -34 -11 -31 -41 -35 -110 -11 -156 25 -46 26 -57 6 -88 -12 -18 -13 -29 -5 -51 6 -15 9 -30 6 -32 -11 -11 -24 63 -19 107 4 34 1 61 -11 90 -9 22 -16 52 -16 66 0 27 -24 70 -54 95 -10 8 -24 31 -30 50 -9 28 -16 34 -37 32 -19 -1 -30 7 -44 33 -10 19 -21 34 -25 34 -19 0 -42 -31 -58 -78 -22 -62 -32 -75 -32 -40 0 14 7 31 15 38 8 7 15 19 15 27 0 8 7 27 15 43 14 27 14 34 0 67 l-15 38 24 -29 c14 -16 29 -26 35 -21 17 10 41 -14 41 -40 0 -28 30 -56 55 -50 14 3 29 -7 50 -35 33 -43 55 -51 55 -20 0 15 6 19 23 17 18 -2 23 3 25 33 2 19 7 39 12 45 5 6 15 30 24 54 14 42 14 47 -10 102 -31 74 -30 84 6 139 16 25 30 53 30 63 0 9 5 17 10 17 6 0 10 -6 10 -12z m2827 -45 c-3 -10 -5 -4 -5 12 0 17 2 24 5 18 2 -7 2 -21 0 -30z m-2450 -5 c-3 -7 -5 -2 -5 12 0 14 2 19 5 13 2 -7 2 -19 0 -25z m-814 -88 c3 -11 1 -18 -4 -14 -5 3 -9 12 -9 20 0 20 7 17 13 -6z m834 -52 c-2 -13 -4 -5 -4 17 -1 22 1 32 4 23 2 -10 2 -28 0 -40z m2430 -100 c-2 -13 -4 -5 -4 17 -1 22 1 32 4 23 2 -10 2 -28 0 -40z m-3251 -267 c-9 -16 -17 -40 -17 -53 -1 -18 -2 -19 -6 -5 -5 18 30 114 35 98 2 -6 -4 -23 -12 -40z m525 22 c13 -16 12 -17 -3 -4 -10 7 -18 15 -18 17 0 8 8 3 21 -13z m140 -80 c9 -45 48 -121 83 -162 l30 -36 -32 29 c-18 16 -49 64 -69 106 -23 48 -49 85 -70 101 -50 37 -47 51 5 20 35 -20 48 -35 53 -58z m163 -260 c8 -19 2 -16 -25 13 -23 25 -23 26 -2 13 13 -7 25 -19 27 -26z m-493 -26 c-10 -9 -11 -8 -5 6 3 10 9 15 12 12 3 -3 0 -11 -7 -18z m583 -13 c3 -8 2 -12 -4 -9 -6 3 -10 10 -10 16 0 14 7 11 14 -7z m5151 -184 c39 -22 66 -40 61 -40 -4 0 2 -9 15 -20 13 -10 19 -19 12 -20 -6 0 -15 5 -19 11 -3 6 -40 33 -81 60 -91 59 -85 63 12 9z m-2880 -142 c-17 -40 -61 -154 -70 -185 -4 -14 -2 -23 4 -23 14 0 -63 -155 -113 -229 -35 -52 -47 -106 -25 -113 7 -2 0 -30 -20 -77 -31 -74 -33 -104 -4 -66 34 45 3 -51 -52 -157 -58 -113 -67 -156 -41 -206 7 -15 16 -49 20 -75 6 -52 33 -117 47 -117 5 0 9 17 9 38 l0 37 29 -62 c35 -73 93 -140 161 -183 39 -25 47 -35 43 -53 -6 -21 -5 -21 19 3 l24 25 -21 25 c-11 14 -29 36 -40 49 l-20 24 31 -16 c44 -22 291 -86 312 -80 9 2 52 -12 95 -31 78 -36 107 -43 107 -27 0 14 103 0 141 -20 21 -10 46 -33 57 -51 18 -29 19 -39 10 -83 -6 -28 -21 -74 -34 -104 -13 -29 -24 -61 -24 -70 0 -17 -233 -246 -274 -268 -38 -22 -99 -25 -175 -9 -74 16 -75 15 -128 -9 -29 -13 -53 -29 -53 -35 0 -13 -61 -40 -90 -40 -17 0 -19 3 -10 19 16 30 13 35 -35 70 -36 26 -48 30 -64 22 -11 -6 -26 -8 -34 -5 -19 7 -69 100 -65 122 4 27 -42 112 -68 124 -32 15 -68 3 -101 -33 -15 -17 -40 -38 -54 -48 -14 -9 -47 -43 -74 -76 -65 -81 -63 -80 -58 -52 3 14 0 28 -6 32 -18 10 -41 -14 -42 -44 -1 -17 -3 -20 -6 -8 -7 26 -15 22 -80 -35 -33 -29 -69 -59 -79 -66 -19 -13 -19 -13 0 -7 11 3 23 0 28 -7 7 -10 11 -10 21 3 9 12 28 14 83 12 61 -3 73 -1 78 14 4 10 4 19 -1 20 -24 9 -33 21 -27 37 9 24 32 2 40 -40 3 -19 11 -34 16 -34 14 0 70 40 90 64 17 21 17 21 33 1 9 -11 20 -31 26 -44 8 -19 12 -21 24 -11 9 7 17 11 20 9 8 -8 -10 -24 -47 -41 -21 -10 -38 -22 -38 -28 0 -5 -5 -10 -11 -10 -8 0 -8 4 0 14 16 19 -6 56 -32 56 -16 0 -18 -5 -12 -39 6 -36 4 -39 -25 -51 -34 -14 -28 -32 12 -34 13 -1 22 -7 20 -14 -2 -14 -5 -14 36 -3 17 5 32 6 32 2 0 -3 14 -12 30 -18 24 -9 33 -9 44 3 11 10 15 11 18 2 3 -8 25 -13 57 -13 48 0 50 -1 32 -14 -23 -15 -28 -41 -8 -41 6 0 34 7 61 15 27 8 52 12 55 9 3 -3 -10 -19 -29 -35 -27 -23 -44 -29 -80 -29 -25 0 -104 -2 -176 -4 l-132 -4 -31 39 c-27 33 -38 39 -69 39 -37 0 -48 5 -112 47 -40 26 -218 85 -232 77 -5 -3 -39 -10 -75 -14 -50 -6 -74 -15 -102 -38 -20 -16 -61 -42 -91 -57 -54 -28 -56 -28 -191 -21 -130 6 -213 21 -191 35 6 3 21 26 35 49 l24 44 7 -36 c8 -43 18 -45 45 -10 18 22 21 41 22 118 0 66 6 102 19 131 13 27 19 34 19 20 2 -38 22 -95 34 -95 17 0 46 105 61 225 7 55 21 117 32 137 10 20 59 80 107 132 66 72 87 101 82 115 -4 14 10 32 57 75 35 31 71 56 81 56 12 0 17 8 17 28 0 30 16 52 38 52 27 0 41 -65 48 -226 8 -185 8 -163 -1 -285 -8 -103 1 -139 34 -139 42 0 56 69 35 171 -11 57 -11 106 5 352 17 268 20 290 44 339 28 56 134 186 153 187 17 1 26 -112 20 -266 -4 -114 -2 -136 12 -153 22 -27 50 -18 59 18 3 15 1 56 -5 92 -7 43 -9 143 -5 295 l6 229 51 70 c32 43 52 64 54 54 2 -9 -4 -56 -12 -104 -24 -133 -20 -178 11 -153 7 6 13 27 13 47 0 21 7 40 16 47 26 19 29 221 4 271 -19 35 -19 35 11 101 16 36 29 74 29 85 0 12 -26 47 -60 81 l-60 61 52 28 c67 34 85 36 64 6 -9 -12 -16 -26 -16 -30 0 -16 30 -7 39 11 15 27 90 61 134 61 21 0 54 7 75 16 55 25 131 42 184 43 l48 1 -15 -32z m-2756 -177 c28 -28 44 -112 45 -243 2 -125 11 -152 44 -132 14 10 17 29 18 130 0 65 6 130 12 144 10 23 11 21 11 -22 1 -34 5 -48 15 -48 21 0 26 24 19 93 l-6 62 32 -29 c27 -26 31 -37 31 -80 0 -33 6 -56 17 -69 19 -21 25 -83 42 -457 6 -136 6 -236 -1 -295 -8 -65 -7 -98 1 -118 14 -37 38 -44 62 -20 24 23 27 73 9 157 -7 34 -9 76 -5 100 4 23 9 127 11 231 4 222 18 391 36 431 l13 28 6 -30 c4 -16 7 -48 8 -70 0 -23 7 -47 15 -53 24 -20 36 19 36 116 0 48 4 94 8 100 5 7 8 -11 9 -41 0 -30 4 -59 7 -65 17 -28 25 -5 20 65 -3 68 -2 75 14 72 9 -2 25 -19 34 -38 23 -48 42 -286 33 -421 -6 -91 -5 -108 10 -122 18 -19 25 -20 42 -9 24 15 33 61 22 110 -25 110 5 452 40 452 3 0 7 -28 9 -62 3 -71 8 -83 28 -67 10 8 14 35 14 91 0 64 3 80 16 85 39 15 52 -52 55 -282 1 -66 -1 -136 -5 -155 -10 -46 13 -81 41 -64 13 9 18 22 16 55 -1 24 -3 62 -3 84 -3 68 18 278 31 318 11 34 59 87 78 87 4 0 26 -16 48 -35 l41 -35 -20 -62 c-19 -61 -68 -287 -68 -315 0 -8 5 -11 10 -8 15 10 12 -26 -14 -153 -14 -64 -36 -142 -50 -173 -14 -31 -28 -78 -32 -105 -9 -82 -12 -89 -64 -154 -31 -39 -50 -72 -50 -89 0 -39 -51 -137 -114 -219 -31 -41 -56 -78 -56 -83 0 -5 -7 -26 -17 -47 -9 -20 -17 -39 -17 -42 -4 -22 -166 -165 -216 -190 -67 -34 -99 -37 -176 -14 -72 21 -102 10 -203 -71 -43 -35 -92 -67 -107 -71 -39 -10 -141 -71 -152 -91 -8 -14 -14 -14 -63 2 -32 11 -65 31 -82 49 -98 111 -104 116 -136 116 -21 0 -49 13 -84 39 -95 70 -163 91 -240 70 -23 -6 -58 -15 -78 -20 -20 -5 -56 -24 -80 -43 -92 -70 -134 -85 -241 -85 -78 -1 -110 -6 -164 -26 -36 -14 -76 -25 -88 -25 -30 0 -192 43 -178 48 7 2 12 10 12 17 0 8 20 30 44 50 27 22 52 54 63 80 l18 45 10 -48 c13 -59 30 -60 61 -4 30 53 30 56 -1 48 -21 -5 -25 -3 -25 14 0 54 86 158 165 197 27 14 78 46 112 72 34 25 86 56 115 67 70 29 77 49 13 42 -52 -6 -50 0 10 31 44 23 80 27 91 10 4 -7 7 -59 8 -117 1 -86 4 -107 18 -115 12 -8 21 -7 33 3 14 12 16 25 11 72 -9 72 19 237 43 255 34 26 41 16 41 -57 0 -54 4 -72 15 -77 24 -9 27 -1 28 86 2 86 13 102 41 59 23 -37 39 -209 32 -349 -7 -114 -5 -127 12 -149 l19 -24 27 27 c29 29 31 50 14 143 -9 50 -9 93 1 192 17 174 38 298 57 334 15 30 73 62 188 103 71 26 203 141 184 160 -3 3 -29 -10 -57 -29 -53 -36 -100 -50 -141 -44 -21 3 -18 8 37 64 33 34 92 80 130 102 38 23 75 48 83 56 7 9 21 16 32 16 14 0 27 16 45 56 30 66 28 124 -5 193 -27 55 -27 81 -2 131 22 43 36 55 45 40 12 -19 25 -10 25 19 0 60 16 75 49 42z m-129 -305 c0 -26 -6 -18 -14 19 -5 22 -4 26 4 15 5 -8 10 -24 10 -34z m2360 29 c0 -8 -4 -15 -10 -15 -5 0 -7 7 -4 15 4 8 8 15 10 15 2 0 4 -7 4 -15z m1847 -152 c22 -32 62 -96 88 -143 56 -100 103 -162 116 -154 5 3 6 10 2 16 -10 17 120 -92 134 -112 7 -9 29 -50 49 -91 48 -96 91 -159 109 -159 8 0 15 5 15 12 0 7 28 -15 63 -49 64 -62 100 -87 111 -76 3 3 0 13 -7 22 -6 8 4 3 23 -11 19 -14 50 -33 68 -42 36 -19 60 -13 41 10 -13 16 71 -11 136 -43 94 -47 193 -66 140 -26 -18 13 -9 14 90 11 93 -3 118 -7 165 -29 64 -30 130 -84 130 -106 0 -9 17 -35 38 -58 20 -22 59 -70 86 -106 40 -53 48 -59 44 -36 -7 36 6 24 49 -46 78 -129 95 -163 108 -222 7 -34 18 -71 24 -83 16 -30 13 -63 -7 -90 -15 -20 -28 -23 -85 -25 -73 -2 -93 -14 -125 -77 -21 -43 -84 -88 -92 -67 -3 8 -44 56 -92 107 -68 71 -92 90 -107 85 -10 -3 -22 -12 -25 -20 -3 -8 -12 -15 -20 -15 -22 0 -97 90 -141 170 -22 40 -50 80 -63 88 -22 14 -25 14 -49 -12 -14 -15 -29 -24 -34 -19 -4 4 -24 46 -44 93 -50 118 -72 150 -100 150 -35 0 -97 -82 -129 -172 -21 -59 -32 -77 -50 -82 -12 -3 -31 -21 -41 -39 -12 -24 -24 -33 -35 -30 -13 4 -24 -9 -44 -51 -15 -31 -30 -54 -35 -52 -4 3 -21 -8 -37 -25 -15 -16 -34 -27 -42 -24 -10 3 -12 -1 -7 -18 l6 -22 -21 24 -20 24 -41 -47 c-28 -31 -64 -57 -112 -80 -40 -18 -81 -41 -92 -49 -19 -15 -16 -16 53 -18 106 -3 106 -3 113 -12 4 -5 19 -2 35 6 21 11 34 12 51 4 19 -9 27 -7 44 11 11 12 30 21 42 21 17 -1 18 -2 5 -6 -11 -3 -18 -14 -18 -29 0 -26 9 -30 28 -14 9 7 9 7 2 -2 -5 -7 -10 -17 -10 -22 0 -16 54 -13 73 3 11 8 17 9 17 3 0 -7 19 -11 45 -10 36 0 49 6 66 27 17 21 18 22 9 4 -9 -19 -8 -23 5 -23 8 0 15 9 15 20 0 14 21 34 69 65 71 46 111 86 111 112 0 8 9 26 20 40 19 25 20 25 20 4 0 -12 -7 -24 -16 -28 -11 -4 -14 -14 -10 -34 4 -22 -1 -34 -29 -62 -29 -29 -34 -41 -31 -69 3 -18 5 -39 5 -45 1 -7 12 -13 26 -13 22 0 25 4 23 28 -3 25 0 27 32 27 19 0 40 3 47 8 6 4 13 2 15 -5 3 -7 9 -8 19 -3 28 18 36 13 33 -21 -3 -36 11 -46 21 -15 7 23 52 33 69 15 8 -7 16 -10 20 -7 3 4 6 -3 6 -15 0 -24 25 -30 33 -9 3 7 6 5 6 -5 1 -15 13 -17 112 -13 85 2 115 7 129 20 16 15 16 12 -3 -29 -19 -42 -24 -46 -56 -46 -20 0 -63 -7 -96 -15 -87 -21 -111 -19 -226 21 l-104 36 -86 -26 c-103 -31 -142 -32 -209 -6 -47 18 -54 19 -106 5 -65 -17 -87 -13 -166 26 -67 34 -77 34 -163 13 -64 -16 -64 -16 -137 11 -40 15 -96 38 -124 51 -64 30 -87 30 -176 -1 -83 -29 -120 -31 -139 -9 -10 13 -30 15 -105 12 l-91 -3 21 26 c19 23 21 24 24 7 5 -25 38 -23 56 5 9 12 15 44 15 74 -1 37 7 68 30 115 41 86 93 166 98 151 9 -25 28 -12 55 37 18 31 33 48 41 44 9 -3 17 8 25 33 17 58 67 130 102 148 27 14 30 20 25 45 -5 22 2 41 32 87 20 32 50 73 65 90 40 47 61 127 47 173 -17 49 -42 79 -106 122 -45 31 -65 38 -104 38 -85 0 -249 76 -249 115 0 8 -16 27 -36 42 -68 52 -114 95 -114 107 0 21 53 62 115 90 81 37 121 69 161 132 19 30 58 71 87 93 28 21 65 53 81 70 17 17 30 31 31 31 1 0 20 -26 42 -57z m1288 -38 c26 -36 52 -68 59 -72 7 -5 33 -39 59 -78 25 -38 76 -95 111 -125 50 -42 61 -56 46 -58 -36 -6 -98 18 -131 51 -19 19 -53 48 -77 66 -33 26 -40 36 -31 47 12 15 9 22 -32 75 -22 28 -66 159 -53 159 2 0 24 -29 49 -65z m-3311 -118 c-3 -8 -12 -18 -20 -21 -11 -4 -11 0 2 20 18 26 28 27 18 1z m3694 -208 c2 -5 -10 -9 -27 -9 -26 0 -33 6 -46 37 -35 84 -31 91 21 34 27 -30 51 -58 52 -62z m2005 -176 c-7 -2 -19 -2 -25 0 -7 3 -2 5 12 5 14 0 19 -2 13 -5z m-9591 -552 c-2 -16 1 -38 7 -48 8 -17 6 -25 -14 -43 -14 -13 -25 -33 -25 -44 0 -12 -11 -39 -25 -61 -24 -39 -34 -108 -16 -119 4 -3 13 6 20 21 l12 26 16 -22 c8 -12 21 -20 29 -17 33 12 10 -5 -48 -38 -35 -19 -81 -54 -103 -76 -22 -23 -63 -57 -92 -77 -29 -19 -74 -56 -101 -83 -27 -27 -62 -52 -78 -56 -16 -4 -49 -17 -74 -30 -25 -12 -62 -30 -82 -39 -45 -21 -98 -78 -98 -106 0 -11 -25 -46 -55 -78 -41 -43 -77 -68 -142 -99 -151 -72 -261 -78 -325 -20 -30 29 -28 30 18 11 12 -4 15 -2 12 8 -8 23 -50 32 -83 18 -26 -10 -27 -13 -10 -17 11 -2 25 -9 30 -14 7 -8 5 -9 -6 -5 -9 3 -22 1 -30 -4 -12 -8 -12 -10 1 -19 11 -7 11 -10 2 -10 -28 0 -57 40 -54 74 3 28 -1 36 -20 42 -21 7 -21 8 12 16 47 10 116 -7 170 -42 30 -20 48 -26 56 -19 7 6 15 4 24 -6 7 -8 16 -15 21 -15 14 0 11 26 -5 39 -8 6 -16 25 -18 41 -3 23 -2 27 8 19 9 -7 14 -5 17 8 4 15 5 14 6 -4 2 -44 56 -48 104 -7 16 13 33 24 39 24 6 0 8 13 4 33 -9 44 -10 146 -2 154 3 3 17 -4 31 -17 24 -23 58 -24 108 -5 12 5 17 2 17 -9 0 -19 29 -22 31 -3 1 6 2 14 2 17 0 3 11 15 24 27 l23 22 0 -34 c0 -32 19 -52 21 -22 3 69 7 99 15 107 6 6 8 -8 5 -37 -2 -32 0 -43 8 -39 6 4 11 16 11 26 0 10 4 21 9 24 5 4 7 -3 4 -15 -5 -19 -3 -20 14 -11 11 6 25 18 33 26 7 9 23 16 37 16 13 0 26 7 29 15 4 8 15 15 25 15 21 0 39 35 39 76 0 13 5 24 11 24 6 0 8 -9 4 -20 -11 -36 12 -21 30 20 10 22 21 40 24 40 4 0 15 -9 25 -21 l18 -21 24 23 c13 12 24 30 24 38 0 9 9 31 20 49 11 18 20 41 20 50 0 10 16 32 35 50 29 25 34 36 29 56 -5 21 5 35 65 96 59 59 71 76 71 104 0 27 6 46 15 46 1 0 0 -13 -3 -29z m-2273 -81 c0 -10 -3 -8 -9 5 -12 27 -12 43 0 25 5 -8 9 -22 9 -30z m1795 -67 c-18 -75 -52 -104 -74 -62 -13 24 -11 32 25 89 26 41 27 42 41 21 9 -13 12 -30 8 -48z m-974 39 c0 -9 -9 -23 -20 -30 -17 -10 -21 -10 -26 3 -7 18 12 45 32 45 8 0 14 -8 14 -18z m-404 -129 c-7 -7 -26 7 -26 19 0 6 6 6 15 -2 9 -7 13 -15 11 -17z m-206 -49 c0 -8 -5 -12 -10 -9 -6 4 -8 11 -5 16 9 14 15 11 15 -7z m6250 -128 c0 -3 -4 -8 -10 -11 -5 -3 -10 -1 -10 4 0 6 5 11 10 11 6 0 10 -2 10 -4z m170 -23 c2 -11 -28 -28 -36 -20 -9 8 16 40 26 32 4 -3 8 -8 10 -12z m140 -17 c0 -3 -4 -8 -10 -11 -5 -3 -10 -1 -10 4 0 6 5 11 10 11 6 0 10 -2 10 -4z m-45 -36 c-3 -5 -11 -10 -16 -10 -6 0 -7 5 -4 10 3 6 11 10 16 10 6 0 7 -4 4 -10z m-5350 -39 c3 -5 0 -13 -6 -17 -7 -4 -9 -3 -5 4 3 5 0 13 -6 15 -9 4 -10 6 -1 6 6 1 14 -3 18 -8z m-52 -28 c-30 -48 -63 -85 -63 -71 0 22 59 97 78 98 1 0 -5 -12 -15 -27z m431 -8 c7 -28 6 -29 -7 -10 -8 10 -12 25 -10 33 7 16 9 14 17 -23z m7609 -38 c-3 -5 -9 -3 -14 4 -7 11 -13 9 -29 -11 -14 -18 -20 -20 -20 -9 0 8 5 20 12 27 9 9 9 18 -1 39 -12 28 -12 27 23 -6 19 -19 33 -38 29 -44z m-3015 33 c-14 -22 -24 -19 -15 5 4 8 11 15 17 15 6 0 6 -7 -2 -20z m-5101 -12 c-3 -8 -6 -5 -6 6 -1 11 2 17 5 13 3 -3 4 -12 1 -19z m468 12 c-3 -5 -11 -10 -16 -10 -6 0 -7 5 -4 10 3 6 11 10 16 10 6 0 7 -4 4 -10z m4788 -22 c-2 -4 -10 -2 -17 5 -8 6 -12 15 -9 19 2 4 10 2 17 -5 8 -6 12 -15 9 -19z m624 -10 c-3 -8 -6 -5 -6 6 -1 11 2 17 5 13 3 -3 4 -12 1 -19z m-5799 -8 c-7 -10 -14 -17 -17 -15 -4 4 18 35 25 35 2 0 -1 -9 -8 -20z m-978 -34 c0 -2 -7 -7 -16 -10 -8 -3 -12 -2 -9 4 6 10 25 14 25 6z m-45 -24 c-3 -3 -11 0 -18 7 -9 10 -8 11 6 5 10 -3 15 -9 12 -12z m595 -14 c0 -18 3 -44 7 -56 6 -23 5 -24 -48 -17 l-54 7 -18 -61 c-9 -34 -22 -61 -28 -61 -6 0 -9 6 -7 13 3 6 13 36 23 66 18 56 86 141 111 141 9 0 14 -12 14 -32z m6067 8 c-5 -14 -54 -32 -63 -23 -4 4 1 15 10 26 18 20 60 18 53 -3z m-2512 -29 c-8 -20 -24 -74 -34 -119 -21 -89 -28 -69 -10 27 9 50 48 140 56 131 2 -2 -4 -19 -12 -39z m4689 18 c-4 -8 -11 -15 -16 -15 -6 0 -5 6 2 15 7 8 14 15 16 15 2 0 1 -7 -2 -15z m-74 1 c0 -2 -7 -9 -15 -16 -13 -11 -14 -10 -9 4 5 14 24 23 24 12z m-7975 -17 c4 -5 21 -9 38 -7 30 3 30 2 33 -49 l4 -52 -48 23 c-74 37 -86 39 -115 15 -15 -11 -27 -26 -27 -32 0 -7 -11 -20 -25 -30 -23 -16 -22 -14 8 40 22 38 45 64 72 79 46 27 51 28 60 13z m-1711 -30 c-3 -5 2 -21 10 -34 16 -24 15 -25 -4 -25 -11 0 -23 7 -26 15 -8 21 5 67 16 60 6 -4 8 -11 4 -16z m697 -13 c24 4 53 11 64 16 28 14 -34 -39 -69 -58 -35 -19 -84 -11 -66 11 9 10 8 19 -1 37 -12 22 -11 23 8 5 16 -14 30 -16 64 -11z m8982 10 c4 -10 1 -13 -8 -9 -8 3 -12 9 -9 14 7 12 11 11 17 -5z m-5136 -38 c-3 -8 -6 -5 -6 6 -1 11 2 17 5 13 3 -3 4 -12 1 -19z m2542 1 c-7 -14 -14 -18 -21 -11 -13 13 -2 32 18 32 12 0 13 -4 3 -21z m96 1 c-10 -11 -21 -17 -24 -14 -3 3 3 12 13 20 28 20 32 17 11 -6z m-5230 0 c-3 -5 -11 -10 -16 -10 -6 0 -7 5 -4 10 3 6 11 10 16 10 6 0 7 -4 4 -10z m2080 -55 c20 -30 49 -65 65 -77 17 -12 30 -26 30 -31 0 -13 62 -101 82 -115 10 -7 25 -27 34 -45 15 -29 17 -29 30 -13 13 18 34 14 34 -7 0 -7 15 -27 32 -46 26 -30 32 -32 40 -17 7 12 13 14 28 6 13 -7 21 -7 25 0 10 16 22 11 28 -11 6 -21 7 -20 40 12 18 19 49 45 68 58 67 47 106 138 109 259 0 7 5 10 10 7 6 -3 10 -1 10 6 0 7 2 10 5 7 3 -3 -2 -21 -10 -41 -8 -20 -15 -53 -15 -74 0 -35 1 -36 15 -17 12 16 12 12 -1 -28 -9 -27 -20 -50 -25 -54 -5 -3 -9 -14 -9 -26 0 -16 5 -19 25 -16 46 9 35 -9 -30 -51 -74 -47 -85 -75 -35 -92 17 -6 30 -15 30 -20 0 -11 29 0 59 23 13 10 29 18 35 18 6 0 3 -5 -7 -11 -9 -6 -15 -14 -12 -20 7 -11 55 12 88 44 13 12 48 42 78 67 l54 45 -45 -54 c-25 -29 -60 -68 -77 -85 -18 -18 -33 -40 -33 -48 0 -11 -13 -18 -42 -23 -74 -13 -132 -8 -198 18 -44 17 -94 27 -155 31 -49 3 -105 10 -124 16 -19 5 -73 12 -120 16 -67 5 -97 3 -136 -10 -75 -25 -195 -97 -210 -126 -49 -91 -175 -168 -251 -154 -19 3 -34 10 -34 14 0 5 -10 6 -22 4 l-23 -5 22 10 c12 6 32 20 43 31 16 16 28 20 51 15 16 -4 29 -2 29 3 0 11 -44 32 -73 33 -12 1 11 5 50 9 70 6 102 18 75 27 -22 8 -2 23 23 17 23 -6 22 -3 -10 30 -29 31 -40 36 -81 36 -39 0 -45 2 -35 14 10 11 7 17 -10 30 -43 30 -9 29 49 -1 46 -25 68 -30 115 -29 32 1 61 -2 63 -6 3 -5 12 -8 20 -8 25 0 10 23 -21 33 -17 6 -35 16 -42 22 -7 7 -37 16 -67 19 -30 4 -60 14 -67 22 -11 14 -8 15 24 9 42 -8 81 11 92 45 10 32 25 23 25 -14 0 -28 6 -38 34 -56 22 -13 33 -26 29 -36 -3 -7 -1 -14 5 -14 5 0 12 7 16 15 4 11 13 14 33 9 16 -4 32 -10 36 -14 12 -11 74 31 81 55 3 11 -2 28 -12 39 -19 22 -8 17 42 -18 27 -18 29 -19 23 -2 -6 14 -4 16 5 9 7 -6 30 -13 51 -17 33 -6 37 -5 37 15 0 26 -37 89 -53 89 -6 0 1 13 16 28 l27 29 -21 49 c-12 27 -35 64 -50 82 -16 18 -29 41 -29 50 0 10 -7 28 -16 40 -8 12 -13 22 -9 22 3 0 21 -25 40 -55z m682 18 c-3 -10 -5 -4 -5 12 0 17 2 24 5 18 2 -7 2 -21 0 -30z m2376 -11 c99 -12 215 -7 274 11 35 10 69 16 75 14 8 -3 6 -6 -5 -6 -25 -1 -77 -29 -77 -41 0 -6 9 -10 20 -10 13 0 17 -5 14 -14 -4 -9 3 -16 18 -19 13 -2 -1 -5 -30 -6 -35 -1 -64 5 -89 19 -25 13 -57 20 -94 20 -81 0 -113 9 -146 39 -16 14 -21 19 -11 12 11 -8 33 -17 51 -19z m-7028 18 c3 -6 -1 -7 -9 -4 -18 7 -21 14 -7 14 6 0 13 -4 16 -10z m512 4 c-3 -3 -12 -4 -19 -1 -8 3 -5 6 6 6 11 1 17 -2 13 -5z m4700 -28 c-38 -34 -77 -52 -77 -35 0 5 6 9 13 9 7 0 26 14 42 30 16 17 36 30 44 30 10 -1 2 -13 -22 -34z m3252 -52 c-22 -24 -17 -49 8 -40 8 3 11 1 8 -4 -3 -6 -13 -10 -22 -10 -19 0 -42 -28 -43 -51 0 -9 10 -20 23 -24 19 -7 17 -9 -16 -12 -58 -6 -41 -29 19 -25 26 1 50 6 53 10 4 4 26 8 51 9 l45 1 -37 -10 c-35 -9 -51 -26 -28 -29 6 -1 15 -3 20 -4 6 -1 28 -3 50 -4 28 -1 40 -5 40 -16 0 -8 9 -15 20 -15 11 0 20 5 20 10 0 6 18 10 40 10 33 0 38 -3 33 -17 -4 -10 -2 -14 4 -10 6 4 74 9 151 11 129 3 144 5 198 32 33 16 88 51 124 78 64 48 65 48 28 10 -21 -22 -38 -45 -38 -52 0 -7 15 -12 38 -12 26 0 33 -3 23 -9 -11 -7 -4 -11 25 -14 27 -3 21 -4 -21 -4 -78 0 -135 -12 -163 -34 -16 -12 -33 -16 -63 -12 -33 5 -41 3 -37 -8 8 -21 104 -16 129 7 12 11 40 19 77 21 49 3 54 2 32 -8 -24 -11 -22 -12 33 -26 52 -14 64 -14 130 2 39 9 86 15 102 13 26 -3 22 -6 -37 -25 -98 -32 -216 -45 -342 -38 -61 3 -194 10 -296 16 -102 6 -237 20 -300 31 -129 22 -135 23 -310 39 -120 10 -209 31 -295 67 l-39 17 44 8 c62 11 160 14 160 5 0 -5 7 -8 15 -8 8 0 15 -8 15 -17 1 -16 2 -16 13 -3 7 9 19 14 28 12 9 -1 22 4 29 13 7 8 18 15 25 15 6 0 30 13 51 28 21 15 58 33 81 40 25 8 47 22 54 35 6 12 21 32 32 45 l21 23 8 -22 c6 -16 3 -28 -13 -45z m-672 50 c-3 -3 -12 -4 -19 -1 -8 3 -5 6 6 6 11 1 17 -2 13 -5z m-2752 -42 l-28 -27 24 31 c13 17 26 30 28 27 3 -2 -8 -16 -24 -31z m2710 28 c-3 -5 0 -10 7 -10 7 -1 31 -10 53 -21 33 -17 35 -19 10 -12 -16 4 -52 8 -78 8 l-48 0 28 22 c31 25 37 28 28 13z m-8580 -20 c3 -6 -1 -7 -9 -4 -18 7 -21 14 -7 14 6 0 13 -4 16 -10z m8772 4 c-3 -3 -12 -4 -19 -1 -8 3 -5 6 6 6 11 1 17 -2 13 -5z m-440 -47 c14 -22 72 -42 86 -28 17 17 26 13 20 -9 -5 -19 -3 -19 38 -7 44 14 119 12 119 -3 0 -9 -85 -20 -154 -20 -53 0 -121 27 -151 60 -18 19 -17 20 8 20 14 0 30 -6 34 -13z m-7884 -4 c-7 -2 -19 -2 -25 0 -7 3 -2 5 12 5 14 0 19 -2 13 -5z m72 -23 c3 -6 -1 -7 -9 -4 -18 7 -21 14 -7 14 6 0 13 -4 16 -10z m9065 -30 c-8 -5 -19 -10 -25 -10 -5 0 -3 5 5 10 8 5 20 10 25 10 6 0 3 -5 -5 -10z m-53 -16 c-3 -3 -12 -4 -19 -1 -8 3 -5 6 6 6 11 1 17 -2 13 -5z m-7240 -10 c-3 -3 -12 -4 -19 -1 -8 3 -5 6 6 6 11 1 17 -2 13 -5z m2443 -25 c0 -6 -4 -7 -10 -4 -5 3 -10 11 -10 16 0 6 5 7 10 4 6 -3 10 -11 10 -16z m4683 14 c-13 -2 -33 -2 -45 0 -13 2 -3 4 22 4 25 0 35 -2 23 -4z m-90 -10 c-7 -2 -19 -2 -25 0 -7 3 -2 5 12 5 14 0 19 -2 13 -5z m-5447 -25 l19 -23 -21 18 c-13 10 -29 15 -40 11 -16 -5 -16 -4 -4 5 21 15 24 14 46 -11z m1884 -3 c0 -8 -10 -19 -21 -26 -21 -11 -21 -11 -3 15 22 30 24 31 24 11z m-604 -73 c-11 -10 -14 3 -7 38 l6 35 3 -33 c2 -19 1 -36 -2 -40z m539 48 c3 -5 -1 -10 -10 -10 -9 0 -13 5 -10 10 3 6 8 10 10 10 2 0 7 -4 10 -10z m3795 0 c0 -13 -11 -13 -30 0 -12 8 -11 10 8 10 12 0 22 -4 22 -10z m-7219 -25 c-18 -8 -58 -37 -87 -64 -63 -58 -165 -111 -220 -116 -22 -1 -30 0 -19 3 18 5 18 6 -5 13 -25 7 -25 7 4 8 51 2 97 23 91 42 -4 12 3 20 26 28 27 9 30 9 19 -4 -8 -10 -9 -15 -2 -15 6 0 14 5 17 10 3 6 15 10 26 10 11 0 17 5 14 10 -3 6 1 10 9 10 8 0 22 8 32 18 26 26 87 60 109 61 13 0 9 -5 -14 -14z m2846 -37 c-3 -7 -5 -2 -5 12 0 14 2 19 5 13 2 -7 2 -19 0 -25z m-3218 2 c123 -15 114 -24 -14 -15 -132 10 -126 10 -245 -3 -106 -12 -129 -9 -48 6 29 6 76 15 103 20 28 6 66 8 85 6 19 -2 73 -8 119 -14z m2131 5 c17 -9 30 -18 30 -21 0 -4 -59 23 -69 32 -10 9 13 3 39 -11z m2110 -19 c-8 -7 -28 -16 -45 -19 -26 -6 -25 -4 10 13 49 23 53 24 35 6z m-1935 -6 c3 -5 36 -18 73 -29 37 -11 76 -27 87 -36 19 -15 19 -15 -5 -6 -14 6 -61 20 -105 32 -44 12 -89 28 -100 36 -18 12 -17 13 12 13 18 0 35 -4 38 -10z m-2102 -7 c-7 -2 -21 -2 -30 0 -10 3 -4 5 12 5 17 0 24 -2 18 -5z m3902 -10 c-11 -3 -28 -12 -37 -21 -10 -8 -18 -12 -18 -7 0 14 34 34 55 34 l20 -1 -20 -5z m-3987 -10 c-10 -2 -28 -2 -40 0 -13 2 -5 4 17 4 22 1 32 -1 23 -4z m3392 -13 c0 -5 -5 -10 -11 -10 -5 0 -7 5 -4 10 3 6 8 10 11 10 2 0 4 -4 4 -10z m6795 -16 c5 -7 26 -22 45 -33 19 -12 31 -21 26 -21 -11 0 -126 70 -126 76 0 9 45 -9 55 -22z m-6478 10 c-3 -3 -12 -4 -19 -1 -8 3 -5 6 6 6 11 1 17 -2 13 -5z m-64 -21 c-7 -2 -21 -2 -30 0 -10 3 -4 5 12 5 17 0 24 -2 18 -5z m4297 -5 c-25 -6 -63 -16 -85 -23 -37 -12 -32 -13 99 -20 76 -4 218 -5 315 -2 120 4 157 3 116 -3 -88 -13 -764 -15 -796 -2 -29 12 -74 5 -205 -32 -49 -13 -117 -27 -152 -31 -70 -7 -95 -16 -161 -57 -27 -17 -59 -28 -80 -28 -20 0 -56 -6 -81 -14 -25 -7 -70 -16 -100 -19 l-55 -6 60 13 c76 16 58 23 -80 31 -113 6 -319 29 -390 44 l-40 9 48 1 c27 0 114 -4 195 -10 150 -11 287 -5 261 12 -11 7 -9 9 9 9 12 0 22 4 22 9 0 5 -10 11 -22 13 -13 2 87 3 222 3 238 1 248 2 340 29 52 15 126 34 164 41 38 7 72 18 75 24 7 10 97 16 271 18 86 1 91 0 50 -9z m1067 6 c-3 -3 -12 -4 -19 -1 -8 3 -5 6 6 6 11 1 17 -2 13 -5z m-1400 -10 c-3 -3 -12 -4 -19 -1 -8 3 -5 6 6 6 11 1 17 -2 13 -5z m-4027 -44 c-31 -33 -40 -37 -40 -16 0 16 37 46 56 46 7 0 -1 -13 -16 -30z m-3695 0 c-3 -5 -23 -10 -43 -9 -33 1 -34 2 -12 9 36 12 62 12 55 0z m3739 -15 c-4 -8 -15 -15 -26 -15 -17 0 -18 3 -8 15 7 8 19 15 26 15 8 0 11 -6 8 -15z m54 -12 c-10 -2 -26 -2 -35 0 -10 3 -2 5 17 5 19 0 27 -2 18 -5z m6995 0 c-7 -2 -19 -2 -25 0 -7 3 -2 5 12 5 14 0 19 -2 13 -5z m-11310 -30 c-7 -2 -19 -2 -25 0 -7 3 -2 5 12 5 14 0 19 -2 13 -5z m6844 -19 c-3 -3 -12 -4 -19 -1 -8 3 -5 6 6 6 11 1 17 -2 13 -5z m566 -11 c-13 -2 -33 -2 -45 0 -13 2 -3 4 22 4 25 0 35 -2 23 -4z m-4423 -20 c0 -5 -44 -8 -98 -9 -58 -1 -87 2 -72 6 33 10 170 12 170 3z m1615 -60 c15 -22 12 -21 -33 9 -27 18 -58 38 -68 45 -11 7 4 3 33 -9 29 -11 59 -31 68 -45z m92 -29 c-3 -3 -12 -4 -19 -1 -8 3 -5 6 6 6 11 1 17 -2 13 -5z m2603 -9 c-41 -7 -140 -19 -220 -26 -80 -7 -148 -17 -151 -21 -3 -5 -34 -5 -70 0 l-64 9 45 6 c25 3 113 11 195 17 83 7 168 15 190 20 22 4 65 8 95 8 l55 0 -75 -13z m-2554 -10 c10 -8 33 -15 50 -15 17 0 37 -6 44 -14 6 -8 21 -17 33 -19 18 -3 16 -5 -6 -6 -23 -1 -138 47 -156 65 -11 11 17 2 35 -11z m-2060 -21 c-22 -8 -41 -12 -44 -9 -3 2 1 7 9 9 8 2 21 7 29 9 36 12 41 4 6 -9z m4037 -11 c-7 -2 -21 -2 -30 0 -10 3 -4 5 12 5 17 0 24 -2 18 -5z m-1719 -22 c4 -5 -3 -7 -14 -4 -23 6 -26 13 -6 13 8 0 17 -4 20 -9z m104 -38 c-10 -2 -26 -2 -35 0 -10 3 -2 5 17 5 19 0 27 -2 18 -5z m130 -210 c-16 -2 -40 -2 -55 0 -16 2 -3 4 27 4 30 0 43 -2 28 -4z m-800 -10 c-10 -2 -26 -2 -35 0 -10 3 -2 5 17 5 19 0 27 -2 18 -5z m645 0 c-7 -2 -21 -2 -30 0 -10 3 -4 5 12 5 17 0 24 -2 18 -5z m-1760 -20 c-7 -2 -19 -2 -25 0 -7 3 -2 5 12 5 14 0 19 -2 13 -5z"></path><path d="M8996 4675 c-10 -26 -7 -63 5 -71 16 -10 30 16 27 50 -3 33 -22 45 -32 21z"></path><path d="M8506 3863 c-12 -12 -6 -33 9 -33 8 0 15 6 15 14 0 17 -14 28 -24 19z"></path><path d="M8827 3348 c-15 -24 -45 -70 -67 -103 -21 -33 -39 -63 -39 -67 -2 -19 19 -5 36 22 9 17 23 30 30 30 18 0 59 60 66 95 3 17 9 38 12 48 13 32 -10 17 -38 -25z"></path><path d="M8480 3325 c-10 -12 -10 -15 3 -15 19 0 31 16 18 24 -5 3 -14 -1 -21 -9z"></path><path d="M9270 3285 c0 -9 5 -15 10 -13 12 4 11 16 -1 24 -5 3 -9 -2 -9 -11z"></path><path d="M9000 3175 c0 -8 5 -15 10 -15 6 0 10 7 10 15 0 8 -4 15 -10 15 -5 0 -10 -7 -10 -15z"></path><path d="M8070 3151 c-14 -27 7 -39 25 -15 18 24 19 34 0 34 -8 0 -19 -9 -25 -19z"></path><path d="M8532 3158 c-16 -16 -15 -28 3 -28 8 0 15 2 15 4 0 2 3 11 6 20 7 19 -7 21 -24 4z"></path><path d="M8617 3153 c-12 -11 -8 -23 8 -23 8 0 15 7 15 15 0 16 -12 20 -23 8z"></path><path d="M8755 3149 c-4 -6 -5 -13 -2 -16 7 -7 27 6 27 18 0 12 -17 12 -25 -2z"></path><path d="M9475 3141 c-6 -11 9 -23 19 -14 9 9 7 23 -3 23 -6 0 -12 -4 -16 -9z"></path><path d="M8648 3093 c-24 -6 -23 -23 2 -23 11 0 20 7 20 15 0 8 -1 14 -2 14 -2 -1 -11 -3 -20 -6z"></path><path d="M9367 3083 c-12 -11 -8 -23 8 -23 8 0 15 7 15 15 0 16 -12 20 -23 8z"></path><path d="M9156 3048 c-9 -12 -16 -28 -16 -35 0 -19 -32 -31 -67 -26 -19 3 -33 1 -33 -5 0 -5 19 -12 41 -16 46 -7 79 12 79 44 0 10 7 23 15 30 8 7 15 16 15 21 0 16 -19 9 -34 -13z"></path><path d="M8145 3029 c-10 -15 3 -25 16 -12 7 7 7 13 1 17 -6 3 -14 1 -17 -5z"></path><path d="M8628 2983 c6 -2 18 -2 25 0 6 3 1 5 -13 5 -14 0 -19 -2 -12 -5z"></path><path d="M8076 2945 c-28 -43 -19 -59 14 -22 33 39 36 47 16 47 -7 0 -21 -11 -30 -25z"></path><path d="M9301 2921 c-12 -16 -21 -32 -21 -35 0 -13 29 -5 54 15 21 17 24 24 15 35 -17 20 -25 18 -48 -15z"></path><path d="M8495 2889 c-8 -23 -1 -34 14 -24 13 8 15 45 2 45 -5 0 -13 -9 -16 -21z"></path><path d="M9124 2896 c-10 -8 -16 -17 -12 -21 11 -11 48 5 48 21 0 18 -11 18 -36 0z"></path><path d="M9185 2850 c-3 -5 1 -10 9 -10 9 0 16 5 16 10 0 6 -4 10 -9 10 -6 0 -13 -4 -16 -10z"></path><path d="M8335 2822 c-6 -4 -18 -19 -28 -34 -22 -36 -1 -39 31 -5 31 32 28 62 -3 39z"></path><path d="M8495 2810 c3 -5 8 -10 11 -10 2 0 4 5 4 10 0 6 -5 10 -11 10 -5 0 -7 -4 -4 -10z"></path><path d="M8025 2790 c-21 -23 -12 -39 13 -24 19 12 29 44 14 44 -5 0 -17 -9 -27 -20z"></path><path d="M8520 2655 c0 -8 5 -15 10 -15 6 0 10 7 10 15 0 8 -4 15 -10 15 -5 0 -10 -7 -10 -15z"></path><path d="M6267 4103 c-12 -11 -8 -23 8 -23 8 0 15 7 15 15 0 16 -12 20 -23 8z"></path><path d="M6417 4043 c-12 -11 -8 -23 8 -23 8 0 15 7 15 15 0 16 -12 20 -23 8z"></path><path d="M6590 3910 c0 -11 5 -20 10 -20 6 0 10 9 10 20 0 11 -4 20 -10 20 -5 0 -10 -9 -10 -20z"></path><path d="M7073 3858 c2 -7 7 -13 12 -13 5 0 10 6 13 13 2 6 -4 12 -13 12 -9 0 -15 -6 -12 -12z"></path><path d="M7100 3805 c0 -8 5 -15 10 -15 6 0 10 7 10 15 0 8 -4 15 -10 15 -5 0 -10 -7 -10 -15z"></path><path d="M6590 3650 c0 -5 5 -10 10 -10 6 0 10 5 10 10 0 6 -4 10 -10 10 -5 0 -10 -4 -10 -10z"></path><path d="M7070 3650 c0 -5 5 -10 10 -10 6 0 10 5 10 10 0 6 -4 10 -10 10 -5 0 -10 -4 -10 -10z"></path><path d="M6120 3540 c0 -5 5 -10 10 -10 6 0 10 5 10 10 0 6 -4 10 -10 10 -5 0 -10 -4 -10 -10z"></path><path d="M6255 3490 c-3 -5 -1 -10 4 -10 6 0 11 5 11 10 0 6 -2 10 -4 10 -3 0 -8 -4 -11 -10z"></path><path d="M6527 3423 c-11 -10 -8 -41 3 -48 15 -9 40 14 40 36 0 19 -29 27 -43 12z"></path><path d="M7010 3340 c0 -5 5 -10 10 -10 6 0 10 5 10 10 0 6 -4 10 -10 10 -5 0 -10 -4 -10 -10z"></path><path d="M6930 3299 c0 -5 5 -7 10 -4 6 3 10 8 10 11 0 2 -4 4 -10 4 -5 0 -10 -5 -10 -11z"></path><path d="M6580 3245 c0 -8 5 -15 10 -15 6 0 10 7 10 15 0 8 -4 15 -10 15 -5 0 -10 -7 -10 -15z"></path><path d="M6920 3230 c0 -5 5 -10 10 -10 6 0 10 5 10 10 0 6 -4 10 -10 10 -5 0 -10 -4 -10 -10z"></path><path d="M6423 3215 c-8 -22 6 -33 17 -15 13 20 12 30 0 30 -6 0 -13 -7 -17 -15z"></path><path d="M6036 3205 c4 -8 8 -15 10 -15 2 0 4 7 4 15 0 8 -4 15 -10 15 -5 0 -7 -7 -4 -15z"></path><path d="M6030 3170 c0 -5 7 -10 15 -10 8 0 15 5 15 10 0 6 -7 10 -15 10 -8 0 -15 -4 -15 -10z"></path><path d="M6261 3156 c-8 -9 -11 -19 -7 -23 9 -9 29 13 24 27 -2 8 -8 7 -17 -4z"></path><path d="M6414 3145 c-9 -22 1 -29 15 -11 8 10 9 16 1 21 -5 3 -13 -1 -16 -10z"></path><path d="M6686 3141 c-4 -5 -2 -12 3 -15 5 -4 12 -2 15 3 4 5 2 12 -3 15 -5 4 -12 2 -15 -3z"></path><path d="M5445 3118 c-19 -11 -19 -11 0 -18 24 -9 35 -4 35 16 0 17 -8 17 -35 2z"></path><path d="M5095 3079 c-4 -6 -4 -13 -1 -16 8 -8 36 5 36 17 0 13 -27 13 -35 -1z"></path><path d="M5330 3075 c-10 -12 -10 -15 4 -15 9 0 16 7 16 15 0 8 -2 15 -4 15 -2 0 -9 -7 -16 -15z"></path><path d="M6135 3061 c-3 -5 -2 -12 3 -15 12 -7 52 4 52 15 0 12 -47 12 -55 0z"></path><path d="M6260 3060 c0 -5 5 -10 10 -10 6 0 10 5 10 10 0 6 -4 10 -10 10 -5 0 -10 -4 -10 -10z"></path><path d="M6415 3060 c-3 -5 -1 -10 4 -10 6 0 11 5 11 10 0 6 -2 10 -4 10 -3 0 -8 -4 -11 -10z"></path><path d="M5180 3010 c0 -5 6 -10 14 -10 8 0 18 5 21 10 3 6 -3 10 -14 10 -12 0 -21 -4 -21 -10z"></path><path d="M6243 2978 c2 -7 10 -13 17 -13 7 0 15 6 18 13 2 7 -5 12 -18 12 -13 0 -20 -5 -17 -12z"></path><path d="M10570 3915 c0 -8 5 -15 10 -15 6 0 10 7 10 15 0 8 -4 15 -10 15 -5 0 -10 -7 -10 -15z"></path><path d="M10505 3860 c-8 -13 4 -32 16 -25 12 8 12 35 0 35 -6 0 -13 -4 -16 -10z"></path><path d="M10564 3809 c-10 -17 13 -36 27 -22 12 12 4 33 -11 33 -5 0 -12 -5 -16 -11z"></path><path d="M10900 3500 c0 -5 7 -10 15 -10 8 0 15 5 15 10 0 6 -7 10 -15 10 -8 0 -15 -4 -15 -10z"></path><path d="M11620 3236 c0 -16 19 -25 38 -19 22 8 13 33 -13 33 -15 0 -25 -6 -25 -14z"></path><path d="M11697 3233 c-11 -10 -8 -41 4 -49 17 -10 32 12 24 35 -6 21 -16 26 -28 14z"></path><path d="M11850 3170 c0 -5 7 -10 15 -10 8 0 15 5 15 10 0 6 -7 10 -15 10 -8 0 -15 -4 -15 -10z"></path><path d="M10740 3094 c0 -8 5 -12 10 -9 6 3 10 10 10 16 0 5 -4 9 -10 9 -5 0 -10 -7 -10 -16z"></path><path d="M10905 2990 c-3 -5 1 -10 9 -10 9 0 16 5 16 10 0 6 -4 10 -9 10 -6 0 -13 -4 -16 -10z"></path><path d="M10760 2910 c0 -5 5 -10 11 -10 5 0 7 5 4 10 -3 6 -8 10 -11 10 -2 0 -4 -4 -4 -10z"></path><path d="M10590 2890 c0 -5 5 -10 10 -10 6 0 10 5 10 10 0 6 -4 10 -10 10 -5 0 -10 -4 -10 -10z"></path><path d="M10905 2830 c-3 -5 1 -10 9 -10 9 0 16 5 16 10 0 6 -4 10 -9 10 -6 0 -13 -4 -16 -10z"></path><path d="M12190 2830 c0 -5 5 -10 10 -10 6 0 10 5 10 10 0 6 -4 10 -10 10 -5 0 -10 -4 -10 -10z"></path><path d="M10580 2745 c0 -8 5 -15 10 -15 6 0 10 7 10 15 0 8 -4 15 -10 15 -5 0 -10 -7 -10 -15z"></path><path d="M10410 2729 c0 -5 5 -7 10 -4 6 3 10 8 10 11 0 2 -4 4 -10 4 -5 0 -10 -5 -10 -11z"></path><path d="M10550 2639 c0 -13 26 -40 33 -33 3 3 3 14 0 25 -6 20 -33 27 -33 8z"></path><path d="M11820 2335 c0 -8 7 -15 15 -15 8 0 15 7 15 15 0 8 -7 15 -15 15 -8 0 -15 -7 -15 -15z"></path><path d="M5750 1920 c-8 -5 -10 -10 -5 -10 6 0 17 5 25 10 8 5 11 10 5 10 -5 0 -17 -5 -25 -10z"></path><path d="M10705 2031 c-3 -5 -1 -12 4 -15 13 -8 71 5 71 15 0 12 -67 11 -75 0z"></path><path d="M6705 9090 c-3 -5 -2 -10 4 -10 5 0 13 5 16 10 3 6 2 10 -4 10 -5 0 -13 -4 -16 -10z"></path><path d="M6255 9070 c-21 -23 -12 -39 13 -24 19 12 29 44 14 44 -5 0 -17 -9 -27 -20z"></path><path d="M10344 9065 c-19 -14 -19 -14 3 -15 28 0 53 10 53 21 0 14 -34 11 -56 -6z"></path><path d="M8490 9050 c-8 -5 -12 -12 -8 -15 9 -9 48 4 48 16 0 12 -21 11 -40 -1z"></path><path d="M7155 9039 c-10 -15 3 -25 16 -12 7 7 7 13 1 17 -6 3 -14 1 -17 -5z"></path><path d="M6715 9019 c-10 -15 1 -23 20 -15 9 3 13 10 10 16 -8 13 -22 13 -30 -1z"></path><path d="M8003 9018 c-26 -12 -30 -28 -9 -28 25 0 46 12 46 26 0 16 -7 17 -37 2z"></path><path d="M8510 8990 c0 -11 4 -20 9 -20 11 0 22 26 14 34 -12 12 -23 5 -23 -14z"></path><path d="M10205 8984 c-19 -15 -19 -15 9 -12 16 2 31 9 34 16 5 17 -19 15 -43 -4z"></path><path d="M7900 8980 c0 -5 5 -10 10 -10 6 0 10 5 10 10 0 6 -4 10 -10 10 -5 0 -10 -4 -10 -10z"></path><path d="M7810 8960 c0 -5 4 -10 9 -10 6 0 13 5 16 10 3 6 -1 10 -9 10 -9 0 -16 -4 -16 -10z"></path><path d="M6403 8874 c-70 -76 -51 -104 25 -35 40 37 57 81 30 81 -6 0 -31 -21 -55 -46z"></path><path d="M9785 8909 c-10 -15 1 -23 20 -15 9 3 13 10 10 16 -8 13 -22 13 -30 -1z"></path><path d="M5625 8900 c3 -5 10 -10 16 -10 5 0 9 5 9 10 0 6 -7 10 -16 10 -8 0 -12 -4 -9 -10z"></path><path d="M5845 8840 c-3 -5 -1 -10 4 -10 6 0 11 5 11 10 0 6 -2 10 -4 10 -3 0 -8 -4 -11 -10z"></path><path d="M5727 8834 c-8 -8 1 -24 14 -24 5 0 9 7 9 15 0 15 -12 20 -23 9z"></path><path d="M9387 8806 c-8 -20 15 -36 41 -29 26 6 19 23 -9 23 -11 0 -17 5 -14 10 3 6 2 10 -3 10 -6 0 -12 -6 -15 -14z"></path><path d="M6040 8789 c-13 -24 -4 -41 10 -19 10 16 13 40 5 40 -2 0 -9 -9 -15 -21z"></path><path d="M9790 8780 c0 -5 5 -10 10 -10 6 0 10 5 10 10 0 6 -4 10 -10 10 -5 0 -10 -4 -10 -10z"></path><path d="M7075 8750 c-3 -5 1 -10 9 -10 9 0 16 5 16 10 0 6 -4 10 -9 10 -6 0 -13 -4 -16 -10z"></path><path d="M9077 8738 c-39 -14 -66 -17 -109 -12 -46 5 -63 3 -84 -11 -22 -14 -37 -16 -78 -10 -108 16 -169 -1 -179 -53 -4 -18 -16 -33 -33 -41 -15 -7 -44 -25 -63 -40 -21 -16 -54 -30 -78 -33 -23 -3 -57 -18 -76 -32 -19 -14 -46 -26 -60 -26 -14 0 -42 -9 -61 -21 -40 -24 -49 -46 -13 -34 12 4 44 10 71 12 27 3 63 14 80 24 17 10 40 16 52 13 15 -4 30 2 45 17 27 27 84 34 145 18 47 -12 110 7 121 38 9 24 23 33 56 33 18 0 40 12 62 35 21 20 41 32 50 29 8 -3 24 1 37 10 12 9 35 16 51 16 25 0 111 24 185 52 13 4 22 14 19 21 -6 18 -81 16 -140 -5z"></path><path d="M10090 8719 c-36 -15 -75 -29 -86 -29 -12 0 -32 -8 -45 -19 -13 -10 -39 -22 -56 -25 -18 -4 -33 -12 -33 -17 0 -15 77 -10 90 6 7 8 27 15 44 15 17 0 48 11 68 25 30 21 41 23 63 15 41 -16 117 30 84 51 -23 15 -61 8 -129 -22z"></path><path d="M6220 8711 c0 -11 -8 -22 -19 -26 -29 -9 -54 -42 -47 -61 6 -15 8 -16 24 0 10 9 28 16 40 16 12 0 22 5 22 10 0 6 -4 10 -9 10 -6 0 -7 16 -4 35 3 19 3 35 -1 35 -3 0 -6 -9 -6 -19z"></path><path d="M5407 8693 c-4 -3 -7 -11 -7 -17 0 -6 5 -5 12 2 6 6 9 14 7 17 -3 3 -9 2 -12 -2z"></path><path d="M5282 8668 c-31 -31 -3 -51 34 -23 16 12 17 14 2 15 -9 0 -18 5 -20 10 -2 7 -8 6 -16 -2z"></path><path d="M7285 8644 c-46 -19 -66 -34 -84 -64 -13 -21 -35 -51 -49 -65 -30 -32 -17 -56 20 -38 13 6 44 19 69 28 64 23 132 93 127 130 -2 16 -7 30 -13 31 -5 2 -37 -8 -70 -22z"></path><path d="M6097 8602 c-20 -22 -21 -32 -6 -32 12 0 38 29 39 43 0 13 -17 7 -33 -11z"></path><path d="M5250 8510 c0 -24 15 -27 24 -4 9 22 8 24 -9 24 -8 0 -15 -9 -15 -20z"></path><path d="M6037 8512 c-21 -23 -21 -32 -3 -32 20 0 41 29 29 41 -6 6 -15 3 -26 -9z"></path><path d="M9150 8469 c0 -5 5 -7 10 -4 6 3 10 8 10 11 0 2 -4 4 -10 4 -5 0 -10 -5 -10 -11z"></path><path d="M7035 8432 c-21 -17 -78 -122 -67 -122 4 0 15 9 27 20 11 11 35 32 54 47 27 22 31 28 19 37 -8 6 -13 17 -11 24 6 16 2 15 -22 -6z"></path><path d="M9132 8433 c-15 -6 -6 -23 14 -23 8 0 14 7 14 15 0 15 -6 17 -28 8z"></path><path d="M8967 8413 c-12 -11 -8 -23 8 -23 8 0 15 7 15 15 0 16 -12 20 -23 8z"></path><path d="M5936 8395 c-4 -12 -1 -16 11 -13 16 3 18 13 3 23 -4 3 -10 -1 -14 -10z"></path><path d="M8310 8364 c0 -9 7 -14 17 -12 25 5 28 28 4 28 -12 0 -21 -6 -21 -16z"></path><path d="M8958 8372 c-10 -2 -18 -8 -18 -13 0 -13 27 -11 35 2 9 13 4 16 -17 11z"></path><path d="M8243 8363 c-18 -6 -16 -23 1 -23 17 0 30 16 19 23 -5 2 -14 2 -20 0z"></path><path d="M8900 8339 c0 -5 5 -7 10 -4 6 3 10 8 10 11 0 2 -4 4 -10 4 -5 0 -10 -5 -10 -11z"></path><path d="M5950 8330 c0 -5 5 -10 10 -10 6 0 10 5 10 10 0 6 -4 10 -10 10 -5 0 -10 -4 -10 -10z"></path><path d="M6800 8300 c0 -5 4 -10 9 -10 6 0 13 5 16 10 3 6 -1 10 -9 10 -9 0 -16 -4 -16 -10z"></path><path d="M8740 8260 c0 -5 5 -10 10 -10 6 0 10 5 10 10 0 6 -4 10 -10 10 -5 0 -10 -4 -10 -10z"></path><path d="M11258 8222 c-36 -22 -35 -39 1 -47 47 -10 121 36 90 56 -22 14 -62 10 -91 -9z"></path><path d="M8215 8219 c-4 -6 -4 -13 -1 -16 8 -8 36 5 36 17 0 13 -27 13 -35 -1z"></path><path d="M8495 8208 c-35 -19 -65 -51 -65 -70 0 -11 -16 -26 -40 -38 -22 -11 -40 -25 -40 -30 0 -23 -107 -61 -182 -64 -39 -1 -102 -40 -95 -59 7 -22 74 -18 104 7 38 31 110 56 161 56 24 0 54 7 68 16 21 14 29 15 48 4 15 -8 38 -10 64 -5 41 7 131 57 145 81 4 7 30 26 57 41 28 15 50 31 50 34 0 3 -33 13 -72 22 -83 20 -173 22 -203 5z"></path><path d="M8833 8198 c2 -7 7 -12 10 -10 4 1 14 2 22 2 8 0 15 5 15 10 0 6 -12 10 -26 10 -16 0 -24 -5 -21 -12z"></path><path d="M10997 8114 c-32 -17 -28 -35 6 -27 29 8 48 23 41 34 -7 12 -14 11 -47 -7z"></path><path d="M10607 8069 c-19 -11 -14 -29 8 -29 8 0 26 5 42 11 22 8 24 12 13 19 -19 12 -41 12 -63 -1z"></path><path d="M9625 8029 c-10 -15 1 -23 20 -15 9 3 13 10 10 16 -8 13 -22 13 -30 -1z"></path><path d="M10410 7960 c0 -5 5 -10 10 -10 6 0 10 5 10 10 0 6 -4 10 -10 10 -5 0 -10 -4 -10 -10z"></path><path d="M11685 7951 c-3 -5 -1 -12 5 -16 5 -3 10 1 10 9 0 18 -6 21 -15 7z"></path><path d="M9956 7915 c-15 -8 -35 -15 -42 -15 -8 0 -14 -6 -14 -13 0 -23 90 -40 143 -26 26 6 47 17 47 24 0 11 -72 45 -95 45 -6 0 -23 -7 -39 -15z"></path><path d="M7939 7871 c-19 -16 -21 -22 -12 -32 10 -10 18 -8 38 11 14 13 25 27 25 32 0 14 -27 9 -51 -11z"></path><path d="M9663 7855 c-41 -17 -42 -29 -4 -44 46 -20 142 13 115 39 -18 16 -79 19 -111 5z"></path><path d="M10400 7840 c0 -5 7 -10 15 -10 8 0 15 5 15 10 0 6 -7 10 -15 10 -8 0 -15 -4 -15 -10z"></path><path d="M10711 7801 c-10 -6 -10 -10 -1 -16 13 -8 24 -1 19 14 -3 6 -10 7 -18 2z"></path><path d="M10190 7787 c0 -20 67 -37 144 -37 68 0 82 10 49 36 -25 19 -193 19 -193 1z"></path><path d="M10500 7789 c0 -5 5 -7 10 -4 6 3 10 8 10 11 0 2 -4 4 -10 4 -5 0 -10 -5 -10 -11z"></path><path d="M9762 7688 c7 -19 38 -22 38 -4 0 10 -9 16 -21 16 -12 0 -19 -5 -17 -12z"></path><path d="M10275 7680 c-3 -5 -2 -18 4 -27 7 -13 3 -25 -19 -49 -19 -22 -26 -39 -23 -56 4 -19 -4 -31 -34 -54 -32 -24 -45 -28 -90 -26 -33 2 -63 -3 -83 -13 -26 -13 -37 -14 -66 -5 -41 14 -96 6 -139 -19 -16 -9 -51 -25 -77 -35 -27 -10 -48 -21 -48 -25 0 -15 95 -21 148 -10 39 9 58 9 77 1 36 -17 101 -15 129 3 13 9 43 16 67 15 112 0 209 -9 261 -23 53 -14 58 -14 88 5 18 10 65 30 105 43 83 27 106 24 172 -19 35 -23 44 -25 86 -17 25 4 58 16 73 26 21 14 40 16 85 12 44 -4 61 -1 70 10 30 35 71 46 181 45 59 -1 110 3 113 8 3 6 -1 10 -10 10 -22 0 -113 39 -153 67 -18 12 -56 29 -84 39 -42 13 -57 14 -89 5 -22 -7 -39 -18 -39 -26 0 -22 -20 -29 -100 -32 -66 -2 -83 1 -142 29 -57 26 -75 30 -115 25 -76 -10 -180 23 -218 67 -27 32 -35 36 -77 36 -26 0 -50 -4 -53 -10z"></path><path d="M9698 7631 c-31 -19 -68 -64 -68 -80 0 -18 35 -13 63 9 14 11 30 20 35 20 17 0 73 51 66 61 -9 15 -67 9 -96 -10z"></path><path d="M11930 7590 c0 -5 16 -10 35 -10 19 0 35 5 35 10 0 6 -16 10 -35 10 -19 0 -35 -4 -35 -10z"></path><path d="M11743 7558 c2 -7 7 -13 12 -13 5 0 10 6 13 13 2 6 -4 12 -13 12 -9 0 -15 -6 -12 -12z"></path><path d="M9570 7540 c0 -5 11 -10 25 -10 14 0 25 5 25 10 0 6 -11 10 -25 10 -14 0 -25 -4 -25 -10z"></path><path d="M9140 7530 c0 -5 5 -10 10 -10 6 0 10 5 10 10 0 6 -4 10 -10 10 -5 0 -10 -4 -10 -10z"></path><path d="M9446 7508 c-8 -43 6 -55 39 -34 l27 18 -23 24 c-29 31 -35 30 -43 -8z"></path><path d="M11438 7493 c-29 -7 -21 -25 10 -21 15 2 25 6 23 11 -6 12 -15 15 -33 10z"></path><path d="M9590 7470 c0 -5 5 -10 10 -10 6 0 10 5 10 10 0 6 -4 10 -10 10 -5 0 -10 -4 -10 -10z"></path><path d="M9163 7454 c-37 -19 -41 -29 -15 -43 14 -7 26 -4 50 16 50 39 26 57 -35 27z"></path><path d="M9063 7403 c-7 -2 -13 -9 -13 -15 0 -14 43 -6 48 10 4 12 -12 15 -35 5z"></path><path d="M11347 7394 c-13 -13 -7 -24 14 -24 11 0 19 5 17 12 -5 14 -22 21 -31 12z"></path><path d="M8868 7333 c-31 -5 -39 -33 -9 -33 27 0 81 21 81 31 0 9 -21 10 -72 2z"></path><path d="M9685 7270 c-23 -26 -12 -37 21 -21 22 10 28 9 38 -5 9 -11 19 -14 34 -10 34 11 26 24 -20 37 -24 6 -46 13 -49 15 -4 2 -14 -5 -24 -16z"></path><path d="M10100 7225 c0 -8 5 -15 10 -15 6 0 10 7 10 15 0 8 -4 15 -10 15 -5 0 -10 -7 -10 -15z"></path><path d="M9750 7150 c0 -5 9 -10 20 -10 11 0 20 5 20 10 0 6 -9 10 -20 10 -11 0 -20 -4 -20 -10z"></path><path d="M9602 7138 c6 -18 28 -21 28 -4 0 9 -7 16 -16 16 -9 0 -14 -5 -12 -12z"></path><path d="M10405 7140 c3 -5 13 -10 21 -10 8 0 14 5 14 10 0 6 -9 10 -21 10 -11 0 -17 -4 -14 -10z"></path><path d="M9500 7081 c0 -15 16 -22 34 -15 25 9 19 24 -9 24 -14 0 -25 -4 -25 -9z"></path><path d="M10470 7070 c-8 -5 -12 -11 -9 -14 8 -8 79 6 79 15 0 12 -51 11 -70 -1z"></path><path d="M10498 7033 c-16 -2 -28 -11 -28 -19 0 -19 25 -18 44 2 13 13 22 28 14 23 -2 -1 -15 -4 -30 -6z"></path><path d="M11450 7000 c0 -5 5 -10 10 -10 6 0 10 5 10 10 0 6 -4 10 -10 10 -5 0 -10 -4 -10 -10z"></path><path d="M9780 6771 c0 -11 38 -21 56 -14 26 10 14 23 -21 23 -19 0 -35 -4 -35 -9z"></path><path d="M3182 6720 c-12 -16 -22 -35 -22 -43 0 -19 36 -50 49 -42 15 8 14 38 -1 53 -10 10 -10 17 0 32 19 31 -3 32 -26 0z"></path><path d="M10397 6744 c-13 -13 -7 -24 14 -24 11 0 19 5 17 12 -5 14 -22 21 -31 12z"></path><path d="M9792 6693 c4 -22 48 -31 48 -10 0 14 -20 27 -42 27 -5 0 -8 -8 -6 -17z"></path><path d="M10734 6689 c-8 -14 18 -31 30 -19 9 9 0 30 -14 30 -5 0 -12 -5 -16 -11z"></path><path d="M10440 6670 c0 -5 5 -10 10 -10 6 0 10 5 10 10 0 6 -4 10 -10 10 -5 0 -10 -4 -10 -10z"></path><path d="M10284 6635 c-13 -33 48 -69 101 -59 19 3 35 9 35 13 -1 7 -105 61 -120 61 -6 0 -13 -7 -16 -15z"></path><path d="M10140 6605 c0 -8 5 -15 10 -15 6 0 10 7 10 15 0 8 -4 15 -10 15 -5 0 -10 -7 -10 -15z"></path><path d="M11542 6508 c6 -18 52 -32 74 -24 18 7 18 8 0 22 -25 18 -79 19 -74 2z"></path><path d="M11100 6489 c0 -5 5 -7 10 -4 6 3 10 8 10 11 0 2 -4 4 -10 4 -5 0 -10 -5 -10 -11z"></path><path d="M11163 6452 c-33 -5 -28 -17 16 -37 37 -16 61 -15 61 5 0 15 -53 36 -77 32z"></path><path d="M10790 6435 c0 -8 15 -22 33 -31 17 -9 40 -25 50 -35 22 -24 66 -27 47 -4 -7 8 -19 15 -26 15 -8 0 -14 7 -14 15 0 8 -18 24 -40 35 -47 24 -50 24 -50 5z"></path><path d="M10496 6433 c-11 -11 -6 -23 9 -23 8 0 15 4 15 9 0 13 -16 22 -24 14z"></path><path d="M11346 6361 c-8 -12 51 -61 74 -61 9 0 23 6 29 14 9 11 6 18 -15 35 -27 21 -78 28 -88 12z"></path><path d="M11750 6270 c0 -14 48 -35 58 -26 8 9 -26 36 -45 36 -7 0 -13 -5 -13 -10z"></path><path d="M4182 6165 c-16 -35 -15 -60 4 -75 12 -11 18 -10 31 3 13 13 15 24 7 53 -11 46 -27 53 -42 19z"></path><path d="M3856 5592 c-9 -26 -1 -41 13 -26 5 5 5 18 1 29 -7 19 -7 19 -14 -3z"></path><path d="M4075 5490 c3 -5 8 -10 11 -10 2 0 4 5 4 10 0 6 -5 10 -11 10 -5 0 -7 -4 -4 -10z"></path><path d="M5176 5262 c-9 -14 -5 -192 3 -192 14 0 22 29 15 55 -3 13 -1 40 6 60 17 51 -2 112 -24 77z"></path><path d="M4360 5230 c0 -5 5 -10 10 -10 6 0 10 5 10 10 0 6 -4 10 -10 10 -5 0 -10 -4 -10 -10z"></path><path d="M5036 5145 c-6 -17 2 -45 14 -45 5 0 11 9 15 20 11 33 -16 57 -29 25z"></path><path d="M5110 4940 c0 -5 5 -10 10 -10 6 0 10 5 10 10 0 6 -4 10 -10 10 -5 0 -10 -4 -10 -10z"></path><path d="M3720 4570 c0 -11 5 -20 10 -20 6 0 10 9 10 20 0 11 -4 20 -10 20 -5 0 -10 -9 -10 -20z"></path><path d="M4680 4505 c0 -8 5 -15 10 -15 6 0 10 7 10 15 0 8 -4 15 -10 15 -5 0 -10 -7 -10 -15z"></path><path d="M3700 4430 c0 -5 5 -10 10 -10 6 0 10 5 10 10 0 6 -4 10 -10 10 -5 0 -10 -4 -10 -10z"></path><path d="M4040 4345 c0 -8 5 -15 10 -15 6 0 10 7 10 15 0 8 -4 15 -10 15 -5 0 -10 -7 -10 -15z"></path><path d="M3860 4334 c0 -9 5 -14 12 -12 18 6 21 28 4 28 -9 0 -16 -7 -16 -16z"></path><path d="M4665 4340 c-8 -13 4 -32 16 -25 12 8 12 35 0 35 -6 0 -13 -4 -16 -10z"></path><path d="M4170 4325 c0 -8 5 -15 10 -15 6 0 10 7 10 15 0 8 -4 15 -10 15 -5 0 -10 -7 -10 -15z"></path><path d="M4345 4331 c-3 -5 -1 -12 5 -16 5 -3 10 1 10 9 0 18 -6 21 -15 7z"></path><path d="M3592 4058 c-13 -13 -15 -40 -6 -75 9 -33 19 -28 34 16 18 56 2 89 -28 59z"></path><path d="M4446 4054 c-4 -11 -1 -14 11 -12 9 2 18 9 21 16 6 18 -25 15 -32 -4z"></path><path d="M4122 4027 c-13 -15 1 -42 17 -33 13 8 15 46 2 46 -5 0 -13 -6 -19 -13z"></path><path d="M3866 3998 c-9 -36 -7 -48 9 -48 10 0 15 11 15 35 0 39 -14 47 -24 13z"></path><path d="M3571 3882 c-15 -27 -14 -32 4 -32 20 0 31 28 17 42 -7 7 -14 4 -21 -10z"></path><path d="M4402 3888 c-15 -15 -16 -38 -2 -38 12 0 23 25 18 40 -2 7 -7 7 -16 -2z"></path><path d="M3412 3858 c5 -32 28 -35 28 -4 0 17 -5 26 -16 26 -10 0 -14 -7 -12 -22z"></path><path d="M3170 3789 c0 -5 5 -7 10 -4 6 3 10 8 10 11 0 2 -4 4 -10 4 -5 0 -10 -5 -10 -11z"></path><path d="M3550 3765 c0 -9 5 -15 10 -13 12 4 11 16 -1 24 -5 3 -9 -2 -9 -11z"></path><path d="M4196 3739 c-14 -17 -26 -35 -26 -41 0 -6 -8 0 -18 12 -17 21 -18 21 -34 3 -8 -10 -19 -28 -23 -41 -8 -27 18 -41 46 -24 10 7 27 12 38 12 22 0 56 43 66 83 10 38 -16 36 -49 -4z"></path><path d="M3859 3703 c-42 -46 -59 -76 -59 -106 0 -28 26 -77 40 -77 5 0 19 19 32 43 21 36 24 50 19 105 l-6 64 -26 -29z"></path><path d="M3550 3705 c0 -8 5 -15 10 -15 6 0 10 7 10 15 0 8 -4 15 -10 15 -5 0 -10 -7 -10 -15z"></path><path d="M3010 3685 c0 -8 5 -15 10 -15 6 0 10 7 10 15 0 8 -4 15 -10 15 -5 0 -10 -7 -10 -15z"></path><path d="M4340 3675 c0 -9 5 -15 10 -13 12 4 11 16 -1 24 -5 3 -9 -2 -9 -11z"></path><path d="M4417 3663 c-12 -12 -7 -22 8 -17 8 4 15 10 15 15 0 11 -14 12 -23 2z"></path><path d="M3385 3617 c-37 -27 -50 -42 -75 -89 -24 -44 -26 -110 -5 -128 8 -7 15 -17 15 -22 0 -6 11 -23 25 -40 14 -16 25 -40 25 -54 0 -15 6 -24 15 -24 10 0 15 10 15 28 0 15 11 39 25 54 14 15 25 30 25 33 0 4 12 22 26 40 46 61 39 156 -13 163 -15 2 -23 11 -25 29 -4 35 -17 37 -53 10z"></path><path d="M3050 3620 c0 -5 7 -10 15 -10 8 0 15 5 15 10 0 6 -7 10 -15 10 -8 0 -15 -4 -15 -10z"></path><path d="M3067 3526 c-6 -15 1 -26 15 -26 11 0 10 27 -1 34 -5 3 -11 0 -14 -8z"></path><path d="M4016 3521 c-4 -7 -5 -15 -2 -18 9 -9 19 4 14 18 -4 11 -6 11 -12 0z"></path><path d="M4130 3500 c0 -5 5 -10 10 -10 6 0 10 5 10 10 0 6 -4 10 -10 10 -5 0 -10 -4 -10 -10z"></path><path d="M4170 3500 c0 -5 5 -10 10 -10 6 0 10 5 10 10 0 6 -4 10 -10 10 -5 0 -10 -4 -10 -10z"></path><path d="M3646 3472 c-3 -6 -1 -14 5 -17 15 -10 25 3 12 16 -7 7 -13 7 -17 1z"></path><path d="M3980 3470 c0 -5 5 -10 10 -10 6 0 10 5 10 10 0 6 -4 10 -10 10 -5 0 -10 -4 -10 -10z"></path><path d="M3800 3385 c0 -14 5 -25 10 -25 6 0 10 11 10 25 0 14 -4 25 -10 25 -5 0 -10 -11 -10 -25z"></path><path d="M3720 3381 c0 -6 5 -13 10 -16 6 -3 10 1 10 9 0 9 -4 16 -10 16 -5 0 -10 -4 -10 -9z"></path><path d="M3910 3340 c0 -5 5 -10 10 -10 6 0 10 5 10 10 0 6 -4 10 -10 10 -5 0 -10 -4 -10 -10z"></path><path d="M3097 3323 c-4 -3 -7 -11 -7 -17 0 -6 5 -5 12 2 6 6 9 14 7 17 -3 3 -9 2 -12 -2z"></path><path d="M3836 3311 c-4 -7 -5 -15 -2 -18 9 -9 19 4 14 18 -4 11 -6 11 -12 0z"></path><path d="M3538 3303 c7 -3 16 -2 19 1 4 3 -2 6 -13 5 -11 0 -14 -3 -6 -6z"></path><path d="M3643 3293 c9 -9 19 -14 23 -11 10 10 -6 28 -24 28 -15 0 -15 -1 1 -17z"></path><path d="M3717 3263 c-10 -9 -9 -51 2 -57 4 -3 16 3 26 14 15 16 15 22 5 35 -14 16 -23 19 -33 8z"></path><path d="M3535 3140 c-3 -5 1 -10 9 -10 8 0 18 5 21 10 3 6 -1 10 -9 10 -8 0 -18 -4 -21 -10z"></path><path d="M13950 2985 c0 -8 5 -15 10 -15 6 0 10 7 10 15 0 8 -4 15 -10 15 -5 0 -10 -7 -10 -15z"></path><path d="M3176 2811 c-4 -7 -5 -15 -2 -18 9 -9 19 4 14 18 -4 11 -6 11 -12 0z"></path><path d="M13465 2739 c-10 -15 3 -25 16 -12 7 7 7 13 1 17 -6 3 -14 1 -17 -5z"></path><path d="M13670 2740 c0 -5 5 -10 11 -10 5 0 7 5 4 10 -3 6 -8 10 -11 10 -2 0 -4 -4 -4 -10z"></path><path d="M13320 2725 c0 -8 5 -15 10 -15 6 0 10 7 10 15 0 8 -4 15 -10 15 -5 0 -10 -7 -10 -15z"></path><path d="M13443 2648 c2 -7 7 -13 12 -13 5 0 10 6 13 13 2 6 -4 12 -13 12 -9 0 -15 -6 -12 -12z"></path><path d="M2880 2609 c0 -5 5 -7 10 -4 6 3 10 8 10 11 0 2 -4 4 -10 4 -5 0 -10 -5 -10 -11z"></path><path d="M14880 2580 c0 -5 5 -10 10 -10 6 0 10 5 10 10 0 6 -4 10 -10 10 -5 0 -10 -4 -10 -10z"></path><path d="M14415 2571 c-3 -5 -1 -12 5 -16 5 -3 10 1 10 9 0 18 -6 21 -15 7z"></path><path d="M1210 2106 c0 -9 5 -16 10 -16 6 0 10 4 10 9 0 6 -4 13 -10 16 -5 3 -10 -1 -10 -9z"></path><path d="M1267 2113 c-13 -12 -7 -23 13 -23 11 0 20 7 20 15 0 15 -21 21 -33 8z"></path><path d="M1095 2100 c3 -5 11 -10 16 -10 6 0 7 5 4 10 -3 6 -11 10 -16 10 -6 0 -7 -4 -4 -10z"></path><path d="M14073 1810 c-117 -18 -112 -35 10 -35 253 1 339 5 335 16 -2 7 -43 12 -108 14 -58 2 -123 5 -145 8 -22 3 -64 2 -92 -3z"></path><path d="M1573 1693 c9 -2 23 -2 30 0 6 3 -1 5 -18 5 -16 0 -22 -2 -12 -5z"></path><path d="M11980 1670 c-10 -7 17 -10 87 -10 57 0 105 4 108 10 8 13 -175 13 -195 0z"></path><path d="M12408 1583 c6 -2 18 -2 25 0 6 3 1 5 -13 5 -14 0 -19 -2 -12 -5z"></path><path d="M12510 1580 c0 -5 11 -10 25 -10 14 0 25 5 25 10 0 6 -11 10 -25 10 -14 0 -25 -4 -25 -10z"></path><path d="M4310 1570 c0 -5 14 -10 31 -10 17 0 28 4 24 10 -3 6 -17 10 -31 10 -13 0 -24 -4 -24 -10z"></path><path d="M8865 1570 c-4 -6 24 -10 77 -10 57 0 78 3 68 10 -20 13 -137 13 -145 0z"></path><path d="M12762 1573 c-39 -8 -13 -23 39 -23 37 0 49 4 49 15 0 15 -35 18 -88 8z"></path><path d="M13065 1570 c-4 -6 22 -10 69 -10 44 0 76 4 76 10 0 6 -30 10 -69 10 -39 0 -73 -4 -76 -10z"></path><path d="M9523 1553 c-13 -2 -23 -9 -23 -15 0 -6 10 -8 23 -4 12 3 32 6 45 6 12 0 22 5 22 10 0 10 -25 11 -67 3z"></path><path d="M8770 1540 c-232 -7 -340 -17 -340 -31 0 -16 71 -23 235 -22 139 1 157 -1 100 -8 -87 -10 -235 -37 -216 -38 77 -6 -213 -41 -337 -41 -55 0 -73 -3 -70 -12 5 -15 67 -24 253 -38 72 -5 207 -16 300 -24 216 -20 606 -20 1020 -1 176 8 332 15 348 15 15 0 27 4 27 8 0 5 -69 12 -152 15 -185 8 -342 24 -423 43 -34 8 -115 14 -180 15 -66 0 -136 5 -155 10 -112 29 -213 49 -251 49 -24 0 -49 4 -56 8 -6 4 122 6 285 4 297 -4 482 3 482 17 0 5 -51 11 -114 15 -62 4 -140 11 -172 16 -63 11 -227 10 -584 0z"></path><path d="M9680 1545 c0 -4 7 -13 15 -22 12 -12 19 -12 30 -3 8 6 23 9 36 5 15 -5 20 -3 17 6 -5 14 -98 27 -98 14z"></path><path d="M12400 1540 c0 -6 27 -10 60 -10 33 0 60 4 60 10 0 6 -27 10 -60 10 -33 0 -60 -4 -60 -10z"></path><path d="M12025 1530 c-66 -13 -236 -30 -295 -30 -31 0 -62 6 -69 13 -11 10 -13 9 -8 -5 5 -14 1 -18 -19 -18 -14 0 -23 4 -20 9 7 11 -153 2 -174 -10 -13 -7 106 -15 190 -12 24 1 199 -10 445 -27 66 -4 163 -4 215 0 52 5 173 12 268 16 94 3 172 10 172 14 0 4 -46 10 -102 13 -158 9 -329 26 -368 37 -41 11 -177 11 -235 0z"></path><path d="M3788 1513 c-77 -6 -56 -24 24 -21 46 2 73 7 76 16 4 12 -1 13 -100 5z"></path><path d="M9713 1494 c-7 -19 0 -26 21 -18 20 8 21 20 1 28 -9 3 -18 -1 -22 -10z"></path><path d="M2691 1491 c-8 -5 -9 -11 -3 -15 13 -8 42 3 42 15 0 11 -21 11 -39 0z"></path><path d="M3103 1483 c-24 -2 -43 -8 -43 -12 0 -13 54 -21 136 -21 56 0 74 3 74 14 0 13 -70 28 -109 24 -9 -1 -35 -3 -58 -5z"></path><path d="M11130 1480 c0 -5 7 -10 15 -10 8 0 15 5 15 10 0 6 -7 10 -15 10 -8 0 -15 -4 -15 -10z"></path><path d="M11315 1480 c-4 -6 8 -10 30 -10 20 0 34 -4 31 -9 -8 -13 -137 -21 -358 -24 -173 -2 -211 -7 -195 -23 3 -3 93 -8 200 -10 107 -2 214 -8 238 -13 24 -6 89 -11 144 -11 129 0 445 21 440 30 -2 4 -60 10 -127 13 -68 4 -152 14 -188 23 -36 9 -82 18 -103 21 -20 3 -40 9 -43 14 -7 12 -61 11 -69 -1z"></path><path d="M9952 1470 c-57 -13 -48 -20 26 -20 68 0 99 11 66 24 -20 7 -49 6 -92 -4z"></path><path d="M9380 1457 l-35 -11 40 -4 c55 -5 165 8 165 19 0 13 -127 10 -170 -4z"></path><path d="M10218 1441 c-121 -6 -150 -12 -134 -28 10 -10 453 -10 462 0 16 16 -16 25 -106 30 -52 2 -152 2 -222 -2z"></path><path d="M11865 1400 c3 -5 22 -10 41 -10 19 0 34 5 34 10 0 6 -18 10 -41 10 -24 0 -38 -4 -34 -10z"></path><path d="M6400 1337 c-53 -6 -100 -16 -108 -24 -11 -11 -8 -13 21 -13 47 0 98 -11 92 -20 -2 -4 17 -5 43 -4 26 2 125 9 221 14 96 6 177 13 180 15 11 11 -13 16 -135 30 -143 16 -177 16 -314 2z"></path><path d="M8620 1300 c0 -5 7 -10 15 -10 8 0 15 5 15 10 0 6 -7 10 -15 10 -8 0 -15 -4 -15 -10z"></path><path d="M6840 1270 c0 -5 12 -10 26 -10 14 0 23 4 19 10 -3 6 -15 10 -26 10 -10 0 -19 -4 -19 -10z"></path><path d="M5590 1250 c-65 -18 -215 -42 -290 -47 -41 -3 -77 -8 -80 -12 -3 -5 -30 -11 -60 -14 -31 -4 -49 -3 -42 2 18 11 -7 21 -53 21 -18 0 -68 7 -111 16 -81 17 -137 16 -370 -5 -55 -6 -129 -11 -165 -12 -35 -1 -73 -5 -84 -9 -50 -18 49 -23 390 -23 198 1 347 -2 330 -6 -47 -10 -17 -19 101 -31 60 -6 141 -15 179 -20 94 -13 282 -12 445 1 152 12 206 28 96 29 -38 0 -67 2 -64 5 7 8 327 26 511 30 92 1 171 5 174 9 16 16 -21 21 -195 28 -103 4 -223 14 -267 23 -95 18 -395 29 -445 15z m-112 -67 c-10 -2 -26 -2 -35 0 -10 3 -2 5 17 5 19 0 27 -2 18 -5z"></path><path d="M7266 1205 c-17 -13 -18 -15 -2 -21 20 -8 29 -1 24 20 -3 13 -6 13 -22 1z"></path><path d="M6668 1173 c-32 -2 -58 -8 -58 -12 0 -14 107 -24 230 -22 105 2 146 10 123 24 -12 8 -228 15 -295 10z"></path><path d="M6330 1150 c0 -5 9 -10 20 -10 11 0 20 5 20 10 0 6 -9 10 -20 10 -11 0 -20 -4 -20 -10z"></path></g></g></svg>