<svg xmlns="http://www.w3.org/2000/svg" viewBox="125.58 121.83 1334.79 728.39" preserveAspectRatio="xMidYMax meet" class="pointer-events-none text-slate-900" style="width: 92%; height: 92%;"><g><g transform="translate(0.000000,1024.000000) scale(0.100000,-0.100000)" fill="currentColor" stroke="none"><path d="M5886 8988 c-2 -7 -10 -34 -16 -60 -21 -82 -91 -186 -182 -274 -47 -45 -94 -87 -105 -92 -20 -11 -20 -11 0 49 10 33 16 63 13 67 -4 3 -32 -19 -64 -49 -83 -80 -113 -100 -271 -178 l-142 -71 32 43 c57 74 102 117 169 159 74 48 140 106 140 125 0 18 -14 16 -58 -6 -20 -10 -100 -37 -177 -60 -164 -50 -272 -101 -372 -177 -63 -47 -81 -50 -53 -9 18 27 39 95 30 100 -6 3 -31 -17 -57 -46 -27 -28 -88 -86 -138 -127 -49 -42 -96 -82 -103 -89 -26 -25 -21 -12 12 35 73 102 124 259 133 410 5 95 4 112 -9 112 -14 0 -38 -39 -38 -62 0 -23 -86 -136 -154 -203 -39 -39 -118 -102 -176 -140 -58 -39 -145 -109 -194 -158 -119 -117 -119 -117 -85 -53 42 77 59 153 58 259 0 138 -34 216 -51 118 -9 -53 -57 -149 -109 -216 -59 -77 -203 -217 -184 -179 18 37 31 124 19 124 -5 0 -35 -29 -68 -65 -60 -68 -125 -120 -209 -169 -26 -15 -72 -47 -102 -71 l-54 -44 28 63 c25 54 60 113 96 162 24 33 -10 22 -70 -22 -37 -27 -88 -62 -114 -79 -83 -54 -111 -78 -148 -132 -39 -57 -50 -63 -33 -19 20 53 -2 46 -62 -19 -33 -36 -80 -79 -104 -95 -38 -27 -42 -28 -39 -11 6 32 25 64 63 103 20 21 32 41 29 45 -10 9 -110 -40 -171 -85 -26 -19 -66 -58 -88 -86 -22 -28 -63 -69 -92 -92 l-52 -41 18 51 c19 55 23 86 11 86 -5 -1 -26 -24 -48 -52 -47 -59 -135 -137 -162 -143 -10 -2 -66 -26 -124 -53 -121 -57 -192 -119 -209 -182 -12 -46 -23 -55 -80 -70 -25 -6 -69 -20 -98 -31 -29 -10 -72 -19 -95 -19 -53 0 -181 -24 -227 -43 -19 -8 -73 -18 -119 -22 -95 -8 -126 -17 -158 -47 -30 -28 -29 -53 7 -113 16 -27 30 -58 30 -68 0 -10 11 -29 25 -43 14 -14 25 -34 25 -45 0 -27 72 -103 120 -127 35 -17 40 -17 43 -3 3 9 5 2 6 -14 1 -36 45 -105 66 -105 17 0 20 32 6 58 -17 34 -22 72 -8 67 7 -3 18 -28 25 -57 6 -28 24 -66 38 -85 27 -35 79 -73 102 -73 14 0 16 42 3 56 -6 5 -13 28 -17 52 -7 46 4 54 40 27 11 -8 26 -15 33 -15 23 0 14 37 -14 55 -23 15 -24 19 -10 27 11 6 26 4 46 -7 38 -19 41 -19 41 4 0 25 10 28 133 42 97 11 109 10 174 -10 94 -29 165 -78 190 -133 29 -61 10 -100 -67 -140 -75 -38 -112 -71 -136 -123 -13 -30 -24 -61 -24 -70 0 -9 -13 -29 -29 -45 -33 -33 -57 -31 -96 8 -31 31 -48 20 -37 -23 5 -17 5 -47 2 -67 -5 -24 -3 -39 4 -42 6 -2 4 -5 -4 -5 -20 -1 -110 77 -110 95 0 20 -28 17 -32 -3 -2 -10 -1 -27 3 -38 4 -11 10 -32 13 -47 3 -14 17 -40 31 -57 14 -16 25 -40 24 -53 -4 -50 2 -67 30 -84 19 -11 31 -28 35 -49 10 -50 86 -110 154 -120 15 -3 45 -9 67 -14 89 -23 137 -5 80 30 l-25 15 50 38 c27 21 50 42 50 46 0 14 61 30 109 30 25 -1 64 -7 86 -15 50 -18 55 -18 55 -2 0 14 -44 58 -74 74 -16 9 -10 13 40 28 53 15 125 16 185 3 6 -2 14 3 16 10 3 6 -3 12 -14 13 -10 0 -13 3 -6 6 20 8 108 -26 153 -58 54 -39 73 -27 40 27 l-23 37 26 -18 c15 -9 24 -22 20 -28 -3 -5 -1 -7 4 -4 13 8 46 -27 36 -38 -5 -4 -3 -5 4 -1 7 4 21 -14 38 -49 15 -30 31 -52 36 -49 12 7 11 97 -2 131 -13 35 -3 24 46 -52 42 -64 84 -159 85 -188 0 -35 25 -10 31 31 3 23 8 44 11 48 3 3 16 -21 28 -53 18 -48 21 -70 16 -127 -4 -38 -9 -80 -12 -93 -4 -13 -2 -23 4 -23 9 0 23 20 79 106 10 16 12 4 12 -66 1 -101 -28 -196 -79 -260 -19 -24 -29 -45 -24 -50 13 -13 126 43 174 86 23 21 55 61 71 89 16 27 29 46 30 40 0 -5 0 -43 -1 -82 -1 -59 2 -73 14 -73 8 0 16 6 19 13 2 6 8 -13 12 -43 9 -67 40 -140 93 -217 81 -119 136 -145 108 -53 -19 64 -25 260 -8 260 4 0 14 -20 21 -45 20 -68 75 -177 122 -245 64 -89 68 -85 44 50 -22 124 -18 135 17 45 66 -170 162 -322 251 -397 92 -78 199 -144 217 -133 4 3 -6 30 -24 59 -18 30 -40 78 -49 108 -18 58 -29 143 -20 152 3 3 17 -16 31 -42 13 -26 42 -70 64 -99 44 -58 228 -236 236 -228 5 4 -20 98 -38 143 -5 12 -8 22 -6 22 2 0 43 -54 90 -120 71 -98 102 -131 169 -181 93 -70 169 -109 175 -90 3 8 10 4 19 -9 8 -12 13 -23 11 -26 -11 -10 -210 98 -247 135 -22 22 -42 37 -44 33 -3 -4 -10 -32 -17 -62 -60 -262 -223 -567 -493 -923 -57 -75 -127 -152 -191 -209 -181 -163 -192 -175 -234 -256 -43 -82 -103 -149 -202 -223 -68 -51 -110 -73 -181 -93 -31 -9 -64 -23 -75 -31 -21 -16 -100 -20 -108 -6 -6 10 -83 -4 -101 -18 -22 -17 -57 -19 -95 -4 -33 13 -46 14 -85 3 -25 -7 -48 -17 -51 -21 -3 -5 -44 -36 -93 -69 -48 -33 -94 -72 -102 -87 -7 -16 -28 -46 -46 -67 -18 -22 -36 -54 -39 -73 -3 -18 -9 -33 -13 -33 -4 0 -4 -21 -1 -47 4 -39 9 -49 26 -51 14 -2 23 3 26 16 3 10 21 31 41 46 34 26 37 27 59 12 12 -9 37 -16 55 -16 32 0 33 -1 33 -45 0 -34 5 -47 20 -55 16 -9 23 -5 41 19 12 16 36 37 55 47 27 15 37 16 59 6 17 -8 45 -10 75 -6 48 6 48 6 52 -22 3 -25 7 -29 33 -29 17 0 51 -9 78 -19 61 -24 142 -17 229 20 58 25 74 27 208 28 131 1 150 3 193 25 68 33 113 85 138 158 17 51 33 76 92 135 40 40 89 82 110 93 38 20 39 20 53 1 18 -25 18 -54 -1 -90 -19 -36 -19 -46 0 -46 28 0 95 72 128 139 27 54 34 81 36 136 3 107 32 150 126 194 35 17 81 50 109 80 52 52 55 73 10 52 -44 -19 -38 -6 18 41 102 85 175 137 276 193 102 57 121 82 54 72 -19 -4 -33 -4 -30 -2 2 3 84 38 182 79 97 41 188 82 202 91 27 17 24 36 -4 30 -9 -1 -39 -6 -66 -9 -27 -4 -54 -9 -60 -12 -6 -3 -2 2 9 11 11 9 78 46 149 81 148 75 236 131 236 150 0 13 -17 13 -125 -1 -26 -3 -24 -1 15 17 25 11 74 33 110 48 40 17 66 34 68 45 4 16 -1 17 -43 10 -26 -3 -55 -9 -64 -11 -11 -4 -11 -1 3 8 106 72 206 187 206 237 0 19 6 21 56 21 61 0 70 16 18 33 -66 22 -60 32 22 37 l79 5 -2 42 c-5 85 -70 162 -143 168 -39 3 -107 45 -155 96 l-40 42 65 -45 c70 -49 131 -82 170 -91 14 -4 47 -24 74 -44 56 -44 56 -42 58 -248 2 -195 -42 -401 -157 -735 -77 -224 -119 -309 -194 -395 -64 -74 -96 -140 -111 -232 -12 -71 -30 -101 -98 -164 -67 -62 -246 -171 -327 -200 -65 -23 -152 -25 -202 -4 -40 17 -90 19 -126 6 -13 -5 -54 -33 -92 -61 -37 -29 -88 -59 -113 -66 -50 -15 -112 -58 -112 -77 0 -7 -18 -30 -39 -51 -61 -60 -88 -133 -82 -229 2 -33 30 -31 67 7 19 20 48 43 64 51 27 14 32 14 56 -1 17 -11 47 -18 87 -18 l62 -1 -3 -66 c-6 -105 25 -139 70 -77 46 66 56 73 101 69 68 -6 198 -4 253 4 l51 7 5 -52 c3 -30 12 -59 22 -68 19 -18 17 -20 84 67 21 28 27 30 65 25 29 -4 66 1 115 15 61 19 87 21 179 16 131 -7 195 4 260 44 60 37 92 91 123 209 20 74 36 106 89 179 9 12 21 23 28 23 29 0 44 -81 22 -122 -7 -13 -7 -24 -1 -30 19 -19 62 24 99 100 41 82 43 101 33 302 -5 101 3 121 88 210 47 48 142 186 142 205 0 12 -24 3 -54 -20 -18 -14 -36 -25 -39 -25 -4 0 21 39 55 88 68 97 146 183 196 213 42 27 41 42 -2 37 -19 -2 -33 0 -30 4 3 4 44 33 92 64 48 31 111 73 139 92 29 18 50 38 47 43 -8 13 -54 11 -110 -6 l-49 -14 25 20 c188 151 290 245 290 266 0 17 -4 17 -88 -11 l-72 -23 80 83 c43 45 109 122 145 171 91 123 87 142 -13 75 -31 -21 -75 -49 -97 -62 l-40 -24 36 40 c64 72 160 236 147 250 -4 3 -21 -4 -38 -16 -42 -30 -46 -22 -10 17 17 18 30 34 30 37 0 3 15 27 34 54 32 44 86 142 86 156 0 3 -5 6 -12 6 -30 0 -140 64 -200 117 -67 58 -77 69 -113 128 -22 36 -17 31 64 -63 65 -74 153 -135 246 -170 l44 -16 -43 -82 -44 -83 26 -5 c15 -3 54 -6 87 -8 47 -2 59 0 57 11 -2 10 3 12 20 6 66 -20 190 -36 253 -31 108 9 125 12 143 30 15 15 13 16 -28 16 -49 0 -126 33 -175 74 -34 29 -33 30 15 16 31 -9 61 -13 185 -25 22 -2 67 -7 101 -11 66 -7 166 9 199 32 18 13 18 14 -10 15 -70 2 -128 21 -152 51 -9 11 4 12 74 10 109 -4 133 1 133 32 0 13 7 29 15 36 8 7 13 16 10 20 -9 15 39 44 161 99 65 30 138 63 161 73 23 10 54 21 70 24 15 2 50 9 76 15 65 15 237 3 315 -22 56 -18 29 -20 -44 -3 -79 18 -291 17 -315 -2 -8 -6 -34 -14 -58 -18 -24 -4 -56 -15 -70 -25 -14 -10 -37 -22 -51 -26 -81 -24 -197 -83 -220 -113 -27 -33 -39 -81 -45 -180 -16 -252 59 -420 289 -640 103 -98 194 -165 362 -265 237 -142 291 -270 199 -470 -48 -105 -198 -281 -330 -386 -70 -56 -98 -72 -185 -101 -64 -22 -66 -22 -132 -5 -54 14 -73 15 -101 6 -21 -7 -56 -9 -84 -5 -60 8 -98 -7 -173 -67 -30 -24 -77 -54 -104 -68 -28 -14 -53 -35 -60 -50 -6 -14 -23 -44 -38 -66 -49 -73 -63 -185 -22 -185 8 0 27 14 41 30 37 45 56 52 90 35 15 -8 46 -15 68 -15 l40 0 -3 -49 c-5 -66 16 -74 69 -26 46 41 51 42 88 14 43 -32 98 -35 185 -9 82 25 78 25 186 -15 82 -31 214 -9 283 45 66 52 177 72 191 34 10 -25 63 -16 101 17 46 41 64 76 76 150 11 67 59 156 112 207 l35 34 16 -23 c18 -27 21 -62 6 -89 -16 -29 6 -34 40 -10 16 12 42 42 57 68 27 46 30 65 33 213 0 31 64 111 137 171 44 37 99 95 133 143 31 44 76 100 100 125 47 49 79 111 80 151 0 14 -13 45 -28 70 -22 34 -44 52 -98 79 -88 45 -137 89 -154 139 -8 26 -25 49 -46 63 -74 50 -129 164 -128 264 1 85 55 192 137 274 34 33 65 60 69 60 21 0 4 35 -32 67 -47 42 -191 232 -241 317 -19 32 -40 60 -46 63 -7 3 -13 11 -13 18 0 8 -4 16 -9 19 -5 3 -3 -13 4 -37 6 -23 15 -61 18 -85 l5 -44 -21 19 c-12 10 -46 41 -75 68 -64 60 -129 105 -152 105 -10 0 -28 8 -41 19 -13 10 -42 28 -64 39 -52 28 -32 28 42 0 79 -30 147 -74 215 -142 53 -52 78 -68 78 -48 0 20 -33 119 -47 141 l-16 24 31 -21 c34 -25 123 -125 141 -160 7 -12 9 -28 5 -34 -4 -6 -3 -8 4 -5 5 4 22 -13 36 -38 59 -101 198 -258 339 -384 21 -18 52 -61 69 -95 46 -92 84 -144 162 -222 108 -108 272 -194 461 -242 201 -52 402 -98 515 -117 83 -14 130 -30 215 -70 87 -42 165 -107 235 -198 12 -15 27 -27 35 -27 74 0 275 -490 275 -671 0 -48 -5 -64 -32 -105 -46 -67 -55 -70 -131 -55 -64 13 -66 12 -111 -14 -25 -15 -71 -56 -102 -91 -31 -35 -68 -70 -82 -77 -35 -16 -89 -88 -102 -135 -5 -20 -10 -62 -10 -93 0 -80 19 -85 80 -19 25 27 52 50 59 50 6 0 25 -9 40 -21 23 -17 40 -20 90 -17 l61 3 0 -43 c0 -48 14 -82 33 -82 7 0 26 18 43 39 16 22 38 44 49 49 11 4 58 7 105 4 146 -7 164 -7 208 1 l42 7 0 -38 c0 -41 23 -82 46 -82 8 0 22 16 29 35 22 51 45 59 162 57 103 -2 209 15 263 43 15 8 39 28 54 45 22 27 26 41 26 95 0 110 -25 200 -95 340 -35 72 -66 141 -67 155 -2 14 -16 48 -31 75 -15 28 -35 66 -43 85 -9 19 -31 69 -49 110 -34 78 -78 215 -95 297 -17 82 -20 93 -34 131 -8 20 -26 78 -41 127 -14 50 -30 102 -35 118 -6 19 -6 27 3 27 8 0 8 3 2 8 -6 4 -15 31 -21 60 -8 42 -8 52 3 52 7 0 14 -6 14 -12 9 -87 20 -152 29 -169 6 -10 10 -27 10 -38 0 -31 198 -196 215 -179 3 3 -7 27 -21 54 l-27 49 64 -64 c134 -134 230 -193 356 -217 94 -18 143 -18 143 -1 0 7 -18 21 -40 31 -57 25 -129 85 -168 140 l-34 47 69 -52 c78 -58 218 -129 255 -129 14 0 70 -14 124 -31 91 -28 107 -30 199 -26 99 5 216 33 219 52 0 6 -28 13 -64 16 -71 7 -101 15 -173 49 -48 23 -75 47 -41 37 82 -24 125 -30 241 -32 172 -3 279 19 409 84 71 35 124 77 124 97 0 17 0 17 -36 0 -54 -26 -165 -39 -260 -30 -49 4 -78 9 -64 11 72 10 203 51 260 81 81 42 105 62 88 74 -10 5 -8 8 5 8 38 0 166 72 239 134 97 83 198 221 163 222 -5 0 -37 -17 -69 -38 -47 -30 -165 -78 -193 -78 -2 0 17 16 44 36 97 71 233 241 233 289 0 8 4 16 9 19 12 8 35 125 26 134 -4 4 -12 -1 -19 -11 -46 -74 -127 -165 -147 -167 -3 0 8 28 24 62 44 90 63 178 66 304 3 129 -19 233 -70 319 -34 58 -77 110 -86 102 -3 -3 1 -36 8 -72 23 -116 -11 -244 -95 -360 -37 -52 -42 -48 -26 19 5 22 7 43 4 48 -7 10 -44 -14 -44 -29 0 -17 -95 -112 -161 -160 -30 -22 -82 -54 -115 -71 -59 -30 -216 -81 -180 -59 75 46 142 137 175 235 21 60 28 142 14 142 -5 0 -23 -23 -42 -51 -62 -91 -175 -164 -339 -219 -87 -29 -268 -54 -212 -29 117 51 165 91 94 79 -16 -3 -114 -5 -219 -5 -211 0 -249 7 -420 73 l-94 37 136 0 c91 0 137 4 140 11 2 7 -37 21 -99 36 -138 34 -213 71 -398 196 -85 57 -159 108 -163 112 -5 5 20 2 55 -5 133 -28 265 -28 275 0 2 6 -27 21 -64 34 -105 36 -219 110 -303 197 -157 161 -197 197 -282 247 -48 28 -85 53 -83 55 1 2 38 -1 80 -7 95 -14 145 -14 145 -1 0 5 -31 25 -69 45 -115 57 -238 133 -325 200 -45 34 -93 68 -105 74 -12 7 -21 14 -19 16 6 6 110 -20 134 -33 28 -15 37 -5 16 17 -39 40 -150 128 -192 152 -38 22 -154 73 -210 92 -8 3 11 6 42 6 31 1 67 -3 80 -8 88 -32 104 -15 36 38 -71 54 -181 101 -321 136 -127 31 -130 33 -92 41 22 4 54 8 70 8 63 2 36 22 -75 57 -63 20 -149 44 -190 54 -115 27 -119 37 -12 32 50 -3 92 -2 92 1 0 15 -116 80 -181 101 -47 15 -69 20 -154 31 -83 11 -175 30 -193 39 -7 4 7 14 37 25 88 31 190 140 114 121 -60 -15 -202 -26 -263 -20 -80 8 -130 22 -240 68 -119 49 -231 84 -330 102 -90 16 -398 52 -515 60 -100 6 -376 41 -408 51 -14 4 -7 11 30 30 51 26 113 77 113 94 0 13 -3 13 -75 -4 -33 -8 -87 -18 -120 -21 -64 -7 -256 8 -357 29 l-61 12 63 24 c80 30 243 151 222 164 -6 3 -48 -3 -94 -14 -118 -28 -251 -36 -345 -20 -81 14 -81 17 10 41 34 10 47 18 47 31 0 16 -12 18 -120 18 -65 0 -154 5 -197 12 l-78 11 80 27 c120 41 206 92 307 185 53 48 102 121 88 130 -5 3 -32 -6 -60 -20 -54 -27 -204 -55 -300 -55 -60 0 -149 13 -259 36 l-35 7 50 16 c105 34 99 48 -20 43 -74 -3 -110 1 -168 17 -41 12 -109 24 -153 28 l-79 6 91 33 c49 18 128 38 174 44 97 13 172 37 166 54 -2 6 -28 14 -58 18 -30 3 -87 15 -128 26 -83 22 -192 27 -266 13 l-49 -9 24 19 c14 10 35 19 47 19 12 0 24 4 27 9 3 4 26 14 51 21 28 8 45 18 45 28 0 13 -32 14 -252 8 l-253 -7 75 26 c41 15 79 30 85 35 6 5 37 18 70 31 106 39 225 116 225 146 0 10 -6 13 -16 9 -10 -4 -58 -14 -108 -22 -101 -18 -163 -15 -308 16 -145 31 -293 24 -400 -19 -44 -17 -33 -4 20 24 119 63 180 101 178 110 0 6 -38 10 -91 9 -103 -1 -152 -14 -295 -82 -121 -57 -120 -56 -90 -35 25 18 64 56 155 152 68 72 179 146 289 191 131 54 166 72 166 87 0 16 -2 16 -212 -2 -205 -18 -324 -42 -456 -91 -115 -43 -178 -74 -252 -124 -80 -53 -88 -56 -59 -24 74 83 175 284 143 284 -3 0 -26 -22 -51 -50 -57 -63 -256 -206 -228 -164 68 104 105 207 112 317 5 75 -9 180 -29 220 -10 20 -27 22 -32 5z m-1046 -718 c-42 -36 -115 -85 -97 -64 11 13 131 102 137 103 3 0 -15 -17 -40 -39z m-124 -85 c-11 -8 -25 -15 -30 -15 -6 1 0 7 14 15 32 19 40 18 16 0z m1099 -55 c-11 -5 -33 -8 -50 -8 -29 1 -29 1 5 8 49 10 69 10 45 0z m-634 -80 c-24 -22 -49 -40 -55 -40 -6 0 -2 7 8 15 30 23 13 28 -49 15 -31 -6 -59 -10 -61 -7 -2 2 31 12 73 21 43 9 85 21 93 26 36 23 31 6 -9 -30z m-1122 -134 c-21 -58 -64 -136 -74 -136 -3 0 10 28 29 63 29 53 56 140 56 179 0 6 -10 8 -22 5 -22 -6 -22 -6 2 13 l25 19 3 -41 c2 -25 -5 -66 -19 -102z m929 107 c-10 -2 -26 -2 -35 0 -10 3 -2 5 17 5 19 0 27 -2 18 -5z m-1009 -32 c-44 -28 -178 -83 -364 -150 -150 -55 -297 -144 -326 -198 -7 -13 -33 -40 -58 -61 l-46 -37 45 53 c25 30 61 71 81 91 61 63 210 138 399 200 69 23 163 61 210 85 98 51 126 59 59 17z m944 22 c-7 -2 -19 -2 -25 0 -7 3 -2 5 12 5 14 0 19 -2 13 -5z m-56 -9 c-3 -3 -12 -4 -19 -1 -8 3 -5 6 6 6 11 1 17 -2 13 -5z m-50 -20 c-3 -3 -12 -4 -19 -1 -8 3 -5 6 6 6 11 1 17 -2 13 -5z m283 -3 c0 -6 -27 -27 -60 -48 -33 -21 -60 -43 -60 -48 0 -6 -10 -11 -21 -12 -12 -1 -20 0 -18 2 19 18 131 95 139 95 6 0 10 5 10 10 0 6 2 10 5 10 3 0 5 -4 5 -9z m-510 -75 c0 -2 -7 -7 -16 -10 -8 -3 -12 -2 -9 4 6 10 25 14 25 6z m758 -38 c114 -17 153 -20 192 -12 54 11 67 2 23 -15 -16 -5 -55 -22 -88 -36 -33 -14 -85 -35 -115 -47 -30 -11 -59 -24 -64 -29 -6 -5 -21 -9 -35 -8 -17 0 9 14 69 38 52 21 111 46 130 56 l35 19 -105 18 c-58 10 -172 22 -255 27 l-150 8 110 1 c71 2 161 -6 253 -20z m1367 -8 c-3 -5 -18 -9 -33 -9 l-27 1 30 8 c17 4 31 8 33 9 2 0 0 -3 -3 -9z m-68 -16 c-3 -3 -12 -4 -19 -1 -8 3 -5 6 6 6 11 1 17 -2 13 -5z m-2857 -78 c-25 -13 -56 -26 -70 -30 -14 -3 2 7 35 23 71 35 100 40 35 7z m188 -70 c-23 -45 -63 -105 -71 -106 -4 0 -30 -11 -59 -25 -67 -32 -71 -31 -22 4 21 17 52 46 67 66 16 19 33 33 38 29 5 -3 8 -2 7 3 -1 4 6 23 17 40 21 36 42 25 23 -11z m-293 24 c-3 -5 -11 -10 -16 -10 -6 0 -7 5 -4 10 3 6 11 10 16 10 6 0 7 -4 4 -10z m-50 -26 c-11 -8 -38 -31 -59 -52 -22 -20 -35 -30 -30 -22 5 8 9 19 9 23 0 4 20 21 44 37 45 31 72 41 36 14z m1775 -24 c8 -5 11 -10 5 -10 -5 0 -17 5 -25 10 -8 5 -10 10 -5 10 6 0 17 -5 25 -10z m797 -33 c35 -17 61 -32 59 -34 -1 -2 -41 15 -87 37 -46 23 -73 38 -59 34 14 -3 53 -20 87 -37z m-692 -17 c46 -26 63 -40 48 -40 -12 0 -23 4 -25 10 -1 5 -28 23 -58 39 -30 17 -50 31 -45 31 6 0 42 -18 80 -40z m-2715 10 c-8 -5 -22 -9 -30 -9 -10 0 -8 3 5 9 27 12 43 12 25 0z m67 4 c-3 -3 -12 -4 -19 -1 -8 3 -5 6 6 6 11 1 17 -2 13 -5z m657 -59 c-4 -8 -11 -12 -16 -9 -6 4 -5 10 3 15 19 12 19 11 13 -6z m3103 9 c-3 -3 -12 -4 -19 -1 -8 3 -5 6 6 6 11 1 17 -2 13 -5z m103 -26 c36 -12 60 -23 55 -25 -6 -1 -39 8 -75 22 -81 30 -66 33 20 3z m-2835 0 c-3 -7 -19 -22 -35 -33 -17 -11 -30 -25 -30 -32 0 -11 -69 -37 -78 -29 -7 8 38 27 48 21 6 -4 9 -1 8 6 -2 6 16 27 40 45 48 37 54 40 47 22z m1545 2 c18 -12 2 -12 -25 0 -13 6 -15 9 -5 9 8 0 22 -4 30 -9z m1728 3 c-10 -2 -26 -2 -35 0 -10 3 -2 5 17 5 19 0 27 -2 18 -5z m-3690 -49 c-18 -18 -34 -34 -36 -34 -9 0 32 49 44 54 9 3 12 11 8 17 -4 8 -3 9 5 5 8 -6 2 -18 -21 -42z m3739 40 c-3 -3 -12 -4 -19 -1 -8 3 -5 6 6 6 11 1 17 -2 13 -5z m50 -10 c-3 -3 -12 -4 -19 -1 -8 3 -5 6 6 6 11 1 17 -2 13 -5z m-2509 -11 c-15 -2 -42 -2 -60 0 -18 2 -6 4 27 4 33 0 48 -2 33 -4z m762 -3 c8 -5 11 -10 5 -10 -5 0 -17 5 -25 10 -8 5 -10 10 -5 10 6 0 17 -5 25 -10z m-693 -6 c-3 -3 -12 -4 -19 -1 -8 3 -5 6 6 6 11 1 17 -2 13 -5z m-2348 -20 c9 -8 -75 -2 -94 6 -12 5 1 6 35 3 30 -3 57 -7 59 -9z m2394 9 c-7 -2 -19 -2 -25 0 -7 3 -2 5 12 5 14 0 19 -2 13 -5z m770 -40 c32 -19 56 -38 53 -41 -3 -3 -14 2 -24 11 -10 9 -43 28 -75 41 -31 14 -57 28 -57 32 0 10 45 -8 103 -43z m1292 6 l80 -28 -70 0 c-45 0 -63 3 -50 8 17 7 14 11 -27 31 -45 21 -69 41 -30 25 9 -4 53 -20 97 -36z m-4676 1 c-20 -10 -50 -35 -67 -55 -18 -20 -32 -32 -32 -27 0 20 101 102 125 101 6 0 -6 -8 -26 -19z m2722 4 c53 -17 67 -29 22 -18 -33 8 -92 33 -80 34 5 0 30 -7 58 -16z m-1136 -49 c-27 -25 -59 -44 -70 -44 -17 1 -17 2 -2 6 9 2 14 9 11 15 -4 6 -2 8 4 4 5 -3 12 -3 14 1 4 9 80 63 88 63 3 -1 -17 -21 -45 -45z m3204 -94 c47 -23 87 -43 89 -46 13 -13 -63 6 -78 20 -9 8 -56 33 -104 54 -48 21 -90 41 -93 45 -13 13 106 -33 186 -73z m-1364 2 c55 -20 155 -77 155 -88 0 -5 -56 9 -60 15 -3 4 -50 31 -105 59 -105 54 -104 55 10 14z m-1915 12 c-7 -8 -28 -17 -49 -20 -20 -4 -47 -8 -61 -11 -22 -4 -23 -3 -7 7 10 6 36 12 59 15 23 2 46 8 52 14 15 15 20 12 6 -5z m1278 -22 c-10 -2 -26 -2 -35 0 -10 3 -2 5 17 5 19 0 27 -2 18 -5z m-1761 -9 c-3 -3 -12 -4 -19 -1 -8 3 -5 6 6 6 11 1 17 -2 13 -5z m1848 -8 c56 -15 165 -62 165 -71 0 -3 -17 2 -37 11 -21 9 -74 29 -118 44 -86 31 -91 38 -10 16z m1046 -3 c13 -16 12 -17 -3 -4 -10 7 -18 15 -18 17 0 8 8 3 21 -13z m-3767 -25 l45 -21 -52 -24 c-89 -41 -162 -17 -124 41 22 33 69 35 131 4z m941 4 c-3 -3 -11 0 -18 7 -9 10 -8 11 6 5 10 -3 15 -9 12 -12z m315 -7 c-7 -8 -21 -15 -30 -15 -10 0 -20 -5 -22 -10 -2 -6 -21 -13 -43 -16 -36 -5 -32 -2 30 25 83 35 81 35 65 16z m2568 -30 c-3 -3 -13 7 -23 22 l-17 28 23 -22 c12 -12 20 -25 17 -28z m1023 -114 c24 -13 38 -26 31 -29 -7 -2 -25 4 -40 14 -15 10 -47 29 -72 41 -25 13 -78 40 -118 61 -40 20 -71 40 -68 43 5 5 147 -65 267 -130z m-3786 119 c13 -5 14 -9 5 -9 -8 0 -24 4 -35 9 -13 5 -14 9 -5 9 8 0 24 -4 35 -9z m2398 -115 c110 -113 168 -159 271 -213 27 -14 -85 -24 -139 -13 -35 8 -32 9 28 7 37 -2 67 1 67 6 0 5 -31 28 -68 52 -63 41 -312 286 -290 286 5 0 63 -56 131 -125z m-2346 99 c-3 -3 -12 -4 -19 -1 -8 3 -5 6 6 6 11 1 17 -2 13 -5z m3983 -41 c55 -25 99 -48 97 -50 -5 -5 -140 53 -180 77 -52 32 -23 23 83 -27z m-3747 30 c-13 -2 -35 -2 -50 0 -16 2 -5 4 22 4 28 0 40 -2 28 -4z m2612 -116 c6 -6 -3 -1 -20 11 -16 11 -48 40 -70 63 -34 37 -31 35 20 -11 33 -29 65 -58 70 -63z m-2440 72 c31 -12 54 -23 52 -26 -3 -2 -14 0 -26 6 -11 6 -44 18 -73 25 -29 8 -43 15 -31 15 12 1 47 -8 78 -20z m-1754 -16 c13 -17 13 -17 -6 -3 -11 8 -22 16 -24 17 -2 2 0 3 6 3 6 0 17 -8 24 -17z m1879 -46 c0 -1 -18 -1 -39 1 -32 3 -38 7 -28 17 10 10 17 10 40 -1 15 -8 27 -16 27 -17z m862 3 c34 -16 69 -30 76 -30 13 0 122 -76 122 -86 0 -3 -20 9 -44 26 -25 16 -89 50 -143 75 -54 24 -93 45 -86 45 6 0 40 -13 75 -30z m-2329 -7 c-7 -2 -19 -2 -25 0 -7 3 -2 5 12 5 14 0 19 -2 13 -5z m1332 -2 c-22 -4 -55 -11 -72 -15 -18 -4 -33 -5 -33 -2 0 10 64 24 105 24 l40 -1 -40 -6z m-115 -30 c0 -5 -11 -12 -25 -15 -14 -4 -30 -17 -35 -29 -5 -12 -9 -17 -9 -10 -1 7 -8 10 -18 6 -24 -7 24 28 57 44 14 6 26 12 28 12 1 1 2 -3 2 -8z m2430 -22 l35 -7 -35 0 c-19 -1 -46 5 -60 14 l-25 15 25 -7 c14 -4 41 -11 60 -15z m-3033 5 c-3 -3 -12 -4 -19 -1 -8 3 -5 6 6 6 11 1 17 -2 13 -5z m63 -10 c0 -2 -9 -4 -20 -4 -11 0 -20 4 -20 9 0 5 9 7 20 4 11 -3 20 -7 20 -9z m4013 -51 c81 -53 98 -74 59 -72 -11 0 -12 2 -4 6 16 6 -8 25 -102 81 -39 23 -63 42 -55 42 8 0 54 -25 102 -57z m-955 40 c-10 -2 -26 -2 -35 0 -10 3 -2 5 17 5 19 0 27 -2 18 -5z m221 -9 c2 -2 -18 -4 -45 -4 -34 0 -44 3 -34 9 12 9 68 4 79 -5z m-2662 -60 c82 -40 109 -64 74 -64 -12 0 -20 4 -17 9 6 9 -85 61 -151 87 -32 12 -33 13 -8 9 17 -3 62 -22 102 -41z m1867 17 c6 -10 164 -61 192 -62 13 0 15 -2 5 -6 -7 -3 -40 3 -72 12 -33 10 -62 16 -65 13 -7 -7 15 -51 55 -110 38 -56 97 -191 106 -242 6 -36 5 -38 -9 -27 -9 8 -16 23 -16 35 0 25 -39 135 -69 194 -12 23 -50 78 -86 122 -36 44 -60 80 -55 80 5 0 11 -4 14 -9z m1550 -59 c2 -4 -11 -6 -30 -4 -19 2 -34 6 -34 8 0 8 59 4 64 -4z m-1688 -34 l29 -33 -32 29 c-31 28 -38 36 -30 36 2 0 16 -15 33 -32z m-1693 15 c-7 -2 -21 -2 -30 0 -10 3 -4 5 12 5 17 0 24 -2 18 -5z m-89 -12 c4 -5 -3 -7 -14 -4 -23 6 -26 13 -6 13 8 0 17 -4 20 -9z m179 -190 c28 -47 12 -37 -25 17 -18 26 -48 65 -68 88 -19 23 -10 15 20 -16 30 -32 63 -72 73 -89z m3255 72 c54 -37 68 -52 30 -32 -27 14 -138 100 -138 106 0 3 12 -5 28 -17 15 -11 51 -37 80 -57z m-3685 50 c-7 -2 -21 -2 -30 0 -10 3 -4 5 12 5 17 0 24 -2 18 -5z m83 -21 c-10 -2 -22 0 -28 6 -6 6 0 7 19 4 21 -5 23 -7 9 -10z m4300 -70 c-5 -4 -66 26 -66 33 0 3 16 -3 35 -12 19 -9 33 -18 31 -21z m-3185 -124 c21 -31 39 -60 39 -65 0 -4 -16 17 -36 47 -20 30 -62 82 -93 115 l-56 60 53 -50 c30 -28 71 -76 93 -107z m2934 121 c58 -33 76 -51 24 -23 -48 24 -95 54 -86 54 4 0 32 -14 62 -31z m-6005 -38 c0 -24 -5 -41 -14 -44 -20 -8 -46 24 -46 56 0 23 4 27 30 27 28 0 30 -2 30 -39z m1507 33 c-3 -3 -12 -4 -19 -1 -8 3 -5 6 6 6 11 1 17 -2 13 -5z m40 -10 c-3 -3 -12 -4 -19 -1 -8 3 -5 6 6 6 11 1 17 -2 13 -5z m4159 -21 c-6 -6 -36 9 -36 18 0 5 9 4 20 -3 10 -7 18 -14 16 -15z m-1630 -131 c32 -70 31 -90 -2 -27 -15 28 -44 73 -65 102 -22 29 -39 56 -39 60 1 19 84 -87 106 -135z m-445 -25 c42 -69 20 -50 -37 31 -26 37 -56 79 -68 93 -12 14 1 3 27 -25 27 -28 62 -73 78 -99z m487 124 c40 -21 110 -71 99 -71 -4 0 -39 20 -79 45 -75 47 -85 59 -20 26z m-2083 -17 c43 -32 153 -180 142 -190 -2 -2 -16 17 -33 43 -16 26 -56 75 -89 110 -33 35 -59 63 -57 63 2 0 19 -12 37 -26z m314 -20 c1 -1 1 -7 0 -11 -2 -5 -20 -1 -39 9 l-35 17 35 -6 c19 -3 37 -7 39 -9z m385 -146 c38 -71 20 -51 -38 42 -29 47 -36 63 -19 43 16 -18 41 -56 57 -85z m2746 36 c0 -2 -9 0 -20 6 -11 6 -20 13 -20 16 0 2 9 0 20 -6 11 -6 20 -13 20 -16z m-4777 -33 c-3 -9 -22 -30 -42 -48 -20 -18 -31 -32 -24 -33 6 0 15 5 18 10 3 6 10 10 16 10 13 0 11 -29 -3 -44 -11 -11 -15 -11 -24 2 -8 10 -17 13 -30 7 -10 -4 -25 -9 -33 -11 -7 -1 -20 -12 -28 -23 -8 -12 -19 -18 -25 -15 -6 4 -8 2 -4 -4 3 -6 2 -13 -4 -17 -5 -3 -10 -11 -10 -16 0 -6 4 -8 10 -4 17 10 -10 -52 -31 -71 -24 -21 -24 -14 0 61 35 111 49 132 122 175 38 22 71 45 75 51 9 16 24 -10 17 -30z m857 29 c8 -5 11 -10 5 -10 -5 0 -17 5 -25 10 -8 5 -10 10 -5 10 6 0 17 -5 25 -10z m2543 -78 c14 -41 38 -197 36 -227 -2 -27 -18 35 -18 73 -1 39 -25 138 -50 207 -10 27 -10 28 3 12 8 -10 21 -39 29 -65z m1477 1 c0 -8 -54 34 -75 58 -11 13 1 6 28 -15 26 -21 47 -40 47 -43z m-2671 -7 c-3 -3 -11 5 -18 17 -13 21 -12 21 5 5 10 -10 16 -20 13 -22z m-961 -12 c-4 -3 -12 5 -18 18 -12 22 -12 22 6 6 10 -10 15 -20 12 -24z m1900 -57 c33 -90 42 -141 47 -257 2 -41 1 -61 -2 -43 -3 22 -25 55 -71 104 -36 39 -68 66 -70 60 -2 -6 3 -32 12 -58 8 -27 17 -66 20 -88 6 -43 -40 108 -48 158 -5 29 -1 27 62 -36 67 -66 99 -84 88 -49 -3 9 -12 53 -20 97 -7 44 -25 104 -40 134 -27 57 -32 76 -17 67 5 -3 23 -43 39 -89z m49 63 c28 -16 76 -53 105 -82 30 -29 36 -37 14 -17 -50 44 -146 109 -163 109 -6 0 -15 5 -18 10 -10 17 8 11 62 -20z m-1699 -5 c-3 -3 -9 2 -12 12 -6 14 -5 15 5 6 7 -7 10 -15 7 -18z m-17 -79 c30 -40 35 -56 20 -56 -5 0 -13 12 -19 28 -5 15 -24 42 -41 61 -17 19 -31 37 -31 39 0 10 44 -34 71 -72z m4812 67 c-7 -2 -21 -2 -30 0 -10 3 -4 5 12 5 17 0 24 -2 18 -5z m-5013 -50 c27 -62 21 -63 -13 -2 -15 27 -23 49 -17 49 5 0 18 -21 30 -47z m3151 -82 c16 -24 29 -49 29 -54 0 -5 -16 15 -36 44 -20 30 -46 65 -58 79 l-21 25 28 -25 c15 -13 41 -45 58 -69z m1432 82 c-7 -2 -21 -2 -30 0 -10 3 -4 5 12 5 17 0 24 -2 18 -5z m54 -9 c-3 -3 -12 -4 -19 -1 -8 3 -5 6 6 6 11 1 17 -2 13 -5z m-5984 -24 c5 -21 -16 -45 -33 -35 -13 8 -13 28 2 43 17 17 25 15 31 -8z m6067 10 l25 -8 -25 0 c-14 0 -36 4 -50 8 l-25 8 25 0 c14 0 36 -4 50 -8z m-4909 -99 c26 -59 14 -50 -17 12 -14 28 -21 47 -14 40 7 -6 21 -30 31 -52z m85 10 c38 -27 85 -65 103 -85 46 -47 61 -47 56 2 -4 34 -4 35 4 7 12 -41 13 -75 2 -75 -5 0 -27 18 -49 39 -64 62 -153 132 -187 147 -16 7 -23 13 -14 14 9 0 47 -22 85 -49z m141 7 c-3 -8 -6 -5 -6 6 -1 11 2 17 5 13 3 -3 4 -12 1 -19z m-1443 4 c7 -12 -17 -38 -41 -46 -19 -6 -22 -4 -16 11 14 36 44 55 57 35z m5845 -8 c9 -8 -85 -2 -104 7 -13 6 0 7 40 3 33 -4 62 -8 64 -10z m-4813 -52 c-5 -4 -66 26 -66 33 0 3 16 -3 35 -12 19 -9 33 -18 31 -21z m-1176 -32 c-19 -15 -40 -26 -47 -23 -9 4 -4 10 14 20 15 8 34 21 42 28 8 8 17 12 20 9 3 -3 -10 -18 -29 -34z m4748 15 c-3 -3 -9 2 -12 12 -6 14 -5 15 5 6 7 -7 10 -15 7 -18z m-3588 -47 c43 -53 58 -101 20 -60 -12 12 -26 22 -32 22 -7 0 -7 4 0 13 9 10 3 23 -21 52 -17 22 -26 36 -19 31 7 -4 31 -30 52 -58z m113 31 c23 -12 59 -33 80 -47 32 -21 40 -23 48 -11 6 10 9 4 9 -20 l0 -35 -33 32 c-18 18 -62 48 -97 67 -70 37 -76 49 -7 14z m-1347 -50 c39 -24 42 -34 15 -49 -29 -15 -39 -12 -46 13 -4 12 -9 30 -11 40 -7 22 1 22 42 -4z m1201 -5 c-3 -3 -12 -4 -19 -1 -8 3 -5 6 6 6 11 1 17 -2 13 -5z m-141 -35 c37 -11 78 -28 90 -36 13 -8 28 -12 34 -8 5 3 10 -1 10 -10 0 -9 -3 -15 -7 -13 -52 26 -118 54 -163 68 -30 10 -50 19 -44 19 7 1 42 -8 80 -20z m2381 -81 c-3 -8 -6 -5 -6 6 -1 11 2 17 5 13 3 -3 4 -12 1 -19z m5426 -121 c48 -38 87 -71 87 -74 0 -2 -24 -1 -52 2 l-53 6 25 -21 c13 -12 54 -39 90 -60 36 -21 81 -53 100 -70 20 -18 24 -25 10 -16 -13 9 -33 16 -43 16 -10 0 -29 11 -42 25 -12 14 -59 52 -103 84 l-80 57 56 -4 56 -5 -64 55 c-36 30 -86 69 -112 87 -27 17 -48 34 -48 37 0 9 87 -51 173 -119z m-5413 87 c0 -8 -5 -12 -10 -9 -6 4 -8 11 -5 16 9 14 15 11 15 -7z m-33 -146 c28 -31 35 -20 31 47 -5 78 3 76 13 -3 4 -31 11 -75 15 -96 l7 -39 -40 44 c-22 24 -52 63 -67 87 -14 23 -32 42 -39 42 -8 0 -7 4 3 10 13 8 12 10 -2 10 -13 0 -18 8 -18 28 0 23 7 16 41 -43 22 -38 48 -78 56 -87z m-89 -83 l-1 -60 -8 45 c-4 25 -7 74 -7 110 l1 65 7 -50 c5 -27 8 -77 8 -110z m-1501 103 c-3 -8 -6 -5 -6 6 -1 11 2 17 5 13 3 -3 4 -12 1 -19z m12 -105 c-2 -79 -6 -70 -11 25 -2 28 0 52 5 52 4 0 6 -35 6 -77z m1272 -66 c-4 -50 -7 -45 -15 28 -5 52 -4 57 7 35 6 -13 10 -41 8 -63z m108 -97 c54 -54 156 -120 185 -120 10 0 4 19 -21 65 -19 36 -31 65 -26 65 4 0 17 -20 28 -43 10 -23 29 -57 42 -76 27 -40 29 -55 6 -41 -10 5 -38 18 -63 30 -42 19 -60 31 -158 105 -22 16 -52 52 -66 80 -22 41 -23 44 -5 20 12 -16 48 -55 78 -85z m-672 23 c-2 -16 -4 -3 -4 27 0 30 2 43 4 28 2 -16 2 -40 0 -55z m790 55 c-3 -8 -6 -5 -6 6 -1 11 2 17 5 13 3 -3 4 -12 1 -19z m5700 -55 c96 -95 155 -177 178 -251 l7 -23 -24 23 c-13 13 -20 26 -15 29 14 10 -89 152 -166 227 -41 39 -72 72 -67 72 4 0 43 -35 87 -77z m-5779 -235 c12 -26 22 -55 22 -65 0 -11 5 -24 12 -31 6 -6 10 -13 7 -15 -2 -2 -29 23 -58 57 -43 48 -46 52 -13 21 23 -21 42 -34 42 -28 0 6 -20 53 -45 105 -25 51 -47 109 -50 128 -4 24 5 9 28 -45 19 -44 44 -101 55 -127z m5877 -69 c48 -61 99 -144 109 -177 6 -18 1 -16 -26 11 -18 18 -29 35 -23 39 14 10 -12 51 -78 127 -33 36 -73 84 -90 106 l-31 40 48 -45 c26 -25 67 -70 91 -101z m-4261 -124 l18 -30 -25 29 -25 29 -5 -24 c-4 -21 -5 -20 -6 6 -1 17 -4 55 -6 85 l-5 55 18 -60 c10 -33 26 -73 36 -90z m-1680 47 c38 -67 46 -91 20 -57 -20 26 -79 143 -66 130 6 -5 27 -39 46 -73z m121 -3 c10 -30 0 -33 -13 -4 -6 14 -7 25 -2 25 5 0 12 -9 15 -21z m1534 -127 c1 -7 -3 -10 -9 -7 -5 3 -10 21 -9 38 1 31 1 31 9 7 4 -14 8 -31 9 -38z m4366 -46 c81 -81 145 -184 145 -230 -1 -14 -8 -6 -21 24 -36 76 -87 147 -167 229 -42 44 -68 74 -57 69 11 -6 56 -47 100 -92z m-5875 64 c0 -11 -4 -20 -9 -20 -5 0 -7 9 -4 20 3 11 7 20 9 20 2 0 4 -9 4 -20z m-113 -22 c-3 -8 -6 -5 -6 6 -1 11 2 17 5 13 3 -3 4 -12 1 -19z m66 -171 c8 -12 31 -49 51 -82 l37 -60 -36 40 c-52 56 -115 192 -115 244 0 9 11 -15 24 -52 14 -38 31 -78 39 -90z m1603 96 c21 -32 37 -66 35 -76 -1 -9 4 -20 13 -23 9 -3 12 -12 9 -21 -4 -9 -2 -14 3 -12 5 3 36 -22 69 -54 33 -32 50 -53 38 -47 -13 6 -23 16 -23 22 0 6 -3 9 -6 5 -11 -11 -94 53 -94 72 0 9 -13 35 -30 57 -33 46 -74 134 -61 134 4 0 25 -26 47 -57z m-1932 -39 c3 -8 2 -12 -4 -9 -6 3 -10 10 -10 16 0 14 7 11 14 -7z m61 -99 c29 -43 35 -57 16 -35 -16 19 -40 53 -52 75 -31 55 -19 42 36 -40z m2203 -19 c17 -9 32 -19 32 -21 0 -12 -77 36 -100 62 l-25 28 30 -26 c17 -15 45 -34 63 -43z m3976 -7 c-3 -5 1 -6 9 -3 8 3 41 -16 74 -41 34 -25 63 -45 66 -45 3 0 7 8 9 18 2 10 8 -1 15 -25 l11 -42 -71 60 c-39 32 -74 59 -79 59 -14 0 -9 -26 10 -51 23 -31 95 -169 90 -174 -2 -2 -20 28 -41 66 -20 39 -59 103 -87 144 -39 59 -44 71 -24 59 13 -9 21 -20 18 -25z m-2097 -45 c16 -3 35 -14 41 -25 12 -19 11 -19 -37 0 -28 10 -52 16 -55 13 -4 -3 -6 0 -6 6 0 13 14 15 57 6z m-3706 -51 c13 -16 12 -17 -3 -4 -10 7 -18 15 -18 17 0 8 8 3 21 -13z m37 -35 c10 -10 14 -10 21 0 6 10 16 0 36 -33 29 -51 98 -125 116 -125 7 0 9 10 5 25 -4 14 -5 25 -3 25 2 0 19 -24 39 -52 72 -108 86 -139 46 -95 -13 13 -39 35 -58 48 -19 13 -51 36 -70 51 -41 32 -165 168 -153 168 5 0 15 -6 21 -12z m5937 -198 l14 -40 -32 16 c-41 21 -48 28 -18 19 21 -6 23 -5 19 16 -3 13 -9 33 -12 44 -7 18 -6 18 4 3 6 -10 17 -36 25 -58z m-6210 -250 c30 -23 58 -39 64 -36 5 3 11 -1 15 -9 4 -10 -1 -15 -15 -15 -21 0 -258 220 -271 252 -4 9 29 -21 73 -67 45 -46 105 -102 134 -125z m6210 163 c18 -42 19 -66 2 -38 -18 30 -36 85 -26 79 5 -3 16 -21 24 -41z m-28 -68 c23 -15 46 -24 51 -21 6 3 13 -5 16 -19 6 -24 26 -36 26 -15 0 26 21 3 62 -68 50 -84 151 -217 174 -226 17 -7 29 11 16 27 -5 7 -12 26 -16 42 -5 26 -5 28 6 10 6 -11 31 -45 54 -76 24 -31 49 -68 55 -83 7 -14 18 -26 26 -26 7 0 13 -4 13 -10 0 -14 -74 14 -208 82 -107 54 -121 64 -103 72 31 13 26 23 -16 30 -21 3 -51 16 -67 29 l-30 24 32 -5 c49 -7 40 16 -31 79 -41 37 -78 83 -108 135 -60 104 -68 129 -27 82 18 -20 52 -48 75 -63z m-6359 30 c-3 -3 -9 2 -12 12 -6 14 -5 15 5 6 7 -7 10 -15 7 -18z m22 -50 c0 -5 -5 -3 -10 5 -5 8 -10 20 -10 25 0 6 5 3 10 -5 5 -8 10 -19 10 -25z m344 -136 c33 -21 57 -39 52 -39 -15 0 -72 34 -113 68 -24 19 -43 29 -43 23 0 -6 -4 -11 -10 -11 -5 0 -10 13 -10 29 l0 30 33 -30 c17 -17 59 -48 91 -70z m166 20 c41 -28 141 -67 216 -83 64 -15 66 -16 19 -12 -61 5 -193 54 -255 96 -24 16 -47 25 -50 20 -3 -4 -10 3 -17 16 l-11 25 36 -22 c20 -13 48 -30 62 -40z m280 -45 c0 -2 -8 -1 -17 2 -10 3 -5 -5 12 -20 17 -14 33 -26 38 -26 4 0 7 -4 7 -10 0 -5 -7 -10 -15 -10 -8 0 -15 6 -15 13 0 6 -14 21 -30 32 -16 11 -39 32 -50 47 l-19 26 44 -25 c25 -13 45 -26 45 -29z m-318 -36 c-5 -5 -19 -5 -35 1 -37 14 -34 18 9 13 22 -3 32 -8 26 -14z m6478 -250 c71 2 134 -13 124 -30 -4 -7 -2 -8 5 -4 19 12 57 -19 80 -67 22 -45 28 -87 12 -87 -11 0 -23 59 -14 73 3 6 1 7 -5 3 -6 -4 -18 5 -28 18 -17 28 -113 77 -147 77 -65 0 -147 12 -147 21 0 6 10 7 28 2 15 -5 56 -8 92 -6z m-5683 -1040 c-3 -8 -6 -5 -6 6 -1 11 2 17 5 13 3 -3 4 -12 1 -19z m-657 -282 c0 -2 -8 -10 -17 -17 -16 -13 -17 -12 -4 4 13 16 21 21 21 13z m-100 -100 c0 -2 -8 -10 -17 -17 -16 -13 -17 -12 -4 4 13 16 21 21 21 13z m-50 -40 c0 -2 -8 -10 -17 -17 -16 -13 -17 -12 -4 4 13 16 21 21 21 13z m-2110 -9 c0 -2 -10 -12 -22 -23 l-23 -19 19 23 c18 21 26 27 26 19z m8640 -21 c0 -2 -8 -10 -17 -17 -16 -13 -17 -12 -4 4 13 16 21 21 21 13z m-8712 -54 c-1 -5 -23 -26 -48 -47 l-45 -38 45 46 c45 46 54 54 48 39z m8655 -9 c-7 -2 -19 -2 -25 0 -7 3 -2 5 12 5 14 0 19 -2 13 -5z m-6666 -29 c-3 -3 -12 -4 -19 -1 -8 3 -5 6 6 6 11 1 17 -2 13 -5z m-149 -11 c-10 -2 -26 -2 -35 0 -10 3 -2 5 17 5 19 0 27 -2 18 -5z m6670 -27 c-13 -19 -24 -33 -26 -31 -5 4 37 65 44 65 2 0 -6 -15 -18 -34z m-6773 -11 c-50 -36 -90 -72 -173 -155 -26 -26 -38 -34 -28 -19 28 45 215 206 241 208 5 1 -13 -15 -40 -34z m7213 2 c-18 -17 -39 -41 -46 -52 -7 -11 -6 -6 3 12 8 17 27 41 41 52 39 31 40 26 2 -12z m-6699 -31 c-2 -2 -24 -6 -49 -9 -30 -4 -38 -3 -25 3 19 8 83 14 74 6z m6221 -15 c0 -5 -17 -21 -37 -36 l-38 -28 34 36 c37 39 41 42 41 28z m-6391 -71 c-38 -38 -73 -70 -77 -70 -4 0 11 18 33 39 22 21 53 52 68 70 16 17 32 31 37 31 4 0 -23 -31 -61 -70z m6796 3 c-14 -14 -25 -30 -25 -36 0 -6 -3 -8 -6 -4 -9 9 36 78 47 71 6 -3 -2 -17 -16 -31z m-485 -23 c-6 -11 -13 -20 -16 -20 -2 0 0 9 6 20 6 11 13 20 16 20 2 0 0 -9 -6 -20z m-6399 -77 c-5 -10 -17 -27 -26 -38 -16 -19 -16 -19 -4 5 13 27 29 50 36 50 2 0 -1 -8 -6 -17z"></path><path d="M2300 7265 c0 -8 7 -15 15 -15 8 0 15 7 15 15 0 8 -7 15 -15 15 -8 0 -15 -7 -15 -15z"></path><path d="M5770 6976 c0 -2 7 -9 15 -16 9 -7 15 -8 15 -2 0 5 -7 12 -15 16 -8 3 -15 4 -15 2z"></path><path d="M2211 6303 c-1 -6 -4 -20 -7 -30 -5 -17 -5 -17 6 0 6 10 9 23 6 30 -3 9 -5 9 -5 0z"></path><path d="M6975 4960 c3 -5 8 -10 11 -10 2 0 4 5 4 10 0 6 -5 10 -11 10 -5 0 -7 -4 -4 -10z"></path></g></g></svg>