<svg xmlns="http://www.w3.org/2000/svg" viewBox="0 0 96 80" class="size-12" aria-hidden="true"><path d="M13 70h70" stroke="#cbd5e1" stroke-width="3" stroke-linecap="round"></path><g fill="#0d2337"><circle cx="26" cy="15" r="7"></circle><path d="M18 27c1.4-5 14.6-5 16 0l4 33c.5 4-2 7-6 7H24c-4 0-6.5-3-6-7l4-33z"></path><path d="M12 38c2-7 6-11 12-12l1 8c-5 1-8 4-10 9z" opacity="0.62"></path><circle cx="66" cy="17" r="7"></circle><path d="M58 27c2-5 14-5 16 0l8 36c.8 4-1.5 6-5.5 6h-21c-4 0-6.3-2-5.5-6l8-36z" opacity="0.88"></path><path d="M60 38h13l4 26H52z" fill="#ffffff" opacity="0.1"></path></g></svg>