<svg xmlns="http://www.w3.org/2000/svg" viewBox="67.88 356.42 1449.28 320.44" preserveAspectRatio="xMidYMax meet" class="pointer-events-none text-slate-900" style="width: 92%; height: 92%;"><g><path d="M 1005 357 H 1019 V 358 H 1022 V 359 H 1023 V 360 H 1024 V 361 H 1025 V 362 H 1026 V 364 H 1027 V 371 H 1026 V 373 H 1025 V 375 H 1024 V 378 H 1023 V 381 H 1022 V 384 H 1021 V 387 H 1020 V 390 H 1019 V 392 H 1018 V 394 H 1017 V 396 H 1016 V 399 H 1015 V 401 H 1014 V 403 H 1013 V 406 H 1023 V 407 H 1029 V 408 H 1030 V 409 H 1032 V 410 H 1034 V 411 H 1036 V 412 H 1038 V 413 H 1040 V 414 H 1043 V 415 H 1045 V 414 H 1048 V 415 H 1050 V 416 H 1051 V 415 H 1054 V 414 H 1055 V 413 H 1057 V 406 H 1059 V 405 H 1061 V 404 H 1064 V 405 H 1066 V 404 H 1068 V 405 H 1070 V 414 H 1069 V 416 H 1068 V 417 H 1066 V 418 H 1064 V 419 H 1063 V 420 H 1061 V 421 H 1060 V 422 H 1061 V 423 H 1062 V 425 H 1063 V 427 H 1064 V 428 H 1065 V 429 H 1066 V 430 H 1070 V 431 H 1071 V 432 H 1072 V 434 H 1073 V 439 H 1072 V 442 H 1071 V 447 H 1070 V 450 H 1069 V 452 H 1068 V 457 H 1069 V 458 H 1073 V 459 H 1075 V 460 H 1078 V 461 H 1079 V 462 H 1081 V 463 H 1082 V 464 H 1083 V 465 H 1084 V 466 H 1085 V 467 H 1086 V 468 H 1087 V 469 H 1088 V 470 H 1089 V 471 H 1090 V 473 H 1091 V 475 H 1092 V 477 H 1093 V 478 H 1094 V 481 H 1095 V 485 H 1096 V 491 H 1097 V 492 H 1096 V 498 H 1095 V 502 H 1094 V 504 H 1093 V 506 H 1092 V 508 H 1091 V 511 H 1090 V 513 H 1089 V 515 H 1088 V 516 H 1087 V 528 H 1086 V 530 H 1085 V 531 H 1084 V 532 H 1083 V 533 H 1082 V 534 H 1081 V 536 H 1082 V 538 H 1084 V 539 H 1085 V 542 H 1084 V 544 H 1083 V 545 H 1082 V 546 H 1079 V 547 H 1076 V 546 H 1075 V 545 H 1070 V 544 H 1066 V 545 H 1063 V 544 H 1058 V 545 H 1060 V 546 H 1062 V 548 H 1061 V 549 H 1058 V 550 H 1074 V 551 H 1075 V 550 H 1078 V 551 H 1079 V 552 H 1080 V 557 H 1086 V 558 H 1095 V 559 H 1108 V 558 H 1110 V 557 H 1112 V 556 H 1115 V 557 H 1118 V 558 H 1119 V 557 H 1124 V 558 H 1131 V 559 H 1146 V 560 H 1147 V 561 H 1150 V 562 H 1152 V 563 H 1158 V 564 H 1166 V 565 H 1174 V 566 H 1177 V 565 H 1180 V 564 H 1186 V 565 H 1197 V 566 H 1201 V 567 H 1202 V 568 H 1204 V 569 H 1214 V 570 H 1220 V 571 H 1230 V 572 H 1242 V 573 H 1248 V 572 H 1255 V 571 H 1256 V 572 H 1261 V 571 H 1291 V 572 H 1293 V 573 H 1294 V 574 H 1295 V 581 H 1293 V 585 H 1298 V 586 H 1305 V 587 H 1313 V 588 H 1332 V 587 H 1333 V 586 H 1334 V 585 H 1335 V 584 H 1348 V 583 H 1349 V 582 H 1350 V 581 H 1351 V 580 H 1354 V 579 H 1365 V 580 H 1369 V 574 H 1370 V 572 H 1371 V 571 H 1373 V 570 H 1378 V 571 H 1380 V 572 H 1381 V 573 H 1383 V 584 H 1382 V 585 H 1383 V 587 H 1386 V 588 H 1390 V 589 H 1397 V 590 H 1398 V 591 H 1400 V 592 H 1403 V 591 H 1404 V 590 H 1409 V 589 H 1412 V 583 H 1416 V 582 H 1418 V 579 H 1417 V 573 H 1418 V 571 H 1419 V 570 H 1421 V 569 H 1427 V 570 H 1429 V 571 H 1430 V 572 H 1431 V 582 H 1437 V 581 H 1438 V 580 H 1439 V 579 H 1444 V 580 H 1445 V 581 H 1460 V 582 H 1461 V 583 H 1462 V 584 H 1463 V 591 H 1462 V 593 H 1461 V 594 H 1460 V 595 H 1459 V 596 H 1458 V 597 H 1457 V 598 H 1456 V 599 H 1455 V 600 H 1454 V 601 H 1453 V 602 H 1452 V 603 H 1451 V 605 H 1450 V 607 H 1451 V 608 H 1453 V 609 H 1454 V 610 H 1455 V 611 H 1454 V 614 H 1453 V 617 H 1452 V 618 H 1451 V 619 H 1450 V 620 H 1449 V 621 H 1448 V 622 H 1446 V 623 H 1444 V 624 H 1443 V 625 H 1441 V 626 H 1440 V 627 H 1439 V 628 H 1438 V 632 H 1437 V 633 H 1435 V 634 H 1434 V 636 H 1432 V 637 H 1430 V 640 H 1431 V 641 H 1432 V 645 H 1433 V 646 H 1438 V 647 H 1440 V 648 H 1441 V 649 H 1442 V 650 H 1443 V 652 H 1444 V 654 H 1446 V 655 H 1447 V 656 H 1448 V 657 H 1450 V 658 H 1451 V 659 H 1452 V 660 H 1454 V 661 H 1456 V 662 H 1457 V 663 H 1460 V 664 H 1468 V 665 H 1470 V 666 H 1471 V 667 H 1472 V 671 H 1469 V 672 H 1114 V 673 H 1107 V 672 H 1100 V 673 H 1087 V 672 H 1080 V 673 H 1062 V 672 H 1060 V 673 H 1044 V 674 H 1026 V 675 H 1000 V 676 H 843 V 675 H 838 V 676 H 837 V 675 H 816 V 674 H 815 V 673 H 804 V 674 H 792 V 675 H 776 V 674 H 767 V 675 H 765 V 674 H 741 V 673 H 672 V 674 H 638 V 673 H 621 V 672 H 617 V 673 H 614 V 672 H 610 V 673 H 463 V 672 H 452 V 673 H 451 V 672 H 448 V 673 H 447 V 672 H 442 V 673 H 441 V 672 H 440 V 673 H 431 V 672 H 429 V 673 H 427 V 672 H 426 V 673 H 418 V 672 H 406 V 673 H 405 V 672 H 241 V 671 H 216 V 672 H 205 V 671 H 182 V 672 H 177 V 671 H 176 V 672 H 175 V 671 H 174 V 672 H 173 V 671 H 168 V 672 H 165 V 671 H 164 V 672 H 163 V 671 H 154 V 672 H 143 V 671 H 130 V 672 H 126 V 671 H 109 V 672 H 106 V 671 H 104 V 672 H 103 V 671 H 92 V 672 H 91 V 671 H 86 V 672 H 84 V 671 H 80 V 672 H 79 V 671 H 71 V 670 H 72 V 669 H 82 V 670 H 83 V 669 H 86 V 670 H 89 V 669 H 93 V 670 H 95 V 669 H 145 V 668 H 148 V 669 H 149 V 668 H 154 V 669 H 155 V 668 H 332 V 667 H 499 V 666 H 581 V 665 H 665 V 664 H 663 V 663 H 662 V 662 H 660 V 661 H 659 V 660 H 657 V 659 H 655 V 658 H 654 V 657 H 653 V 656 H 652 V 655 H 650 V 654 H 649 V 653 H 648 V 652 H 646 V 650 H 644 V 649 H 643 V 648 H 642 V 647 H 641 V 646 H 640 V 645 H 639 V 644 H 638 V 640 H 636 V 639 H 635 V 637 H 634 V 636 H 633 V 635 H 632 V 633 H 631 V 631 H 630 V 629 H 629 V 627 H 628 V 625 H 627 V 624 H 626 V 623 H 625 V 620 H 624 V 617 H 623 V 614 H 622 V 612 H 621 V 609 H 620 V 604 H 621 V 603 H 620 V 602 H 619 V 600 H 618 V 591 H 619 V 590 H 618 V 589 H 617 V 578 H 619 V 576 H 618 V 575 H 617 V 570 H 618 V 565 H 619 V 564 H 621 V 563 H 620 V 556 H 621 V 553 H 622 V 550 H 623 V 548 H 624 V 544 H 625 V 541 H 626 V 540 H 627 V 538 H 628 V 536 H 629 V 534 H 630 V 533 H 631 V 531 H 632 V 529 H 633 V 528 H 634 V 526 H 635 V 525 H 636 V 524 H 637 V 523 H 638 V 521 H 639 V 520 H 640 V 519 H 641 V 518 H 642 V 517 H 643 V 516 H 644 V 515 H 645 V 514 H 646 V 513 H 647 V 512 H 648 V 511 H 650 V 510 H 651 V 509 H 652 V 508 H 654 V 507 H 655 V 506 H 656 V 505 H 658 V 504 H 659 V 503 H 661 V 502 H 663 V 501 H 665 V 500 H 667 V 499 H 670 V 498 H 672 V 497 H 673 V 496 H 675 V 495 H 678 V 494 H 682 V 493 H 685 V 492 H 691 V 491 H 695 V 490 H 691 V 489 H 686 V 488 H 679 V 487 H 676 V 486 H 674 V 485 H 671 V 484 H 669 V 483 H 668 V 481 H 667 V 480 H 668 V 478 H 667 V 477 H 666 V 476 H 665 V 475 H 663 V 474 H 660 V 472 H 659 V 469 H 660 V 467 H 661 V 466 H 662 V 465 H 664 V 466 H 670 V 464 H 666 V 463 H 664 V 462 H 662 V 461 H 661 V 460 H 659 V 458 H 658 V 456 H 657 V 455 H 642 V 454 H 626 V 453 H 610 V 452 H 599 V 451 H 587 V 450 H 575 V 449 H 564 V 448 H 551 V 447 H 543 V 446 H 533 V 445 H 523 V 444 H 512 V 443 H 504 V 442 H 494 V 441 H 483 V 440 H 472 V 439 H 461 V 438 H 450 V 437 H 437 V 436 H 423 V 435 H 415 V 434 H 403 V 433 H 391 V 432 H 382 V 431 H 368 V 430 H 356 V 429 H 342 V 428 H 328 V 427 H 316 V 426 H 305 V 425 H 295 V 424 H 283 V 423 H 272 V 422 H 258 V 421 H 244 V 420 H 231 V 419 H 221 V 418 H 217 V 419 H 215 V 420 H 213 V 421 H 194 V 420 H 193 V 421 H 191 V 420 H 184 V 419 H 176 V 420 H 173 V 421 H 169 V 422 H 155 V 423 H 145 V 422 H 127 V 421 H 114 V 420 H 102 V 419 H 93 V 418 H 81 V 417 H 79 V 416 H 77 V 415 H 76 V 414 H 75 V 413 H 74 V 412 H 73 V 411 H 72 V 409 H 71 V 408 H 70 V 387 H 71 V 379 H 72 V 376 H 73 V 375 H 74 V 374 H 75 V 372 H 77 V 371 H 78 V 370 H 79 V 369 H 82 V 368 H 92 V 369 H 106 V 370 H 118 V 371 H 130 V 372 H 140 V 373 H 153 V 374 H 161 V 375 H 163 V 376 H 167 V 377 H 171 V 378 H 173 V 379 H 178 V 380 H 182 V 381 H 183 V 380 H 187 V 381 H 196 V 382 H 202 V 383 H 210 V 384 H 216 V 385 H 217 V 386 H 218 V 387 H 219 V 388 H 235 V 389 H 252 V 390 H 267 V 391 H 284 V 392 H 300 V 393 H 317 V 394 H 333 V 395 H 350 V 396 H 365 V 397 H 381 V 398 H 397 V 399 H 413 V 400 H 429 V 401 H 446 V 402 H 465 V 403 H 480 V 404 H 500 V 405 H 535 V 406 H 568 V 407 H 585 V 408 H 608 V 409 H 621 V 410 H 639 V 411 H 654 V 412 H 666 V 410 H 667 V 408 H 668 V 406 H 669 V 405 H 670 V 404 H 671 V 403 H 672 V 402 H 673 V 401 H 676 V 402 H 677 V 403 H 679 V 402 H 698 V 403 H 717 V 404 H 734 V 405 H 751 V 406 H 759 V 407 H 772 V 408 H 779 V 406 H 780 V 405 H 781 V 403 H 782 V 401 H 783 V 400 H 784 V 399 H 785 V 397 H 786 V 393 H 787 V 391 H 788 V 389 H 789 V 387 H 790 V 385 H 791 V 384 H 792 V 383 H 793 V 382 H 795 V 381 H 798 V 380 H 801 V 379 H 804 V 378 H 806 V 377 H 809 V 376 H 811 V 375 H 813 V 374 H 816 V 373 H 819 V 372 H 821 V 371 H 823 V 370 H 826 V 369 H 828 V 368 H 830 V 367 H 833 V 366 H 836 V 365 H 845 V 366 H 846 V 367 H 847 V 368 H 848 V 373 H 847 V 382 H 848 V 383 H 855 V 382 H 856 V 380 H 857 V 377 H 858 V 374 H 859 V 373 H 860 V 372 H 862 V 373 H 897 V 372 H 909 V 371 H 910 V 370 H 911 V 369 H 912 V 368 H 913 V 367 H 914 V 366 H 915 V 365 H 920 V 364 H 935 V 363 H 947 V 362 H 953 V 361 H 965 V 360 H 977 V 359 H 989 V 358 H 1005 Z M 1039 610 V 612 H 1038 V 616 H 1037 V 618 H 1036 V 620 H 1035 V 621 H 1034 V 628 H 1033 V 630 H 1032 V 631 H 1031 V 633 H 1029 V 634 H 1028 V 639 H 1027 V 641 H 1026 V 643 H 1025 V 644 H 1024 V 645 H 1023 V 646 H 1022 V 647 H 1021 V 648 H 1020 V 651 H 1019 V 652 H 1018 V 653 H 1017 V 654 H 1016 V 655 H 1015 V 656 H 1013 V 657 H 1012 V 658 H 1011 V 659 H 1010 V 660 H 1009 V 661 H 1008 V 662 H 1007 V 663 H 1006 V 664 H 1005 V 665 H 1039 V 664 H 1040 V 665 H 1110 V 666 H 1124 V 665 H 1154 V 666 H 1168 V 665 H 1216 V 666 H 1221 V 665 H 1226 V 666 H 1228 V 665 H 1242 V 666 H 1256 V 665 H 1258 V 666 H 1259 V 665 H 1262 V 666 H 1269 V 665 H 1270 V 666 H 1311 V 665 H 1317 V 664 H 1341 V 658 H 1342 V 656 H 1341 V 655 H 1339 V 654 H 1338 V 653 H 1336 V 652 H 1334 V 651 H 1333 V 650 H 1331 V 649 H 1329 V 648 H 1327 V 647 H 1323 V 646 H 1322 V 645 H 1321 V 642 H 1322 V 641 H 1324 V 642 H 1326 V 643 H 1328 V 644 H 1333 V 643 H 1331 V 642 H 1329 V 641 H 1325 V 640 H 1322 V 639 H 1316 V 638 H 1308 V 637 H 1307 V 636 H 1305 V 635 H 1304 V 634 H 1303 V 630 H 1285 V 629 H 1273 V 628 H 1263 V 627 H 1250 V 626 H 1244 V 625 H 1231 V 624 H 1217 V 623 H 1202 V 622 H 1189 V 621 H 1179 V 620 H 1169 V 619 H 1168 V 620 H 1163 V 621 H 1157 V 620 H 1147 V 619 H 1134 V 618 H 1125 V 617 H 1120 V 616 H 1106 V 615 H 1090 V 614 H 1080 V 613 H 1061 V 612 H 1054 V 611 H 1041 V 610 Z M 852 611 H 851 V 612 H 850 V 613 H 849 V 614 H 848 V 615 H 846 V 616 H 844 V 617 H 842 V 618 H 839 V 619 H 836 V 620 H 828 V 619 H 825 V 618 H 816 V 619 H 812 V 618 H 810 V 617 H 808 V 616 H 801 V 617 H 796 V 616 H 789 V 615 H 787 V 617 H 786 V 618 H 785 V 619 H 784 V 625 H 783 V 626 H 782 V 628 H 781 V 630 H 780 V 631 H 778 V 632 H 779 V 634 H 778 V 636 H 777 V 637 H 776 V 639 H 775 V 640 H 774 V 641 H 772 V 643 H 771 V 644 H 770 V 646 H 769 V 647 H 768 V 648 H 767 V 649 H 766 V 650 H 763 V 652 H 762 V 653 H 761 V 654 H 760 V 655 H 759 V 656 H 758 V 657 H 756 V 658 H 754 V 659 H 753 V 660 H 752 V 661 H 750 V 662 H 749 V 663 H 773 V 662 H 785 V 663 H 805 V 662 H 818 V 663 H 830 V 662 H 850 V 663 H 855 V 662 H 860 V 663 H 879 V 662 H 880 V 663 H 894 V 662 H 893 V 661 H 892 V 660 H 891 V 659 H 890 V 658 H 888 V 657 H 887 V 656 H 886 V 655 H 885 V 654 H 884 V 653 H 883 V 652 H 882 V 651 H 881 V 649 H 880 V 648 H 879 V 647 H 878 V 645 H 877 V 644 H 876 V 643 H 875 V 642 H 874 V 641 H 873 V 640 H 872 V 638 H 871 V 636 H 870 V 634 H 869 V 631 H 868 V 630 H 867 V 629 H 866 V 627 H 865 V 625 H 864 V 623 H 863 V 618 H 862 V 614 H 861 V 613 H 853 V 612 H 852 Z M 221 392 V 396 H 238 V 397 H 239 V 396 H 252 V 397 H 260 V 398 H 261 V 397 H 265 V 398 H 276 V 399 H 283 V 400 H 287 V 399 H 288 V 400 H 298 V 401 H 312 V 402 H 329 V 403 H 336 V 404 H 354 V 405 H 374 V 406 H 392 V 407 H 404 V 408 H 421 V 409 H 425 V 408 H 427 V 409 H 442 V 410 H 443 V 409 H 444 V 410 H 460 V 411 H 476 V 412 H 478 V 411 H 483 V 412 H 487 V 410 H 480 V 409 H 461 V 408 H 449 V 407 H 432 V 406 H 425 V 405 H 401 V 404 H 381 V 403 H 369 V 402 H 355 V 401 H 343 V 400 H 331 V 399 H 330 V 400 H 329 V 399 H 307 V 398 H 293 V 397 H 279 V 396 H 265 V 395 H 251 V 394 H 236 V 393 H 225 V 392 Z M 519 412 V 413 H 520 V 414 H 524 V 415 H 525 V 414 H 527 V 415 H 540 V 416 H 543 V 415 H 545 V 416 H 549 V 417 H 568 V 418 H 572 V 419 H 574 V 418 H 592 V 419 H 604 V 420 H 618 V 421 H 634 V 422 H 640 V 423 H 642 V 419 H 641 V 418 H 626 V 417 H 625 V 418 H 621 V 417 H 615 V 416 H 614 V 417 H 612 V 416 H 603 V 415 H 589 V 414 H 571 V 413 H 565 V 414 H 563 V 413 H 549 V 412 H 545 V 413 H 543 V 412 Z M 1058 457 V 458 H 1059 V 460 H 1058 V 461 H 1059 V 469 H 1060 V 468 H 1062 V 469 H 1063 V 473 H 1069 V 474 H 1074 V 475 H 1076 V 476 H 1077 V 477 H 1078 V 484 H 1080 V 485 H 1083 V 484 H 1084 V 483 H 1085 V 482 H 1086 V 481 H 1087 V 482 H 1088 V 484 H 1089 V 481 H 1088 V 478 H 1087 V 476 H 1086 V 474 H 1085 V 473 H 1084 V 471 H 1083 V 470 H 1082 V 469 H 1081 V 468 H 1080 V 467 H 1079 V 466 H 1077 V 465 H 1073 V 464 H 1071 V 465 H 1065 V 463 H 1064 V 460 H 1063 V 459 H 1062 V 458 H 1061 V 457 Z M 137 386 V 389 H 136 V 402 H 135 V 409 H 140 V 408 H 136 V 404 H 139 V 403 H 141 V 402 H 142 V 401 H 144 V 406 H 145 V 408 H 146 V 409 H 149 V 394 H 150 V 390 H 149 V 388 H 147 V 387 H 145 V 386 Z M 108 383 V 385 H 107 V 394 H 108 V 392 H 109 V 393 H 115 V 395 H 116 V 405 H 115 V 408 H 117 V 409 H 122 V 391 H 123 V 384 H 114 V 383 Z M 817 421 V 423 H 818 V 424 H 817 V 425 H 824 V 426 H 831 V 427 H 837 V 426 H 838 V 425 H 839 V 424 H 838 V 423 H 833 V 422 H 831 V 421 Z M 738 471 V 472 H 747 V 473 H 762 V 474 H 777 V 475 H 793 V 474 H 783 V 473 H 765 V 472 H 750 V 471 Z M 867 419 H 866 V 421 H 867 V 422 H 865 V 425 H 864 V 428 H 865 V 430 H 866 V 431 H 867 V 430 H 868 V 429 H 869 V 427 H 870 V 424 H 872 V 423 H 873 V 421 H 872 V 419 H 868 V 420 H 867 Z M 697 414 V 416 H 698 V 417 H 703 V 418 H 706 V 419 H 717 V 418 H 720 V 419 H 723 V 417 H 722 V 416 H 721 V 417 H 717 V 416 H 715 V 417 H 714 V 416 H 713 V 417 H 711 V 416 H 705 V 415 H 699 V 414 Z M 199 388 V 391 H 200 V 392 H 207 V 393 H 216 V 394 H 218 V 392 H 215 V 391 H 213 V 390 H 211 V 389 H 201 V 388 Z M 1011 411 V 412 H 1010 V 416 H 1014 V 418 H 1009 V 420 H 1010 V 421 H 1013 V 419 H 1014 V 420 H 1015 V 419 H 1017 V 417 H 1016 V 416 H 1015 V 411 Z M 647 417 H 646 V 421 H 647 V 422 H 653 V 421 H 659 V 419 H 657 V 418 H 647 Z M 488 411 V 412 H 504 V 413 H 515 V 414 H 516 V 413 H 517 V 412 H 515 V 411 H 512 V 412 H 511 V 411 Z M 1061 442 V 444 H 1062 V 450 H 1063 V 449 H 1064 V 445 H 1067 V 442 Z M 1050 494 V 495 H 1046 V 496 H 1044 V 497 H 1043 V 498 H 1042 V 499 H 1041 V 500 H 1040 V 501 H 1041 V 500 H 1043 V 499 H 1044 V 498 H 1046 V 497 H 1048 V 496 H 1051 V 495 H 1056 V 494 Z M 850 386 V 387 H 851 V 392 H 853 V 391 H 854 V 390 H 855 V 386 Z M 1049 548 V 549 H 1048 V 550 H 1047 V 551 H 1055 V 550 H 1057 V 549 H 1052 V 548 Z M 1068 492 V 494 H 1062 V 495 H 1063 V 496 H 1067 V 497 H 1069 V 494 H 1070 V 492 Z M 1280 581 V 583 H 1282 V 584 H 1287 V 581 Z M 691 412 H 690 V 413 H 691 V 415 H 692 V 416 H 693 V 417 H 694 V 419 H 695 V 420 H 696 V 419 H 695 V 416 H 696 V 415 H 695 V 413 H 691 Z M 725 493 V 494 H 728 V 495 H 730 V 496 H 733 V 495 H 734 V 494 H 732 V 493 Z M 191 386 H 190 V 392 H 191 V 395 H 192 V 387 H 191 Z M 844 540 V 542 H 852 V 543 H 854 V 541 H 846 V 540 Z M 1280 575 V 577 H 1288 V 576 H 1286 V 575 Z M 695 467 V 468 H 698 V 469 H 703 V 467 Z M 795 475 V 476 H 808 V 475 Z M 187 386 H 186 V 392 H 187 V 393 H 188 V 387 H 187 Z M 194 388 V 391 H 195 V 392 H 196 V 393 H 197 V 388 Z M 1072 563 V 564 H 1073 V 565 H 1080 V 564 H 1077 V 563 Z M 784 435 V 436 H 795 V 435 Z M 724 470 V 471 H 735 V 470 Z M 662 419 V 420 H 664 V 422 H 665 V 421 H 667 V 422 H 669 V 421 H 671 V 420 H 669 V 421 H 667 V 420 H 664 V 419 Z M 1044 430 V 431 H 1045 V 432 H 1043 V 434 H 1042 V 435 H 1041 V 436 H 1043 V 434 H 1044 V 433 H 1045 V 432 H 1046 V 431 H 1047 V 430 Z M 1209 577 V 578 H 1219 V 577 Z M 1368 643 V 644 H 1367 V 646 H 1370 V 645 H 1372 V 644 H 1370 V 643 Z M 687 409 H 686 V 412 H 687 V 417 H 688 V 411 H 687 Z M 1080 568 V 569 H 1089 V 568 Z M 1221 578 V 579 H 1230 V 578 Z M 180 386 H 179 V 390 H 180 V 392 H 181 V 388 H 180 Z M 1064 411 H 1063 V 412 H 1061 V 413 H 1063 V 414 H 1062 V 415 H 1061 V 416 H 1060 V 417 H 1061 V 416 H 1063 V 414 H 1064 V 413 H 1063 V 412 H 1064 Z M 810 475 V 477 H 813 V 476 H 815 V 475 Z M 1411 637 V 638 H 1412 V 639 H 1415 V 640 H 1416 V 638 H 1414 V 637 Z M 705 406 V 407 H 712 V 406 Z M 1106 570 V 571 H 1113 V 570 Z M 1200 576 V 577 H 1207 V 576 Z M 946 365 V 366 H 952 V 365 Z M 184 386 H 183 V 392 H 184 Z M 795 421 H 794 V 422 H 795 V 423 H 798 V 421 H 796 V 422 H 795 Z M 1073 538 V 539 H 1076 V 540 H 1077 V 539 H 1078 V 538 Z M 785 574 V 575 H 786 V 576 H 787 V 577 H 788 V 578 H 789 V 577 H 788 V 575 H 787 V 574 Z M 107 374 H 106 V 375 H 105 V 376 H 103 V 377 H 106 V 375 H 107 Z M 95 375 V 376 H 96 V 377 H 99 V 376 H 97 V 375 Z M 153 379 H 152 V 380 H 153 V 384 H 154 V 380 H 153 Z M 854 394 V 396 H 855 V 395 H 856 V 396 H 857 V 394 Z M 770 434 V 435 H 775 V 434 Z M 1062 566 V 567 H 1067 V 566 Z M 1208 580 V 581 H 1213 V 580 Z M 1449 602 H 1448 V 603 H 1447 V 604 H 1446 V 605 H 1448 V 604 H 1449 Z M 715 407 V 408 H 719 V 407 Z M 729 408 V 409 H 731 V 410 H 733 V 409 H 731 V 408 Z M 1017 415 V 416 H 1021 V 415 Z M 707 469 V 470 H 711 V 469 Z M 693 505 H 692 V 507 H 693 V 508 H 694 V 506 H 693 Z M 1067 541 V 542 H 1071 V 541 Z M 837 566 V 567 H 841 V 566 Z M 1071 567 V 568 H 1075 V 567 Z M 1234 579 V 580 H 1238 V 579 Z M 1397 642 H 1396 V 645 H 1397 V 644 H 1398 V 643 H 1397 Z M 924 367 V 368 H 927 V 367 Z M 821 389 V 390 H 824 V 389 Z M 887 392 H 886 V 395 H 887 Z M 935 538 H 934 V 539 H 933 V 540 H 932 V 541 H 933 V 540 H 934 V 539 H 935 Z M 966 574 H 965 V 575 H 963 V 576 H 965 V 575 H 966 Z M 1275 575 V 576 H 1278 V 575 Z M 970 636 V 637 H 973 V 636 Z M 1400 646 V 647 H 1403 V 646 Z M 959 364 V 365 H 961 V 364 Z M 921 369 H 920 V 370 H 919 V 371 H 920 V 370 H 921 Z M 100 377 V 378 H 102 V 377 Z M 889 390 V 391 H 891 V 390 Z M 882 391 V 392 H 884 V 391 Z M 725 418 V 419 H 727 V 418 Z M 728 418 V 419 H 730 V 418 Z M 1030 440 V 441 H 1032 V 440 Z M 1027 441 V 442 H 1029 V 441 Z M 710 452 H 709 V 453 H 708 V 454 H 709 V 453 H 710 Z M 685 466 V 467 H 687 V 466 Z M 829 476 H 828 V 477 H 829 V 478 H 830 V 477 H 829 Z M 834 478 V 479 H 836 V 478 Z M 941 533 H 940 V 534 H 939 V 535 H 940 V 534 H 941 Z M 945 552 H 944 V 553 H 943 V 554 H 944 V 553 H 945 Z M 721 565 V 566 H 723 V 565 Z M 1095 569 V 570 H 1097 V 569 Z M 1513 670 H 1515 V 671 H 1513 Z M 963 364 H 962 V 365 H 963 Z M 919 372 H 918 V 373 H 919 Z M 913 382 H 912 V 383 H 913 Z M 912 384 H 911 V 385 H 912 Z M 826 390 H 825 V 391 H 826 Z M 873 393 H 872 V 394 H 873 Z M 902 400 H 901 V 401 H 902 Z M 901 402 H 900 V 403 H 901 Z M 109 407 H 108 V 408 H 109 Z M 898 407 H 897 V 408 H 898 Z M 897 409 H 896 V 410 H 897 Z M 859 410 H 858 V 411 H 859 Z M 945 415 H 944 V 416 H 945 Z M 943 416 H 942 V 417 H 943 Z M 679 422 H 678 V 423 H 679 Z M 791 422 H 790 V 423 H 791 Z M 815 422 H 814 V 423 H 815 Z M 871 421 H 872 V 422 H 871 Z M 1012 428 H 1011 V 429 H 1012 Z M 843 453 H 842 V 454 H 843 Z M 737 470 H 736 V 471 H 737 Z M 819 474 H 818 V 475 H 819 Z M 1047 492 H 1046 V 493 H 1047 Z M 704 502 H 703 V 503 H 704 Z M 944 531 H 943 V 532 H 944 Z M 1060 541 H 1059 V 542 H 1060 Z M 941 556 H 940 V 557 H 941 Z M 1077 556 H 1076 V 557 H 1077 Z M 1111 561 H 1110 V 562 H 1111 Z M 732 562 H 731 V 563 H 732 Z M 1116 567 H 1115 V 568 H 1116 Z M 786 580 H 785 V 581 H 786 Z M 819 585 H 818 V 586 H 819 Z M 1429 604 H 1428 V 605 H 1429 Z M 977 635 H 976 V 636 H 977 Z M 1410 636 H 1409 V 637 H 1410 Z M 1428 640 H 1427 V 641 H 1428 Z" fill="currentColor" fill-rule="evenodd"></path></g></svg>