<svg xmlns="http://www.w3.org/2000/svg" viewBox="333.71 70.39 356.85 1392.41" preserveAspectRatio="xMidYMax meet" class="pointer-events-none text-slate-900" style="width: 92%; height: 92%;"><g><g transform="translate(0.000000,1536.000000) scale(0.100000,-0.100000)" fill="currentColor" stroke="none"><path d="M4953 14625 c-177 -48 -319 -187 -437 -427 -111 -227 -176 -452 -200 -693 -15 -142 -37 -220 -120 -423 -49 -117 -45 -217 11 -330 l26 -52 -22 -24 c-12 -13 -40 -31 -62 -41 -40 -18 -51 -35 -23 -35 8 0 24 5 35 11 19 10 20 8 14 -25 -10 -50 12 -129 51 -185 18 -27 30 -52 26 -55 -3 -4 2 -4 13 0 14 5 17 4 10 -3 -10 -10 -189 -63 -212 -63 -23 0 -148 -53 -190 -81 -22 -15 -51 -30 -62 -34 -52 -16 -101 -118 -125 -261 -32 -182 -37 -270 -46 -754 -9 -468 -14 -583 -41 -895 -6 -71 -12 -178 -14 -236 -1 -59 -6 -113 -11 -120 -8 -14 -14 -86 -33 -419 -6 -96 -13 -211 -16 -255 -3 -44 -9 -208 -15 -365 -12 -365 -17 -426 -41 -592 l-21 -138 22 -44 22 -43 -22 -124 c-12 -68 -30 -158 -41 -201 -25 -99 -24 -120 6 -180 14 -27 32 -77 40 -111 41 -162 49 -172 238 -311 60 -45 77 -62 77 -82 0 -23 -11 -145 -55 -634 -13 -144 -40 -403 -74 -730 -6 -52 -15 -126 -21 -165 -5 -38 -21 -171 -35 -295 -14 -124 -29 -259 -35 -300 -20 -142 -39 -296 -70 -555 -17 -143 -35 -287 -40 -320 -5 -33 -14 -109 -20 -170 -6 -60 -29 -256 -50 -435 -22 -179 -41 -341 -44 -361 -8 -76 25 -93 239 -124 22 -3 175 -8 340 -10 304 -4 396 -12 404 -37 9 -28 61 -68 103 -79 l45 -12 27 -121 c110 -486 100 -414 101 -691 1 -230 -1 -256 -21 -330 -13 -44 -39 -138 -59 -210 -20 -71 -52 -166 -72 -210 -71 -161 -85 -206 -86 -286 -2 -91 11 -121 68 -154 64 -38 148 -55 270 -55 168 0 284 40 320 111 21 40 27 121 18 232 -10 113 -2 222 27 354 27 126 26 214 -4 300 -18 51 -24 89 -24 153 0 71 -5 99 -31 167 -16 45 -35 117 -40 160 -9 73 -6 441 5 509 6 39 25 44 179 44 l112 0 7 -217 c8 -266 -2 -376 -45 -493 -26 -70 -31 -100 -32 -170 0 -57 -6 -103 -19 -140 -33 -95 -34 -169 -3 -320 23 -115 27 -155 25 -270 -6 -276 0 -308 69 -358 68 -49 149 -65 304 -60 124 4 138 7 200 36 84 39 107 72 107 157 0 76 -17 138 -67 250 -40 89 -106 289 -138 415 -9 36 -23 83 -31 105 -12 31 -13 54 -5 106 6 42 6 97 -1 150 -16 133 -4 252 48 474 25 110 53 237 62 282 l17 83 65 20 c84 26 214 40 366 40 279 0 632 67 689 130 17 19 17 29 6 148 -7 70 -25 233 -41 362 -30 242 -76 638 -111 955 -10 99 -26 239 -34 310 -75 659 -130 1160 -150 1380 -9 94 -23 233 -31 310 -8 77 -21 223 -29 325 -8 102 -17 199 -19 215 -3 27 2 35 56 74 34 25 89 68 123 98 61 52 62 54 95 160 18 59 44 129 57 155 12 26 23 57 23 69 0 13 -15 93 -34 178 -48 215 -51 246 -34 274 25 38 27 66 13 156 -19 123 -26 294 -30 721 -2 206 -9 463 -15 570 -18 326 -21 402 -20 465 0 33 -7 141 -17 240 -14 147 -17 298 -18 825 -1 648 -3 695 -41 930 -16 100 -52 195 -88 229 -55 51 -184 112 -336 157 -69 20 -129 40 -134 45 -5 4 10 26 33 48 58 57 56 83 -14 162 -32 35 -54 68 -51 76 3 8 2 12 -2 9 -17 -10 1 143 25 214 51 152 33 292 -82 613 -35 100 -84 256 -109 347 -105 384 -193 559 -343 685 -86 71 -164 110 -253 126 -59 10 -76 10 -107 -2 -31 -12 -44 -12 -73 -2 -45 15 -83 15 -147 -2z m-668 -1572 c0 -60 2 -138 4 -174 3 -65 -18 -139 -41 -139 -5 0 -18 19 -28 43 -39 84 -21 226 42 336 12 22 23 41 23 41 0 0 0 -48 0 -107z m1752 -120 c-3 -10 -5 -4 -5 12 0 17 2 24 5 18 2 -7 2 -21 0 -30z m-30 -205 c-3 -8 -6 -5 -6 6 -1 11 2 17 5 13 3 -3 4 -12 1 -19z m-1780 -140 c-3 -8 -6 -5 -6 6 -1 11 2 17 5 13 3 -3 4 -12 1 -19z m1837 -59 c-3 -5 0 -8 6 -7 7 2 21 -9 32 -23 16 -22 18 -30 9 -48 -16 -29 -27 -26 -34 7 -3 15 -22 51 -41 80 l-35 52 34 -26 c19 -14 32 -30 29 -35z m-1847 -1 c-3 -7 -5 -2 -5 12 0 14 2 19 5 13 2 -7 2 -19 0 -25z m1809 -114 c9 -34 -5 -45 -41 -35 -22 6 -29 13 -27 27 2 10 4 37 4 59 l0 39 29 -32 c16 -17 31 -43 35 -58z m-1767 -2164 c6 -183 5 -247 -5 -290 -20 -81 -17 -108 11 -136 29 -29 30 -39 10 -87 -8 -20 -15 -48 -15 -63 0 -14 -20 -67 -44 -118 -63 -130 -194 -494 -197 -545 0 -9 -3 -11 -5 -5 -3 7 11 72 31 146 19 75 51 227 70 339 19 112 38 229 44 259 15 84 29 253 42 490 7 118 14 249 17 290 l5 75 13 -60 c8 -34 18 -161 23 -295z m1831 -25 c11 -306 19 -409 45 -555 7 -41 16 -97 20 -125 10 -83 54 -299 101 -497 51 -218 57 -270 10 -88 -58 223 -162 514 -220 615 -13 22 -26 60 -30 85 -3 25 -12 66 -18 92 -11 45 -11 48 14 67 35 28 40 58 25 133 -20 94 -16 368 8 495 11 56 23 99 27 95 4 -4 12 -147 18 -317z m-2113 -1377 c-3 -8 -6 -5 -6 6 -1 11 2 17 5 13 3 -3 4 -12 1 -19z m2330 -50 c-3 -8 -6 -5 -6 6 -1 11 2 17 5 13 3 -3 4 -12 1 -19z m10 -50 c-3 -8 -6 -5 -6 6 -1 11 2 17 5 13 3 -3 4 -12 1 -19z m10 -50 c-3 -8 -6 -5 -6 6 -1 11 2 17 5 13 3 -3 4 -12 1 -19z m-2390 -40 c-3 -8 -6 -5 -6 6 -1 11 2 17 5 13 3 -3 4 -12 1 -19z m2400 -20 c-3 -7 -5 -2 -5 12 0 14 2 19 5 13 2 -7 2 -19 0 -25z m-2410 -30 c-3 -8 -6 -5 -6 6 -1 11 2 17 5 13 3 -3 4 -12 1 -19z m2420 -30 c-3 -7 -5 -2 -5 12 0 14 2 19 5 13 2 -7 2 -19 0 -25z m-2430 -20 c-3 -8 -6 -5 -6 6 -1 11 2 17 5 13 3 -3 4 -12 1 -19z m2440 -35 c-3 -10 -5 -4 -5 12 0 17 2 24 5 18 2 -7 2 -21 0 -30z m-2457 -84 c-23 -189 -32 -278 -39 -354 l-6 -80 -18 34 c-16 28 -17 38 -7 62 8 18 10 49 6 81 -4 29 -2 78 3 108 10 54 64 240 68 236 2 -1 -2 -40 -7 -87z m2496 -58 c22 -90 25 -114 18 -180 l-7 -76 -23 175 c-32 244 -31 249 12 81z m28 -327 c3 -8 2 -12 -4 -9 -6 3 -10 10 -10 16 0 14 7 11 14 -7z m-2703 -426 c1 -2 4 -65 8 -140 5 -109 3 -135 -6 -125 -37 37 -47 267 -12 267 5 0 9 -1 10 -2z m2843 -55 c16 -58 5 -213 -17 -232 -9 -7 -12 17 -11 97 2 143 3 152 13 152 5 0 12 -8 15 -17z"></path></g></g></svg>