<svg xmlns="http://www.w3.org/2000/svg" viewBox="364.66 144.5 318.94 1208.94" preserveAspectRatio="xMidYMax meet" class="pointer-events-none text-slate-900" style="width: 92%; height: 92%;"><g><g transform="translate(0.000000,1536.000000) scale(0.100000,-0.100000)" fill="currentColor" stroke="none"><path d="M5059 13876 c-84 -34 -122 -60 -183 -127 -73 -78 -95 -118 -167 -296 -94 -234 -92 -225 -98 -443 l-6 -195 -32 -3 c-23 -2 -35 3 -47 19 -8 13 -18 20 -22 17 -3 -4 6 -19 21 -34 22 -22 33 -26 65 -21 34 4 39 2 45 -20 3 -13 24 -44 45 -67 22 -24 40 -50 40 -59 0 -44 -82 -63 -129 -30 -18 12 -23 13 -19 2 6 -21 133 -81 182 -86 35 -4 47 -1 74 22 26 22 32 34 32 68 l1 42 19 -35 c11 -19 19 -45 20 -57 0 -26 -35 -53 -67 -53 -32 0 -29 -16 5 -23 43 -8 124 8 139 29 7 10 13 31 13 48 0 42 16 21 25 -31 6 -36 4 -43 -9 -43 -23 0 -36 -41 -36 -109 0 -56 -1 -59 -37 -83 -21 -14 -69 -54 -108 -88 -116 -103 -175 -138 -288 -171 -265 -76 -337 -105 -363 -143 -24 -38 -59 -188 -94 -406 -135 -840 -147 -900 -204 -1045 -24 -60 -46 -121 -49 -134 -7 -30 6 -65 43 -109 17 -20 30 -46 30 -57 0 -12 -20 -45 -45 -74 -66 -77 -71 -123 -19 -184 31 -37 30 -68 -2 -122 l-25 -44 10 -158 c6 -87 10 -210 8 -273 l-2 -116 42 -69 c64 -106 66 -129 43 -388 -11 -122 -24 -274 -30 -337 -6 -63 -24 -360 -40 -660 -17 -300 -37 -642 -45 -760 -8 -118 -22 -330 -30 -470 -18 -300 -71 -1051 -86 -1229 -10 -120 -9 -124 11 -146 39 -41 146 -85 303 -124 197 -49 499 -106 519 -98 13 4 18 27 23 94 l7 89 29 -4 c21 -3 29 -10 29 -26 0 -11 5 -93 10 -180 l9 -160 -35 -30 -35 -31 101 -500 c238 -1182 220 -1082 208 -1137 -9 -37 -9 -57 0 -82 17 -46 15 -69 -8 -89 -15 -12 -20 -29 -20 -65 0 -67 -24 -154 -67 -242 -28 -58 -55 -94 -119 -156 -76 -74 -84 -86 -104 -151 -13 -43 -20 -90 -18 -119 3 -48 4 -50 53 -74 106 -53 342 -34 463 36 52 31 68 55 77 117 7 51 20 58 69 36 31 -14 119 13 153 47 21 21 23 31 23 136 -1 173 -16 307 -41 369 -13 31 -23 78 -24 109 -1 30 -9 82 -20 115 -17 55 -19 121 -26 800 -8 760 -16 941 -42 960 -16 11 -66 289 -55 300 13 13 117 35 193 41 l80 7 -3 -134 c-1 -74 2 -140 7 -148 7 -11 32 -12 152 -3 79 6 145 10 146 9 1 -2 8 -52 16 -112 10 -77 11 -116 4 -136 -15 -38 49 -354 153 -759 44 -173 89 -362 100 -420 23 -118 61 -373 65 -438 2 -23 9 -50 16 -59 11 -12 15 -92 18 -357 l3 -341 35 -32 c19 -18 43 -33 54 -33 17 0 19 -8 19 -89 0 -87 1 -90 31 -120 76 -76 181 -108 323 -98 142 10 226 57 226 127 0 56 -35 153 -100 276 -89 168 -121 261 -129 376 -6 80 -11 103 -30 129 -21 29 -23 39 -18 106 4 49 1 90 -8 121 -9 29 -20 174 -29 382 -37 782 -67 1255 -82 1293 -3 10 -19 20 -33 23 -25 5 -29 13 -54 116 -15 61 -26 113 -23 115 2 3 55 18 118 35 137 36 274 90 347 135 l54 35 -6 88 c-8 105 -88 739 -122 965 -13 88 -40 270 -60 405 -94 654 -110 756 -295 1895 -44 270 -83 505 -86 523 -3 17 -2 32 1 32 3 0 28 -11 55 -25 74 -38 85 -34 120 35 16 33 51 94 76 137 73 123 148 278 194 403 23 63 62 158 86 211 70 151 74 212 24 334 -11 28 -10 35 19 80 36 56 41 119 16 182 -8 21 -37 124 -64 228 -27 105 -85 332 -129 505 -45 173 -95 380 -113 460 -35 165 -85 326 -108 354 -30 34 -113 67 -265 106 -83 21 -174 49 -201 62 -65 30 -193 120 -273 192 -34 31 -69 56 -77 56 -11 0 -15 13 -15 55 0 46 -4 60 -25 81 -14 14 -25 36 -25 50 0 22 2 23 20 14 14 -7 26 -8 39 0 28 14 31 13 31 -16 0 -14 -4 -23 -10 -19 -5 3 -10 2 -10 -3 0 -15 69 -72 87 -72 11 0 8 6 -11 21 -17 13 -26 30 -26 49 0 32 13 46 55 55 17 4 44 16 62 27 l32 19 13 -28 c7 -15 30 -37 50 -48 21 -11 39 -27 42 -35 2 -9 4 -6 5 7 1 14 -9 28 -28 39 -16 10 -34 28 -40 41 -10 22 -6 29 41 73 30 27 57 45 63 40 20 -15 64 -19 94 -9 46 16 38 27 -18 21 -28 -2 -51 0 -55 6 -3 6 15 31 41 56 l48 45 0 78 c0 75 -3 83 -63 212 -35 73 -86 204 -114 290 -67 208 -95 258 -198 360 -131 129 -240 172 -346 136 -49 -17 -55 -17 -93 -1 -57 22 -116 20 -182 -8z m-392 -648 c-3 -8 -6 -5 -6 6 -1 11 2 17 5 13 3 -3 4 -12 1 -19z m-17 -78 l-11 -25 6 25 c2 14 5 34 6 45 2 19 2 19 6 0 2 -12 -1 -32 -7 -45z m1374 -308 c-4 -18 -18 -46 -31 -60 l-24 -27 13 25 c7 15 13 62 13 119 l0 93 18 -58 c11 -36 15 -70 11 -92z m-107 1 c-2 -16 -4 -3 -4 27 0 30 2 43 4 28 2 -16 2 -40 0 -55z m-1227 -88 c0 -5 -5 -3 -10 5 -5 8 -10 20 -10 25 0 6 5 3 10 -5 5 -8 10 -19 10 -25z m1200 -34 c0 -17 -10 -42 -24 -58 l-25 -28 22 57 c12 32 23 58 25 58 1 0 2 -13 2 -29z m-322 -111 c-26 -39 -34 -45 -36 -29 -2 11 11 42 30 69 26 39 34 45 36 29 2 -11 -11 -42 -30 -69z m-748 29 c0 -14 -6 -33 -12 -42 -11 -15 -12 -8 -9 39 3 57 21 59 21 3z m-60 -43 c0 -2 -8 -10 -17 -17 -16 -13 -17 -12 -4 4 13 16 21 21 21 13z m1391 -2035 c6 -29 26 -85 45 -124 40 -83 42 -111 13 -177 -27 -64 -20 -111 21 -140 17 -12 30 -25 30 -29 0 -5 -20 -35 -45 -67 -54 -69 -61 -91 -47 -145 11 -43 10 -44 -40 -81 -9 -7 -30 -39 -47 -70 -25 -49 -31 -55 -36 -37 -4 12 -4 45 0 74 5 41 1 65 -16 111 -31 80 -27 133 28 454 25 146 50 294 56 330 l11 65 8 -55 c5 -30 13 -79 19 -109z"></path></g></g></svg>